<?xml version="1.0" encoding="UTF-8" standalone="no"?>
<!DOCTYPE svg PUBLIC "-//W3C//DTD SVG 1.0//EN"
 "http://www.w3.org/TR/2001/REC-SVG-20010904/DTD/svg10.dtd" [
 <!ATTLIST svg xmlns:xlink CDATA #FIXED "http://www.w3.org/1999/xlink">
]>
<!-- Generated by Graphviz version 2.12 (Mon Apr 23 09:57:53 UTC 2007)
     For user:  -->
<!-- Title: G Pages: 1 -->
<svg width="6.85in" height="19.34in"
 xmlns="http://www.w3.org/2000/svg" xmlns:xlink="http://www.w3.org/1999/xlink">
<g id="graph0" class="graph" transform="scale(1.33333 1.33333) rotate(0) translate(4 1389)">
<title>G</title>
<polygon style="fill:white;stroke:white;" points="-4,4 -4,-1389 490,-1389 490,4 -4,4"/>
<text text-anchor="middle" x="243" y="-7" style="font-family:Nimbus Roman No9 L;font-weight:regular;font-size:11.34pt;">(select A union select B) intersect select C;</text>
<!-- GdaSqlStatement -->
<g id="node1" class="node"><title>GdaSqlStatement</title>
<polygon style="fill:none;stroke:black;" points="402.802,-1358.07 402.802,-1373.93 363.67,-1385.13 308.33,-1385.13 269.198,-1373.93 269.198,-1358.07 308.33,-1346.87 363.67,-1346.87 402.802,-1358.07"/>
<text text-anchor="middle" x="336" y="-1361" style="font-family:Nimbus Roman No9 L;font-weight:regular;font-size:11.34pt;">GdaSqlStatement</text>
</g>
<!-- node0x8dfbfd0 -->
<g id="node3" class="node"><title>node0x8dfbfd0</title>
<text text-anchor="middle" x="336" y="-1272.33" style="font-family:Nimbus Roman No9 L;font-weight:regular;font-size:11.34pt;">GdaSqlStatementCompound</text>
<polygon style="fill:none;stroke:black;" points="251,-1265 251,-1289 421,-1289 421,-1265 251,-1265"/>
<text text-anchor="start" x="283" y="-1248.33" style="font-family:Nimbus Roman No9 L;font-weight:regular;font-size:11.34pt;">compound_type=2</text>
<polygon style="fill:none;stroke:black;" points="251,-1241 251,-1265 421,-1265 421,-1241 251,-1241"/>
</g>
<!-- GdaSqlStatement&#45;&gt;node0x8dfbfd0 -->
<g id="edge2" class="edge"><title>GdaSqlStatement&#45;&gt;node0x8dfbfd0</title>
<path style="fill:none;stroke:black;" d="M336,-1347C336,-1335 336,-1318 336,-1303"/>
<polygon style="fill:black;stroke:black;" points="339.5,-1303 336,-1293 332.5,-1303 339.5,-1303"/>
<a xlink:title="contents">
</a>
<a xlink:title="contents">
</a>
<text text-anchor="middle" x="359" y="-1315" style="font-family:Nimbus Roman No9 L;font-weight:regular;font-size:11.34pt;">contents</text>
</g>
<!-- list0x8df93a8 -->
<g id="node40" class="node"><title>list0x8df93a8</title>
<polygon style="fill:none;stroke:gray;" points="309,-1154.25 336,-1139.15 363,-1154.25 362.975,-1178.68 309.025,-1178.68 309,-1154.25"/>
<text text-anchor="middle" x="336" y="-1156" style="font-family:Nimbus Roman No9 L;font-weight:regular;font-size:11.34pt;fill:gray;">N0</text>
</g>
<!-- node0x8dfbfd0&#45;&gt;list0x8df93a8 -->
<g id="edge40" class="edge"><title>node0x8dfbfd0&#45;&gt;list0x8df93a8</title>
<path style="fill:none;stroke:black;" d="M336,-1237C336,-1222 336,-1204 336,-1189"/>
<polygon style="fill:black;stroke:black;" points="339.5,-1189 336,-1179 332.5,-1189 339.5,-1189"/>
<a xlink:title="stmt_list">
</a>
<a xlink:title="stmt_list">
</a>
<text text-anchor="middle" x="360" y="-1205" style="font-family:Nimbus Roman No9 L;font-weight:regular;font-size:11.34pt;">stmt_list</text>
</g>
<!-- node0x8dfc170 -->
<g id="node4" class="node"><title>node0x8dfc170</title>
<text text-anchor="middle" x="79" y="-218.333" style="font-family:Nimbus Roman No9 L;font-weight:regular;font-size:11.34pt;">GdaSqlExpr</text>
<polygon style="fill:none;stroke:black;" points="34,-210 34,-235 124,-235 124,-210 34,-210"/>
<text text-anchor="start" x="39" y="-193.333" style="font-family:Nimbus Roman No9 L;font-weight:regular;font-size:11.34pt;">value=A</text>
<text text-anchor="start" x="39" y="-176.533" style="font-family:Nimbus Roman No9 L;font-weight:regular;font-size:11.34pt;">cast_as=(null)</text>
<polygon style="fill:none;stroke:black;" points="34,-167 34,-210 124,-210 124,-167 34,-167"/>
</g>
<!-- node0x8dfbda8 -->
<g id="node5" class="node"><title>node0x8dfbda8</title>
<text text-anchor="middle" x="79" y="-372.333" style="font-family:Nimbus Roman No9 L;font-weight:regular;font-size:11.34pt;">GdaSqlSelectField</text>
<polygon style="fill:none;stroke:black;" points="21,-365 21,-389 137,-389 137,-365 21,-365"/>
<text text-anchor="start" x="27" y="-348.333" style="font-family:Nimbus Roman No9 L;font-weight:regular;font-size:11.34pt;">field_name=A</text>
<text text-anchor="start" x="27" y="-331.533" style="font-family:Nimbus Roman No9 L;font-weight:regular;font-size:11.34pt;">table_name=(null)</text>
<text text-anchor="start" x="27" y="-314.733" style="font-family:Nimbus Roman No9 L;font-weight:regular;font-size:11.34pt;">as=(null)</text>
<polygon style="fill:none;stroke:black;" points="21,-305 21,-365 137,-365 137,-305 21,-305"/>
</g>
<!-- node0x8dfbda8&#45;&gt;node0x8dfc170 -->
<g id="edge4" class="edge"><title>node0x8dfbda8&#45;&gt;node0x8dfc170</title>
<path style="fill:none;stroke:black;" d="M79,-301C79,-284 79,-266 79,-249"/>
<polygon style="fill:black;stroke:black;" points="82.5001,-249 79,-239 75.5001,-249 82.5001,-249"/>
<a xlink:title="expr">
</a>
<a xlink:title="expr">
</a>
<text text-anchor="middle" x="92" y="-269" style="font-family:Nimbus Roman No9 L;font-weight:regular;font-size:11.34pt;">expr</text>
</g>
<!-- node0x8dfbff8 -->
<g id="node7" class="node"><title>node0x8dfbff8</title>
<text text-anchor="middle" x="79" y="-630.333" style="font-family:Nimbus Roman No9 L;font-weight:regular;font-size:11.34pt;">GdaSqlStatementSelect</text>
<polygon style="fill:none;stroke:black;" points="8,-623 8,-647 150,-647 150,-623 8,-623"/>
<text text-anchor="start" x="32" y="-606.333" style="font-family:Nimbus Roman No9 L;font-weight:regular;font-size:11.34pt;">distinct=FALSE</text>
<polygon style="fill:none;stroke:black;" points="8,-599 8,-623 150,-623 150,-599 8,-599"/>
</g>
<!-- list0x8df9330 -->
<g id="node8" class="node"><title>list0x8df9330</title>
<polygon style="fill:none;stroke:gray;" points="52,-478.248 79,-463.149 106,-478.248 105.975,-502.678 52.0252,-502.678 52,-478.248"/>
<text text-anchor="middle" x="79" y="-480" style="font-family:Nimbus Roman No9 L;font-weight:regular;font-size:11.34pt;fill:gray;">N0</text>
</g>
<!-- node0x8dfbff8&#45;&gt;list0x8df9330 -->
<g id="edge8" class="edge"><title>node0x8dfbff8&#45;&gt;list0x8df9330</title>
<path style="fill:none;stroke:black;" d="M79,-595C79,-571 79,-537 79,-513"/>
<polygon style="fill:black;stroke:black;" points="82.5001,-513 79,-503 75.5001,-513 82.5001,-513"/>
<a xlink:title="expr_list">
</a>
<a xlink:title="expr_list">
</a>
<text text-anchor="middle" x="104" y="-545" style="font-family:Nimbus Roman No9 L;font-weight:regular;font-size:11.34pt;">expr_list</text>
</g>
<!-- list0x8df9330&#45;&gt;node0x8dfbda8 -->
<g id="edge6" class="edge"><title>list0x8df9330&#45;&gt;node0x8dfbda8</title>
<path style="fill:none;stroke:gray;" d="M79,-463C79,-447 79,-424 79,-403"/>
<polygon style="fill:gray;stroke:gray;" points="82.5001,-403 79,-393 75.5001,-403 82.5001,-403"/>
<a xlink:title="data">
</a>
<a xlink:title="data">
</a>
<text text-anchor="middle" x="91" y="-415" style="font-family:Nimbus Roman No9 L;font-weight:regular;font-size:11.34pt;fill:gray;">data</text>
</g>
<!-- node0x8dfc1c0 -->
<g id="node11" class="node"><title>node0x8dfc1c0</title>
<text text-anchor="middle" x="243" y="-80.3333" style="font-family:Nimbus Roman No9 L;font-weight:regular;font-size:11.34pt;">GdaSqlExpr</text>
<polygon style="fill:none;stroke:black;" points="198,-72 198,-97 288,-97 288,-72 198,-72"/>
<text text-anchor="start" x="203" y="-55.3333" style="font-family:Nimbus Roman No9 L;font-weight:regular;font-size:11.34pt;">value=B</text>
<text text-anchor="start" x="203" y="-38.5333" style="font-family:Nimbus Roman No9 L;font-weight:regular;font-size:11.34pt;">cast_as=(null)</text>
<polygon style="fill:none;stroke:black;" points="198,-29 198,-72 288,-72 288,-29 198,-29"/>
</g>
<!-- node0x8dfbde8 -->
<g id="node12" class="node"><title>node0x8dfbde8</title>
<text text-anchor="middle" x="243" y="-226.333" style="font-family:Nimbus Roman No9 L;font-weight:regular;font-size:11.34pt;">GdaSqlSelectField</text>
<polygon style="fill:none;stroke:black;" points="185,-219 185,-243 301,-243 301,-219 185,-219"/>
<text text-anchor="start" x="191" y="-202.333" style="font-family:Nimbus Roman No9 L;font-weight:regular;font-size:11.34pt;">field_name=B</text>
<text text-anchor="start" x="191" y="-185.533" style="font-family:Nimbus Roman No9 L;font-weight:regular;font-size:11.34pt;">table_name=(null)</text>
<text text-anchor="start" x="191" y="-168.733" style="font-family:Nimbus Roman No9 L;font-weight:regular;font-size:11.34pt;">as=(null)</text>
<polygon style="fill:none;stroke:black;" points="185,-159 185,-219 301,-219 301,-159 185,-159"/>
</g>
<!-- node0x8dfbde8&#45;&gt;node0x8dfc1c0 -->
<g id="edge10" class="edge"><title>node0x8dfbde8&#45;&gt;node0x8dfc1c0</title>
<path style="fill:none;stroke:black;" d="M243,-155C243,-141 243,-126 243,-111"/>
<polygon style="fill:black;stroke:black;" points="246.5,-111 243,-101 239.5,-111 246.5,-111"/>
<a xlink:title="expr">
</a>
<a xlink:title="expr">
</a>
<text text-anchor="middle" x="256" y="-123" style="font-family:Nimbus Roman No9 L;font-weight:regular;font-size:11.34pt;">expr</text>
</g>
<!-- node0x8dfc080 -->
<g id="node14" class="node"><title>node0x8dfc080</title>
<text text-anchor="middle" x="243" y="-492.333" style="font-family:Nimbus Roman No9 L;font-weight:regular;font-size:11.34pt;">GdaSqlStatementSelect</text>
<polygon style="fill:none;stroke:black;" points="172,-485 172,-509 314,-509 314,-485 172,-485"/>
<text text-anchor="start" x="196" y="-468.333" style="font-family:Nimbus Roman No9 L;font-weight:regular;font-size:11.34pt;">distinct=FALSE</text>
<polygon style="fill:none;stroke:black;" points="172,-461 172,-485 314,-485 314,-461 172,-461"/>
</g>
<!-- list0x8df9320 -->
<g id="node15" class="node"><title>list0x8df9320</title>
<polygon style="fill:none;stroke:gray;" points="216,-340.248 243,-325.149 270,-340.248 269.975,-364.678 216.025,-364.678 216,-340.248"/>
<text text-anchor="middle" x="243" y="-342" style="font-family:Nimbus Roman No9 L;font-weight:regular;font-size:11.34pt;fill:gray;">N0</text>
</g>
<!-- node0x8dfc080&#45;&gt;list0x8df9320 -->
<g id="edge14" class="edge"><title>node0x8dfc080&#45;&gt;list0x8df9320</title>
<path style="fill:none;stroke:black;" d="M243,-457C243,-433 243,-399 243,-375"/>
<polygon style="fill:black;stroke:black;" points="246.5,-375 243,-365 239.5,-375 246.5,-375"/>
<a xlink:title="expr_list">
</a>
<a xlink:title="expr_list">
</a>
<text text-anchor="middle" x="268" y="-415" style="font-family:Nimbus Roman No9 L;font-weight:regular;font-size:11.34pt;">expr_list</text>
</g>
<!-- list0x8df9320&#45;&gt;node0x8dfbde8 -->
<g id="edge12" class="edge"><title>list0x8df9320&#45;&gt;node0x8dfbde8</title>
<path style="fill:none;stroke:gray;" d="M243,-325C243,-307 243,-281 243,-257"/>
<polygon style="fill:gray;stroke:gray;" points="246.5,-257 243,-247 239.5,-257 246.5,-257"/>
<a xlink:title="data">
</a>
<a xlink:title="data">
</a>
<text text-anchor="middle" x="255" y="-269" style="font-family:Nimbus Roman No9 L;font-weight:regular;font-size:11.34pt;fill:gray;">data</text>
</g>
<!-- node0x8dfd2f8 -->
<g id="node18" class="node"><title>node0x8dfd2f8</title>
<text text-anchor="middle" x="229" y="-966.333" style="font-family:Nimbus Roman No9 L;font-weight:regular;font-size:11.34pt;">GdaSqlStatementCompound</text>
<polygon style="fill:none;stroke:black;" points="144,-959 144,-983 314,-983 314,-959 144,-959"/>
<text text-anchor="start" x="176" y="-942.333" style="font-family:Nimbus Roman No9 L;font-weight:regular;font-size:11.34pt;">compound_type=0</text>
<polygon style="fill:none;stroke:black;" points="144,-935 144,-959 314,-959 314,-935 144,-935"/>
</g>
<!-- list0x8df9328 -->
<g id="node23" class="node"><title>list0x8df9328</title>
<polygon style="fill:none;stroke:gray;" points="202,-842.248 229,-827.149 256,-842.248 255.975,-866.678 202.025,-866.678 202,-842.248"/>
<text text-anchor="middle" x="229" y="-844" style="font-family:Nimbus Roman No9 L;font-weight:regular;font-size:11.34pt;fill:gray;">N0</text>
</g>
<!-- node0x8dfd2f8&#45;&gt;list0x8df9328 -->
<g id="edge22" class="edge"><title>node0x8dfd2f8&#45;&gt;list0x8df9328</title>
<path style="fill:none;stroke:black;" d="M229,-931C229,-915 229,-893 229,-877"/>
<polygon style="fill:black;stroke:black;" points="232.5,-877 229,-867 225.5,-877 232.5,-877"/>
<a xlink:title="stmt_list">
</a>
<a xlink:title="stmt_list">
</a>
<text text-anchor="middle" x="253" y="-899" style="font-family:Nimbus Roman No9 L;font-weight:regular;font-size:11.34pt;">stmt_list</text>
</g>
<!-- node0x8dfc4b0 -->
<g id="node19" class="node"><title>node0x8dfc4b0</title>
<polygon style="fill:none;stroke:black;" points="177.802,-737.074 177.802,-752.926 138.67,-764.134 83.3297,-764.134 44.1979,-752.926 44.1979,-737.074 83.3297,-725.866 138.67,-725.866 177.802,-737.074"/>
<text text-anchor="middle" x="111" y="-740" style="font-family:Nimbus Roman No9 L;font-weight:regular;font-size:11.34pt;">GdaSqlStatement</text>
</g>
<!-- node0x8dfc4b0&#45;&gt;node0x8dfbff8 -->
<g id="edge16" class="edge"><title>node0x8dfc4b0&#45;&gt;node0x8dfbff8</title>
<path style="fill:none;stroke:black;" d="M106,-726C102,-709 94,-683 89,-661"/>
<polygon style="fill:black;stroke:black;" points="92.2259,-659.573 86,-651 85.5212,-661.584 92.2259,-659.573"/>
<a xlink:title="contents">
</a>
<a xlink:title="contents">
</a>
<text text-anchor="middle" x="125" y="-691" style="font-family:Nimbus Roman No9 L;font-weight:regular;font-size:11.34pt;">contents</text>
</g>
<!-- node0x8dfc0d0 -->
<g id="node21" class="node"><title>node0x8dfc0d0</title>
<polygon style="fill:none;stroke:black;" points="309.802,-615.074 309.802,-630.926 270.67,-642.134 215.33,-642.134 176.198,-630.926 176.198,-615.074 215.33,-603.866 270.67,-603.866 309.802,-615.074"/>
<text text-anchor="middle" x="243" y="-618" style="font-family:Nimbus Roman No9 L;font-weight:regular;font-size:11.34pt;">GdaSqlStatement</text>
</g>
<!-- node0x8dfc0d0&#45;&gt;node0x8dfc080 -->
<g id="edge18" class="edge"><title>node0x8dfc0d0&#45;&gt;node0x8dfc080</title>
<path style="fill:none;stroke:black;" d="M243,-604C243,-583 243,-549 243,-523"/>
<polygon style="fill:black;stroke:black;" points="246.5,-523 243,-513 239.5,-523 246.5,-523"/>
<a xlink:title="contents">
</a>
<a xlink:title="contents">
</a>
<text text-anchor="middle" x="266" y="-545" style="font-family:Nimbus Roman No9 L;font-weight:regular;font-size:11.34pt;">contents</text>
</g>
<!-- list0x8df9328&#45;&gt;node0x8dfc4b0 -->
<g id="edge20" class="edge"><title>list0x8df9328&#45;&gt;node0x8dfc4b0</title>
<path style="fill:none;stroke:gray;" d="M214,-835C195,-819 164,-791 141,-771"/>
<polygon style="fill:gray;stroke:gray;" points="142.831,-767.951 133,-764 138.221,-773.219 142.831,-767.951"/>
<a xlink:title="data">
</a>
<a xlink:title="data">
</a>
<text text-anchor="middle" x="190" y="-789" style="font-family:Nimbus Roman No9 L;font-weight:regular;font-size:11.34pt;fill:gray;">data</text>
</g>
<!-- list0x8df9318 -->
<g id="node26" class="node"><title>list0x8df9318</title>
<polygon style="fill:none;stroke:gray;" points="206,-738.248 233,-723.149 260,-738.248 259.975,-762.678 206.025,-762.678 206,-738.248"/>
<text text-anchor="middle" x="233" y="-740" style="font-family:Nimbus Roman No9 L;font-weight:regular;font-size:11.34pt;fill:gray;">N1</text>
</g>
<!-- list0x8df9328&#45;&gt;list0x8df9318 -->
<g id="edge26" class="edge"><title>list0x8df9328&#45;&gt;list0x8df9318</title>
<path style="fill:none;stroke:gray;" d="M230,-827C231,-811 232,-790 232,-773"/>
<polygon style="fill:gray;stroke:gray;" points="235.5,-773 232,-763 228.5,-773 235.5,-773"/>
<a xlink:title="next">
</a>
<a xlink:title="next">
</a>
<text text-anchor="middle" x="245" y="-789" style="font-family:Nimbus Roman No9 L;font-weight:regular;font-size:11.34pt;fill:gray;">next</text>
</g>
<!-- list0x8df9318&#45;&gt;node0x8dfc0d0 -->
<g id="edge24" class="edge"><title>list0x8df9318&#45;&gt;node0x8dfc0d0</title>
<path style="fill:none;stroke:gray;" d="M235,-724C237,-704 239,-674 241,-652"/>
<polygon style="fill:gray;stroke:gray;" points="244.488,-652.299 242,-642 237.522,-651.602 244.488,-652.299"/>
<a xlink:title="data">
</a>
<a xlink:title="data">
</a>
<text text-anchor="middle" x="251" y="-691" style="font-family:Nimbus Roman No9 L;font-weight:regular;font-size:11.34pt;fill:gray;">data</text>
</g>
<!-- node0x8dfd4c8 -->
<g id="node29" class="node"><title>node0x8dfd4c8</title>
<text text-anchor="middle" x="407" y="-502.333" style="font-family:Nimbus Roman No9 L;font-weight:regular;font-size:11.34pt;">GdaSqlExpr</text>
<polygon style="fill:none;stroke:black;" points="362,-494 362,-519 452,-519 452,-494 362,-494"/>
<text text-anchor="start" x="367" y="-477.333" style="font-family:Nimbus Roman No9 L;font-weight:regular;font-size:11.34pt;">value=C</text>
<text text-anchor="start" x="367" y="-460.533" style="font-family:Nimbus Roman No9 L;font-weight:regular;font-size:11.34pt;">cast_as=(null)</text>
<polygon style="fill:none;stroke:black;" points="362,-451 362,-494 452,-494 452,-451 362,-451"/>
</g>
<!-- node0x8dfd6d0 -->
<g id="node30" class="node"><title>node0x8dfd6d0</title>
<text text-anchor="middle" x="407" y="-648.333" style="font-family:Nimbus Roman No9 L;font-weight:regular;font-size:11.34pt;">GdaSqlSelectField</text>
<polygon style="fill:none;stroke:black;" points="349,-641 349,-665 465,-665 465,-641 349,-641"/>
<text text-anchor="start" x="355" y="-624.333" style="font-family:Nimbus Roman No9 L;font-weight:regular;font-size:11.34pt;">field_name=C</text>
<text text-anchor="start" x="355" y="-607.533" style="font-family:Nimbus Roman No9 L;font-weight:regular;font-size:11.34pt;">table_name=(null)</text>
<text text-anchor="start" x="355" y="-590.733" style="font-family:Nimbus Roman No9 L;font-weight:regular;font-size:11.34pt;">as=(null)</text>
<polygon style="fill:none;stroke:black;" points="349,-581 349,-641 465,-641 465,-581 349,-581"/>
</g>
<!-- node0x8dfd6d0&#45;&gt;node0x8dfd4c8 -->
<g id="edge28" class="edge"><title>node0x8dfd6d0&#45;&gt;node0x8dfd4c8</title>
<path style="fill:none;stroke:black;" d="M407,-577C407,-563 407,-548 407,-533"/>
<polygon style="fill:black;stroke:black;" points="410.5,-533 407,-523 403.5,-533 410.5,-533"/>
<a xlink:title="expr">
</a>
<a xlink:title="expr">
</a>
<text text-anchor="middle" x="419" y="-545" style="font-family:Nimbus Roman No9 L;font-weight:regular;font-size:11.34pt;">expr</text>
</g>
<!-- node0x8dfd3c0 -->
<g id="node32" class="node"><title>node0x8dfd3c0</title>
<text text-anchor="middle" x="407" y="-856.333" style="font-family:Nimbus Roman No9 L;font-weight:regular;font-size:11.34pt;">GdaSqlStatementSelect</text>
<polygon style="fill:none;stroke:black;" points="336,-849 336,-873 478,-873 478,-849 336,-849"/>
<text text-anchor="start" x="360" y="-832.333" style="font-family:Nimbus Roman No9 L;font-weight:regular;font-size:11.34pt;">distinct=FALSE</text>
<polygon style="fill:none;stroke:black;" points="336,-825 336,-849 478,-849 478,-825 336,-825"/>
</g>
<!-- list0x8df93a0 -->
<g id="node33" class="node"><title>list0x8df93a0</title>
<polygon style="fill:none;stroke:gray;" points="380,-738.248 407,-723.149 434,-738.248 433.975,-762.678 380.025,-762.678 380,-738.248"/>
<text text-anchor="middle" x="407" y="-740" style="font-family:Nimbus Roman No9 L;font-weight:regular;font-size:11.34pt;fill:gray;">N0</text>
</g>
<!-- node0x8dfd3c0&#45;&gt;list0x8df93a0 -->
<g id="edge32" class="edge"><title>node0x8dfd3c0&#45;&gt;list0x8df93a0</title>
<path style="fill:none;stroke:black;" d="M407,-821C407,-806 407,-788 407,-773"/>
<polygon style="fill:black;stroke:black;" points="410.5,-773 407,-763 403.5,-773 410.5,-773"/>
<a xlink:title="expr_list">
</a>
<a xlink:title="expr_list">
</a>
<text text-anchor="middle" x="431" y="-789" style="font-family:Nimbus Roman No9 L;font-weight:regular;font-size:11.34pt;">expr_list</text>
</g>
<!-- list0x8df93a0&#45;&gt;node0x8dfd6d0 -->
<g id="edge30" class="edge"><title>list0x8df93a0&#45;&gt;node0x8dfd6d0</title>
<path style="fill:none;stroke:gray;" d="M407,-723C407,-711 407,-695 407,-679"/>
<polygon style="fill:gray;stroke:gray;" points="410.5,-679 407,-669 403.5,-679 410.5,-679"/>
<a xlink:title="data">
</a>
<a xlink:title="data">
</a>
<text text-anchor="middle" x="418" y="-691" style="font-family:Nimbus Roman No9 L;font-weight:regular;font-size:11.34pt;fill:gray;">data</text>
</g>
<!-- node0x8dfbf70 -->
<g id="node36" class="node"><title>node0x8dfbf70</title>
<polygon style="fill:none;stroke:black;" points="336.802,-1055.07 336.802,-1070.93 297.67,-1082.13 242.33,-1082.13 203.198,-1070.93 203.198,-1055.07 242.33,-1043.87 297.67,-1043.87 336.802,-1055.07"/>
<text text-anchor="middle" x="270" y="-1058" style="font-family:Nimbus Roman No9 L;font-weight:regular;font-size:11.34pt;">GdaSqlStatement</text>
</g>
<!-- node0x8dfbf70&#45;&gt;node0x8dfd2f8 -->
<g id="edge34" class="edge"><title>node0x8dfbf70&#45;&gt;node0x8dfd2f8</title>
<path style="fill:none;stroke:black;" d="M262,-1044C257,-1031 250,-1013 244,-997"/>
<polygon style="fill:black;stroke:black;" points="246.964,-994.985 240,-987 240.464,-997.585 246.964,-994.985"/>
<a xlink:title="contents">
</a>
<a xlink:title="contents">
</a>
<text text-anchor="middle" x="278" y="-1009" style="font-family:Nimbus Roman No9 L;font-weight:regular;font-size:11.34pt;">contents</text>
</g>
<!-- node0x8dfb6e0 -->
<g id="node38" class="node"><title>node0x8dfb6e0</title>
<polygon style="fill:none;stroke:black;" points="473.802,-951.074 473.802,-966.926 434.67,-978.134 379.33,-978.134 340.198,-966.926 340.198,-951.074 379.33,-939.866 434.67,-939.866 473.802,-951.074"/>
<text text-anchor="middle" x="407" y="-954" style="font-family:Nimbus Roman No9 L;font-weight:regular;font-size:11.34pt;">GdaSqlStatement</text>
</g>
<!-- node0x8dfb6e0&#45;&gt;node0x8dfd3c0 -->
<g id="edge36" class="edge"><title>node0x8dfb6e0&#45;&gt;node0x8dfd3c0</title>
<path style="fill:none;stroke:black;" d="M407,-940C407,-926 407,-905 407,-887"/>
<polygon style="fill:black;stroke:black;" points="410.5,-887 407,-877 403.5,-887 410.5,-887"/>
<a xlink:title="contents">
</a>
<a xlink:title="contents">
</a>
<text text-anchor="middle" x="430" y="-899" style="font-family:Nimbus Roman No9 L;font-weight:regular;font-size:11.34pt;">contents</text>
</g>
<!-- list0x8df93a8&#45;&gt;node0x8dfbf70 -->
<g id="edge38" class="edge"><title>list0x8df93a8&#45;&gt;node0x8dfbf70</title>
<path style="fill:none;stroke:gray;" d="M325,-1145C315,-1130 300,-1108 288,-1090"/>
<polygon style="fill:gray;stroke:gray;" points="291.268,-1088.62 283,-1082 285.332,-1092.34 291.268,-1088.62"/>
<a xlink:title="data">
</a>
<a xlink:title="data">
</a>
<text text-anchor="middle" x="322" y="-1107" style="font-family:Nimbus Roman No9 L;font-weight:regular;font-size:11.34pt;fill:gray;">data</text>
</g>
<!-- list0x8df9398 -->
<g id="node43" class="node"><title>list0x8df9398</title>
<polygon style="fill:none;stroke:gray;" points="359,-1056.25 386,-1041.15 413,-1056.25 412.975,-1080.68 359.025,-1080.68 359,-1056.25"/>
<text text-anchor="middle" x="386" y="-1058" style="font-family:Nimbus Roman No9 L;font-weight:regular;font-size:11.34pt;fill:gray;">N1</text>
</g>
<!-- list0x8df93a8&#45;&gt;list0x8df9398 -->
<g id="edge44" class="edge"><title>list0x8df93a8&#45;&gt;list0x8df9398</title>
<path style="fill:none;stroke:gray;" d="M345,-1144C353,-1129 364,-1107 372,-1090"/>
<polygon style="fill:gray;stroke:gray;" points="375.203,-1091.44 377,-1081 369.084,-1088.04 375.203,-1091.44"/>
<a xlink:title="next">
</a>
<a xlink:title="next">
</a>
<text text-anchor="middle" x="377" y="-1107" style="font-family:Nimbus Roman No9 L;font-weight:regular;font-size:11.34pt;fill:gray;">next</text>
</g>
<!-- list0x8df9398&#45;&gt;node0x8dfb6e0 -->
<g id="edge42" class="edge"><title>list0x8df9398&#45;&gt;node0x8dfb6e0</title>
<path style="fill:none;stroke:gray;" d="M390,-1043C393,-1027 397,-1005 401,-988"/>
<polygon style="fill:gray;stroke:gray;" points="404.471,-988.492 403,-978 397.607,-987.119 404.471,-988.492"/>
<a xlink:title="data">
</a>
<a xlink:title="data">
</a>
<text text-anchor="middle" x="409" y="-1009" style="font-family:Nimbus Roman No9 L;font-weight:regular;font-size:11.34pt;fill:gray;">data</text>
</g>
</g>
</svg>
