<?xml version="1.0" encoding="UTF-8" standalone="no"?>
<!DOCTYPE svg PUBLIC "-//W3C//DTD SVG 1.0//EN"
 "http://www.w3.org/TR/2001/REC-SVG-20010904/DTD/svg10.dtd" [
 <!ATTLIST svg xmlns:xlink CDATA #FIXED "http://www.w3.org/1999/xlink">
]>
<!-- Generated by Graphviz version 2.12 (Mon Apr 23 09:57:53 UTC 2007)
     For user: (vmalerba) MALERBA Vivien DSNA&#45;DTI SIM ATM M204 p5713 -->
<!-- Title: G Pages: 1 -->
<svg width="17.14in" height="7.60in"
 xmlns="http://www.w3.org/2000/svg" xmlns:xlink="http://www.w3.org/1999/xlink">
<g id="graph0" class="graph" transform="scale(1.33333 1.33333) rotate(0) translate(4 544)">
<title>G</title>
<polygon style="fill:white;stroke:white;" points="-4,4 -4,-544 1230,-544 1230,4 -4,4"/>
<!-- _attributes -->
<g id="node1" class="node"><title>_attributes</title>
<polygon style="fill:none;stroke:black;" points="210,-36 136,-36 136,-1.42109e-14 210,-0 210,-36"/>
<text text-anchor="middle" x="173" y="-13" style="font-family:Nimbus Roman No9 L;font-weight:regular;font-size:11.34pt;">_attributes</text>
</g>
<!-- _information_schema_catalog_name -->
<g id="node2" class="node"><title>_information_schema_catalog_name</title>
<polygon style="fill:none;stroke:black;" points="685,-540 463,-540 463,-504 685,-504 685,-540"/>
<text text-anchor="middle" x="574" y="-517" style="font-family:Nimbus Roman No9 L;font-weight:regular;font-size:11.34pt;">_information_schema_catalog_name</text>
</g>
<!-- _builtin_data_types -->
<g id="node3" class="node"><title>_builtin_data_types</title>
<polygon style="fill:none;stroke:black;" points="918,-324 792,-324 792,-288 918,-288 918,-324"/>
<text text-anchor="middle" x="855" y="-301" style="font-family:Nimbus Roman No9 L;font-weight:regular;font-size:11.34pt;">_builtin_data_types</text>
</g>
<!-- _udt -->
<g id="node4" class="node"><title>_udt</title>
<polygon style="fill:none;stroke:black;" points="990,-324 936,-324 936,-288 990,-288 990,-324"/>
<text text-anchor="middle" x="963" y="-301" style="font-family:Nimbus Roman No9 L;font-weight:regular;font-size:11.34pt;">_udt</text>
</g>
<!-- _element_types -->
<g id="node5" class="node"><title>_element_types</title>
<polygon style="fill:none;stroke:black;" points="508,-36 406,-36 406,-1.42109e-14 508,-0 508,-36"/>
<text text-anchor="middle" x="457" y="-13" style="font-family:Nimbus Roman No9 L;font-weight:regular;font-size:11.34pt;">_element_types</text>
</g>
<!-- _schemata -->
<g id="node6" class="node"><title>_schemata</title>
<polygon style="fill:none;stroke:black;" points="611,-468 537,-468 537,-432 611,-432 611,-468"/>
<text text-anchor="middle" x="574" y="-445" style="font-family:Nimbus Roman No9 L;font-weight:regular;font-size:11.34pt;">_schemata</text>
</g>
<!-- _schemata&#45;&gt;_information_schema_catalog_name -->
<g id="edge2" class="edge"><title>_schemata&#45;&gt;_information_schema_catalog_name</title>
<path style="fill:none;stroke:black;" d="M574,-468C574,-476 574,-485 574,-494"/>
<polygon style="fill:black;stroke:black;" points="570.5,-494 574,-504 577.5,-494 570.5,-494"/>
</g>
<!-- _udt_columns -->
<g id="node8" class="node"><title>_udt_columns</title>
<polygon style="fill:none;stroke:black;" points="1104,-252 1010,-252 1010,-216 1104,-216 1104,-252"/>
<text text-anchor="middle" x="1057" y="-229" style="font-family:Nimbus Roman No9 L;font-weight:regular;font-size:11.34pt;">_udt_columns</text>
</g>
<!-- _udt_columns&#45;&gt;_udt -->
<g id="edge4" class="edge"><title>_udt_columns&#45;&gt;_udt</title>
<path style="fill:none;stroke:black;" d="M1033,-252C1022,-261 1007,-272 994,-282"/>
<polygon style="fill:black;stroke:black;" points="991.9,-279.2 986,-288 996.1,-284.8 991.9,-279.2"/>
</g>
<!-- _enums -->
<g id="node10" class="node"><title>_enums</title>
<polygon style="fill:none;stroke:black;" points="992,-252 934,-252 934,-216 992,-216 992,-252"/>
<text text-anchor="middle" x="963" y="-229" style="font-family:Nimbus Roman No9 L;font-weight:regular;font-size:11.34pt;">_enums</text>
</g>
<!-- _enums&#45;&gt;_udt -->
<g id="edge6" class="edge"><title>_enums&#45;&gt;_udt</title>
<path style="fill:none;stroke:black;" d="M963,-252C963,-260 963,-269 963,-278"/>
<polygon style="fill:black;stroke:black;" points="959.5,-278 963,-288 966.5,-278 959.5,-278"/>
</g>
<!-- _domains -->
<g id="node12" class="node"><title>_domains</title>
<polygon style="fill:none;stroke:black;" points="760,-324 690,-324 690,-288 760,-288 760,-324"/>
<text text-anchor="middle" x="725" y="-301" style="font-family:Nimbus Roman No9 L;font-weight:regular;font-size:11.34pt;">_domains</text>
</g>
<!-- _domains&#45;&gt;_schemata -->
<g id="edge8" class="edge"><title>_domains&#45;&gt;_schemata</title>
<path style="fill:none;stroke:black;" d="M717,-324C708,-344 691,-375 668,-396 654,-409 637,-421 620,-429"/>
<polygon style="fill:black;stroke:black;" points="618.042,-426.084 611,-434 621.441,-432.203 618.042,-426.084"/>
</g>
<!-- _tables -->
<g id="node14" class="node"><title>_tables</title>
<polygon style="fill:none;stroke:black;" points="567,-324 513,-324 513,-288 567,-288 567,-324"/>
<text text-anchor="middle" x="540" y="-301" style="font-family:Nimbus Roman No9 L;font-weight:regular;font-size:11.34pt;">_tables</text>
</g>
<!-- _tables&#45;&gt;_schemata -->
<g id="edge10" class="edge"><title>_tables&#45;&gt;_schemata</title>
<path style="fill:none;stroke:black;" d="M544,-324C549,-349 560,-393 568,-422"/>
<polygon style="fill:black;stroke:black;" points="564.607,-422.881 570,-432 571.471,-421.508 564.607,-422.881"/>
</g>
<!-- _collations -->
<g id="node16" class="node"><title>_collations</title>
<polygon style="fill:none;stroke:black;" points="523,-396 447,-396 447,-360 523,-360 523,-396"/>
<text text-anchor="middle" x="485" y="-373" style="font-family:Nimbus Roman No9 L;font-weight:regular;font-size:11.34pt;">_collations</text>
</g>
<!-- _collations&#45;&gt;_schemata -->
<g id="edge12" class="edge"><title>_collations&#45;&gt;_schemata</title>
<path style="fill:none;stroke:black;" d="M507,-396C518,-405 532,-416 544,-426"/>
<polygon style="fill:black;stroke:black;" points="541.9,-428.8 552,-432 546.1,-423.2 541.9,-428.8"/>
</g>
<!-- _routines -->
<g id="node18" class="node"><title>_routines</title>
<polygon style="fill:none;stroke:black;" points="1100,-396 1032,-396 1032,-360 1100,-360 1100,-396"/>
<text text-anchor="middle" x="1066" y="-373" style="font-family:Nimbus Roman No9 L;font-weight:regular;font-size:11.34pt;">_routines</text>
</g>
<!-- _routines&#45;&gt;_schemata -->
<g id="edge14" class="edge"><title>_routines&#45;&gt;_schemata</title>
<path style="fill:none;stroke:black;" d="M1032,-383C946,-396 720,-429 621,-443"/>
<polygon style="fill:black;stroke:black;" points="620.119,-439.607 611,-445 621.492,-446.471 620.119,-439.607"/>
</g>
<!-- _views -->
<g id="node20" class="node"><title>_views</title>
<polygon style="fill:none;stroke:black;" points="544,-252 490,-252 490,-216 544,-216 544,-252"/>
<text text-anchor="middle" x="517" y="-229" style="font-family:Nimbus Roman No9 L;font-weight:regular;font-size:11.34pt;">_views</text>
</g>
<!-- _views&#45;&gt;_tables -->
<g id="edge16" class="edge"><title>_views&#45;&gt;_tables</title>
<path style="fill:none;stroke:black;" d="M523,-252C526,-260 529,-269 531,-278"/>
<polygon style="fill:black;stroke:black;" points="527.774,-279.427 534,-288 534.479,-277.416 527.774,-279.427"/>
</g>
<!-- _character_sets -->
<g id="node22" class="node"><title>_character_sets</title>
<polygon style="fill:none;stroke:black;" points="457,-324 357,-324 357,-288 457,-288 457,-324"/>
<text text-anchor="middle" x="407" y="-301" style="font-family:Nimbus Roman No9 L;font-weight:regular;font-size:11.34pt;">_character_sets</text>
</g>
<!-- _character_sets&#45;&gt;_schemata -->
<g id="edge18" class="edge"><title>_character_sets&#45;&gt;_schemata</title>
<path style="fill:none;stroke:black;" d="M409,-324C412,-344 419,-377 438,-396 461,-421 498,-435 527,-442"/>
<polygon style="fill:black;stroke:black;" points="526.508,-445.471 537,-444 527.881,-438.607 526.508,-445.471"/>
</g>
<!-- _character_sets&#45;&gt;_collations -->
<g id="edge20" class="edge"><title>_character_sets&#45;&gt;_collations</title>
<path style="fill:none;stroke:black;" d="M427,-324C437,-333 448,-343 458,-353"/>
<polygon style="fill:black;stroke:black;" points="456.169,-356.049 466,-360 460.779,-350.781 456.169,-356.049"/>
</g>
<!-- _triggers -->
<g id="node25" class="node"><title>_triggers</title>
<polygon style="fill:none;stroke:black;" points="628,-252 562,-252 562,-216 628,-216 628,-252"/>
<text text-anchor="middle" x="595" y="-229" style="font-family:Nimbus Roman No9 L;font-weight:regular;font-size:11.34pt;">_triggers</text>
</g>
<!-- _triggers&#45;&gt;_schemata -->
<g id="edge22" class="edge"><title>_triggers&#45;&gt;_schemata</title>
<path style="fill:none;stroke:black;" d="M593,-252C589,-290 581,-377 577,-422"/>
<polygon style="fill:black;stroke:black;" points="573.512,-421.701 576,-432 580.478,-422.398 573.512,-421.701"/>
</g>
<!-- _triggers&#45;&gt;_tables -->
<g id="edge24" class="edge"><title>_triggers&#45;&gt;_tables</title>
<path style="fill:none;stroke:black;" d="M581,-252C575,-260 567,-271 560,-280"/>
<polygon style="fill:black;stroke:black;" points="557.2,-277.9 554,-288 562.8,-282.1 557.2,-277.9"/>
</g>
<!-- _table_constraints -->
<g id="node28" class="node"><title>_table_constraints</title>
<polygon style="fill:none;stroke:black;" points="384,-252 268,-252 268,-216 384,-216 384,-252"/>
<text text-anchor="middle" x="326" y="-229" style="font-family:Nimbus Roman No9 L;font-weight:regular;font-size:11.34pt;">_table_constraints</text>
</g>
<!-- _table_constraints&#45;&gt;_schemata -->
<g id="edge28" class="edge"><title>_table_constraints&#45;&gt;_schemata</title>
<path style="fill:none;stroke:black;" d="M328,-252C330,-271 336,-301 348,-324 369,-363 379,-373 415,-396 449,-419 494,-432 527,-441"/>
<polygon style="fill:black;stroke:black;" points="526.508,-444.471 537,-443 527.881,-437.607 526.508,-444.471"/>
</g>
<!-- _table_constraints&#45;&gt;_tables -->
<g id="edge26" class="edge"><title>_table_constraints&#45;&gt;_tables</title>
<path style="fill:none;stroke:black;" d="M380,-252C418,-265 469,-282 503,-294"/>
<polygon style="fill:black;stroke:black;" points="502.416,-297.479 513,-297 504.427,-290.774 502.416,-297.479"/>
</g>
<!-- _domain_constraints -->
<g id="node31" class="node"><title>_domain_constraints</title>
<polygon style="fill:none;stroke:black;" points="778,-252 646,-252 646,-216 778,-216 778,-252"/>
<text text-anchor="middle" x="712" y="-229" style="font-family:Nimbus Roman No9 L;font-weight:regular;font-size:11.34pt;">_domain_constraints</text>
</g>
<!-- _domain_constraints&#45;&gt;_schemata -->
<g id="edge32" class="edge"><title>_domain_constraints&#45;&gt;_schemata</title>
<path style="fill:none;stroke:black;" d="M700,-252C676,-290 620,-379 591,-423"/>
<polygon style="fill:black;stroke:black;" points="587.797,-421.559 586,-432 593.916,-424.958 587.797,-421.559"/>
</g>
<!-- _domain_constraints&#45;&gt;_domains -->
<g id="edge30" class="edge"><title>_domain_constraints&#45;&gt;_domains</title>
<path style="fill:none;stroke:black;" d="M715,-252C716,-260 718,-269 720,-278"/>
<polygon style="fill:black;stroke:black;" points="716.607,-278.881 722,-288 723.471,-277.508 716.607,-278.881"/>
</g>
<!-- _parameters -->
<g id="node34" class="node"><title>_parameters</title>
<polygon style="fill:none;stroke:black;" points="1226,-324 1142,-324 1142,-288 1226,-288 1226,-324"/>
<text text-anchor="middle" x="1184" y="-301" style="font-family:Nimbus Roman No9 L;font-weight:regular;font-size:11.34pt;">_parameters</text>
</g>
<!-- _parameters&#45;&gt;_routines -->
<g id="edge34" class="edge"><title>_parameters&#45;&gt;_routines</title>
<path style="fill:none;stroke:black;" d="M1154,-324C1139,-333 1120,-345 1104,-355"/>
<polygon style="fill:black;stroke:black;" points="1102.04,-352.084 1095,-360 1105.44,-358.203 1102.04,-352.084"/>
</g>
<!-- _routine_columns -->
<g id="node36" class="node"><title>_routine_columns</title>
<polygon style="fill:none;stroke:black;" points="1124,-324 1008,-324 1008,-288 1124,-288 1124,-324"/>
<text text-anchor="middle" x="1066" y="-301" style="font-family:Nimbus Roman No9 L;font-weight:regular;font-size:11.34pt;">_routine_columns</text>
</g>
<!-- _routine_columns&#45;&gt;_routines -->
<g id="edge36" class="edge"><title>_routine_columns&#45;&gt;_routines</title>
<path style="fill:none;stroke:black;" d="M1066,-324C1066,-332 1066,-341 1066,-350"/>
<polygon style="fill:black;stroke:black;" points="1062.5,-350 1066,-360 1069.5,-350 1062.5,-350"/>
</g>
<!-- _all_types -->
<g id="node38" class="node"><title>_all_types</title>
<ellipse style="fill:none;stroke:black;" cx="875" cy="-234" rx="41.1755" ry="18"/>
<text text-anchor="middle" x="875" y="-229" style="font-family:Nimbus Roman No9 L;font-weight:regular;font-size:11.34pt;">_all_types</text>
</g>
<!-- _all_types&#45;&gt;_builtin_data_types -->
<g id="edge38" class="edge"><title>_all_types&#45;&gt;_builtin_data_types</title>
<path style="fill:none;stroke:black;" d="M870,-252C868,-260 865,-269 863,-278"/>
<polygon style="fill:black;stroke:black;" points="859.521,-277.416 860,-288 866.226,-279.427 859.521,-277.416"/>
</g>
<!-- _all_types&#45;&gt;_udt -->
<g id="edge40" class="edge"><title>_all_types&#45;&gt;_udt</title>
<path style="fill:none;stroke:black;" d="M895,-250C906,-259 920,-271 933,-281"/>
<polygon style="fill:black;stroke:black;" points="931.169,-284.049 941,-288 935.779,-278.781 931.169,-284.049"/>
</g>
<!-- _all_types&#45;&gt;_domains -->
<g id="edge42" class="edge"><title>_all_types&#45;&gt;_domains</title>
<path style="fill:none;stroke:black;" d="M847,-247C826,-258 795,-272 769,-285"/>
<polygon style="fill:black;stroke:black;" points="767.717,-281.74 760,-289 770.56,-288.137 767.717,-281.74"/>
</g>
<!-- _columns -->
<g id="node42" class="node"><title>_columns</title>
<polygon style="fill:none;stroke:black;" points="472,-252 402,-252 402,-216 472,-216 472,-252"/>
<text text-anchor="middle" x="437" y="-229" style="font-family:Nimbus Roman No9 L;font-weight:regular;font-size:11.34pt;">_columns</text>
</g>
<!-- _columns&#45;&gt;_tables -->
<g id="edge44" class="edge"><title>_columns&#45;&gt;_tables</title>
<path style="fill:none;stroke:black;" d="M463,-252C476,-261 492,-272 506,-282"/>
<polygon style="fill:black;stroke:black;" points="504.738,-285.365 515,-288 508.621,-279.541 504.738,-285.365"/>
</g>
<!-- _columns&#45;&gt;_collations -->
<g id="edge48" class="edge"><title>_columns&#45;&gt;_collations</title>
<path style="fill:none;stroke:black;" d="M448,-252C454,-262 462,-276 466,-288 474,-308 478,-332 481,-350"/>
<polygon style="fill:black;stroke:black;" points="477.607,-350.881 483,-360 484.471,-349.508 477.607,-350.881"/>
</g>
<!-- _columns&#45;&gt;_character_sets -->
<g id="edge46" class="edge"><title>_columns&#45;&gt;_character_sets</title>
<path style="fill:none;stroke:black;" d="M429,-252C426,-260 422,-270 419,-278"/>
<polygon style="fill:black;stroke:black;" points="415.464,-277.415 415,-288 421.964,-280.015 415.464,-277.415"/>
</g>
<!-- _referential_constraints -->
<g id="node46" class="node"><title>_referential_constraints</title>
<polygon style="fill:none;stroke:black;" points="148,-180 2.84217e-14,-180 0,-144 148,-144 148,-180"/>
<text text-anchor="middle" x="74" y="-157" style="font-family:Nimbus Roman No9 L;font-weight:regular;font-size:11.34pt;">_referential_constraints</text>
</g>
<!-- _referential_constraints&#45;&gt;_table_constraints -->
<g id="edge50" class="edge"><title>_referential_constraints&#45;&gt;_table_constraints</title>
<path style="fill:none;stroke:black;" d="M131,-180C169,-191 218,-205 258,-216"/>
<polygon style="fill:black;stroke:black;" points="257.416,-219.479 268,-219 259.427,-212.774 257.416,-219.479"/>
</g>
<!-- _referential_constraints&#45;&gt;_table_constraints -->
<g id="edge52" class="edge"><title>_referential_constraints&#45;&gt;_table_constraints</title>
<path style="fill:none;stroke:black;" d="M143,-180C180,-190 224,-203 259,-213"/>
<polygon style="fill:black;stroke:black;" points="258.416,-216.479 269,-216 260.427,-209.774 258.416,-216.479"/>
</g>
<!-- _check_constraints -->
<g id="node49" class="node"><title>_check_constraints</title>
<ellipse style="fill:none;stroke:black;" cx="540" cy="-162" rx="66.1777" ry="18"/>
<text text-anchor="middle" x="540" y="-157" style="font-family:Nimbus Roman No9 L;font-weight:regular;font-size:11.34pt;">_check_constraints</text>
</g>
<!-- _check_constraints&#45;&gt;_table_constraints -->
<g id="edge54" class="edge"><title>_check_constraints&#45;&gt;_table_constraints</title>
<path style="fill:none;stroke:black;" d="M498,-176C467,-186 425,-201 390,-213"/>
<polygon style="fill:black;stroke:black;" points="388.573,-209.774 380,-216 390.584,-216.479 388.573,-209.774"/>
</g>
<!-- _check_constraints&#45;&gt;_domain_constraints -->
<g id="edge56" class="edge"><title>_check_constraints&#45;&gt;_domain_constraints</title>
<path style="fill:none;stroke:black;" d="M576,-177C600,-187 632,-201 660,-212"/>
<polygon style="fill:black;stroke:black;" points="658.44,-215.137 669,-216 661.283,-208.74 658.44,-215.137"/>
</g>
<!-- _key_column_usage -->
<g id="node52" class="node"><title>_key_column_usage</title>
<polygon style="fill:none;stroke:black;" points="296,-180 166,-180 166,-144 296,-144 296,-180"/>
<text text-anchor="middle" x="231" y="-157" style="font-family:Nimbus Roman No9 L;font-weight:regular;font-size:11.34pt;">_key_column_usage</text>
</g>
<!-- _key_column_usage&#45;&gt;_table_constraints -->
<g id="edge58" class="edge"><title>_key_column_usage&#45;&gt;_table_constraints</title>
<path style="fill:none;stroke:black;" d="M255,-180C266,-189 281,-200 294,-210"/>
<polygon style="fill:black;stroke:black;" points="291.9,-212.8 302,-216 296.1,-207.2 291.9,-212.8"/>
</g>
<!-- _key_column_usage&#45;&gt;_columns -->
<g id="edge60" class="edge"><title>_key_column_usage&#45;&gt;_columns</title>
<path style="fill:none;stroke:black;" d="M288,-180C317,-189 352,-201 393,-216"/>
<polygon style="fill:black;stroke:black;" points="391.406,-219.158 402,-219 393.62,-212.517 391.406,-219.158"/>
</g>
<!-- _check_column_usage -->
<g id="node55" class="node"><title>_check_column_usage</title>
<polygon style="fill:none;stroke:black;" points="456,-180 314,-180 314,-144 456,-144 456,-180"/>
<text text-anchor="middle" x="385" y="-157" style="font-family:Nimbus Roman No9 L;font-weight:regular;font-size:11.34pt;">_check_column_usage</text>
</g>
<!-- _check_column_usage&#45;&gt;_table_constraints -->
<g id="edge62" class="edge"><title>_check_column_usage&#45;&gt;_table_constraints</title>
<path style="fill:none;stroke:black;" d="M370,-180C363,-189 355,-199 347,-208"/>
<polygon style="fill:black;stroke:black;" points="344.2,-205.9 341,-216 349.8,-210.1 344.2,-205.9"/>
</g>
<!-- _check_column_usage&#45;&gt;_columns -->
<g id="edge64" class="edge"><title>_check_column_usage&#45;&gt;_columns</title>
<path style="fill:none;stroke:black;" d="M398,-180C404,-188 411,-199 418,-208"/>
<polygon style="fill:black;stroke:black;" points="415.2,-210.1 424,-216 420.8,-205.9 415.2,-210.1"/>
</g>
<!-- _view_column_usage -->
<g id="node58" class="node"><title>_view_column_usage</title>
<polygon style="fill:none;stroke:black;" points="760,-180 624,-180 624,-144 760,-144 760,-180"/>
<text text-anchor="middle" x="692" y="-157" style="font-family:Nimbus Roman No9 L;font-weight:regular;font-size:11.34pt;">_view_column_usage</text>
</g>
<!-- _view_column_usage&#45;&gt;_views -->
<g id="edge66" class="edge"><title>_view_column_usage&#45;&gt;_views</title>
<path style="fill:none;stroke:black;" d="M643,-180C618,-189 588,-201 553,-216"/>
<polygon style="fill:black;stroke:black;" points="551.717,-212.74 544,-220 554.56,-219.137 551.717,-212.74"/>
</g>
<!-- _view_column_usage&#45;&gt;_columns -->
<g id="edge68" class="edge"><title>_view_column_usage&#45;&gt;_columns</title>
<path style="fill:none;stroke:black;" d="M624,-178C577,-190 518,-204 482,-216"/>
<polygon style="fill:black;stroke:black;" points="480.573,-212.774 472,-219 482.584,-219.479 480.573,-212.774"/>
</g>
<!-- _domain_column_usage -->
<g id="node61" class="node"><title>_domain_column_usage</title>
<ellipse style="fill:none;stroke:black;" cx="859" cy="-162" rx="81.1777" ry="18"/>
<text text-anchor="middle" x="859" y="-157" style="font-family:Nimbus Roman No9 L;font-weight:regular;font-size:11.34pt;">_domain_column_usage</text>
</g>
<!-- _domain_column_usage&#45;&gt;_domains -->
<g id="edge70" class="edge"><title>_domain_column_usage&#45;&gt;_domains</title>
<path style="fill:none;stroke:black;" d="M846,-180C832,-199 809,-229 787,-252 778,-262 766,-273 756,-281"/>
<polygon style="fill:black;stroke:black;" points="753.221,-278.781 748,-288 757.831,-284.049 753.221,-278.781"/>
</g>
<!-- _domain_column_usage&#45;&gt;_columns -->
<g id="edge72" class="edge"><title>_domain_column_usage&#45;&gt;_columns</title>
<path style="fill:none;stroke:black;" d="M800,-175C790,-177 779,-178 769,-180 645,-200 608,-185 482,-216"/>
<polygon style="fill:black;stroke:black;" points="480.573,-212.774 472,-219 482.584,-219.479 480.573,-212.774"/>
</g>
<!-- _constraint_column_usage -->
<g id="node64" class="node"><title>_constraint_column_usage</title>
<ellipse style="fill:none;stroke:black;" cx="308" cy="-90" rx="87.1767" ry="18"/>
<text text-anchor="middle" x="308" y="-85" style="font-family:Nimbus Roman No9 L;font-weight:regular;font-size:11.34pt;">_constraint_column_usage</text>
</g>
<!-- _constraint_column_usage&#45;&gt;_key_column_usage -->
<g id="edge74" class="edge"><title>_constraint_column_usage&#45;&gt;_key_column_usage</title>
<path style="fill:none;stroke:black;" d="M289,-108C279,-117 268,-127 258,-137"/>
<polygon style="fill:black;stroke:black;" points="255.221,-134.781 250,-144 259.831,-140.049 255.221,-134.781"/>
</g>
<!-- _constraint_column_usage&#45;&gt;_check_column_usage -->
<g id="edge76" class="edge"><title>_constraint_column_usage&#45;&gt;_check_column_usage</title>
<path style="fill:none;stroke:black;" d="M327,-108C337,-117 348,-127 358,-137"/>
<polygon style="fill:black;stroke:black;" points="356.169,-140.049 366,-144 360.779,-134.781 356.169,-140.049"/>
</g>
<!-- _view_table_usage -->
<g id="node67" class="node"><title>_view_table_usage</title>
<ellipse style="fill:none;stroke:black;" cx="692" cy="-90" rx="66.1777" ry="18"/>
<text text-anchor="middle" x="692" y="-85" style="font-family:Nimbus Roman No9 L;font-weight:regular;font-size:11.34pt;">_view_table_usage</text>
</g>
<!-- _view_table_usage&#45;&gt;_view_column_usage -->
<g id="edge78" class="edge"><title>_view_table_usage&#45;&gt;_view_column_usage</title>
<path style="fill:none;stroke:black;" d="M692,-108C692,-116 692,-125 692,-134"/>
<polygon style="fill:black;stroke:black;" points="688.5,-134 692,-144 695.5,-134 688.5,-134"/>
</g>
<!-- _constraint_table_usage -->
<g id="node69" class="node"><title>_constraint_table_usage</title>
<ellipse style="fill:none;stroke:black;" cx="308" cy="-18" rx="80.1777" ry="18"/>
<text text-anchor="middle" x="308" y="-13" style="font-family:Nimbus Roman No9 L;font-weight:regular;font-size:11.34pt;">_constraint_table_usage</text>
</g>
<!-- _constraint_table_usage&#45;&gt;_constraint_column_usage -->
<g id="edge80" class="edge"><title>_constraint_table_usage&#45;&gt;_constraint_column_usage</title>
<path style="fill:none;stroke:black;" d="M308,-36C308,-44 308,-53 308,-62"/>
<polygon style="fill:black;stroke:black;" points="304.5,-62 308,-72 311.5,-62 304.5,-62"/>
</g>
</g>
</svg>
