<?xml version="1.0" encoding="UTF-8" standalone="no"?>
<!DOCTYPE svg PUBLIC "-//W3C//DTD SVG 1.0//EN"
 "http://www.w3.org/TR/2001/REC-SVG-20010904/DTD/svg10.dtd" [
 <!ATTLIST svg xmlns:xlink CDATA #FIXED "http://www.w3.org/1999/xlink">
]>
<!-- Generated by Graphviz version 2.12 (Tue Sep  4 16:56:48 UTC 2007)
     For user: (vivien) Vivien,,, -->
<!-- Title: G Pages: 1 -->
<svg width="17.22in" height="7.82in"
 xmlns="http://www.w3.org/2000/svg" xmlns:xlink="http://www.w3.org/1999/xlink">
<g id="graph0" class="graph" transform="scale(1.33333 1.33333) rotate(0) translate(4 560)">
<title>G</title>
<polygon style="fill:white;stroke:white;" points="-4,4 -4,-560 1236,-560 1236,4 -4,4"/>
<!-- _attributes -->
<g id="node1" class="node"><title>_attributes</title>
<polygon style="fill:none;stroke:black;" points="204,-38 130,-38 130,-2 204,-2 204,-38"/>
<text text-anchor="middle" x="167" y="-16" style="font-family:Nimbus Roman No9 L;font-weight:regular;font-size:11.34pt;">_attributes</text>
</g>
<!-- _information_schema_catalog_name -->
<g id="node2" class="node"><title>_information_schema_catalog_name</title>
<polygon style="fill:none;stroke:black;" points="721,-556 499,-556 499,-520 721,-520 721,-556"/>
<text text-anchor="middle" x="610" y="-534" style="font-family:Nimbus Roman No9 L;font-weight:regular;font-size:11.34pt;">_information_schema_catalog_name</text>
</g>
<!-- _builtin_data_types -->
<g id="node3" class="node"><title>_builtin_data_types</title>
<polygon style="fill:none;stroke:black;" points="924,-340 798,-340 798,-304 924,-304 924,-340"/>
<text text-anchor="middle" x="861" y="-318" style="font-family:Nimbus Roman No9 L;font-weight:regular;font-size:11.34pt;">_builtin_data_types</text>
</g>
<!-- _udt -->
<g id="node4" class="node"><title>_udt</title>
<polygon style="fill:none;stroke:black;" points="996,-340 942,-340 942,-304 996,-304 996,-340"/>
<text text-anchor="middle" x="969" y="-318" style="font-family:Nimbus Roman No9 L;font-weight:regular;font-size:11.34pt;">_udt</text>
</g>
<!-- _element_types -->
<g id="node5" class="node"><title>_element_types</title>
<polygon style="fill:none;stroke:black;" points="504,-38 402,-38 402,-2 504,-2 504,-38"/>
<text text-anchor="middle" x="453" y="-16" style="font-family:Nimbus Roman No9 L;font-weight:regular;font-size:11.34pt;">_element_types</text>
</g>
<!-- _schemata -->
<g id="node6" class="node"><title>_schemata</title>
<polygon style="fill:none;stroke:black;" points="647,-484 573,-484 573,-448 647,-448 647,-484"/>
<text text-anchor="middle" x="610" y="-462" style="font-family:Nimbus Roman No9 L;font-weight:regular;font-size:11.34pt;">_schemata</text>
</g>
<!-- _schemata&#45;&gt;_information_schema_catalog_name -->
<g id="edge2" class="edge"><title>_schemata&#45;&gt;_information_schema_catalog_name</title>
<path style="fill:none;stroke:black;" d="M610,-484C610,-492 610,-501 610,-510"/>
<polygon style="fill:black;stroke:black;" points="606.5,-510 610,-520 613.5,-510 606.5,-510"/>
</g>
<!-- _udt_columns -->
<g id="node8" class="node"><title>_udt_columns</title>
<polygon style="fill:none;stroke:black;" points="1110,-266 1016,-266 1016,-230 1110,-230 1110,-266"/>
<text text-anchor="middle" x="1063" y="-244" style="font-family:Nimbus Roman No9 L;font-weight:regular;font-size:11.34pt;">_udt_columns</text>
</g>
<!-- _udt_columns&#45;&gt;_udt -->
<g id="edge4" class="edge"><title>_udt_columns&#45;&gt;_udt</title>
<path style="fill:none;stroke:black;" d="M1040,-266C1028,-276 1013,-287 1000,-298"/>
<polygon style="fill:black;stroke:black;" points="997.9,-295.2 992,-304 1002.1,-300.8 997.9,-295.2"/>
</g>
<!-- _enums -->
<g id="node10" class="node"><title>_enums</title>
<polygon style="fill:none;stroke:black;" points="998,-266 940,-266 940,-230 998,-230 998,-266"/>
<text text-anchor="middle" x="969" y="-244" style="font-family:Nimbus Roman No9 L;font-weight:regular;font-size:11.34pt;">_enums</text>
</g>
<!-- _enums&#45;&gt;_udt -->
<g id="edge6" class="edge"><title>_enums&#45;&gt;_udt</title>
<path style="fill:none;stroke:black;" d="M969,-266C969,-275 969,-284 969,-294"/>
<polygon style="fill:black;stroke:black;" points="965.5,-294 969,-304 972.5,-294 965.5,-294"/>
</g>
<!-- _domains -->
<g id="node12" class="node"><title>_domains</title>
<polygon style="fill:none;stroke:black;" points="765,-340 695,-340 695,-304 765,-304 765,-340"/>
<text text-anchor="middle" x="730" y="-318" style="font-family:Nimbus Roman No9 L;font-weight:regular;font-size:11.34pt;">_domains</text>
</g>
<!-- _domains&#45;&gt;_schemata -->
<g id="edge8" class="edge"><title>_domains&#45;&gt;_schemata</title>
<path style="fill:none;stroke:black;" d="M721,-340C710,-359 693,-390 673,-412 664,-422 653,-433 643,-441"/>
<polygon style="fill:black;stroke:black;" points="640.221,-438.781 635,-448 644.831,-444.049 640.221,-438.781"/>
</g>
<!-- _tables -->
<g id="node14" class="node"><title>_tables</title>
<polygon style="fill:none;stroke:black;" points="582,-340 528,-340 528,-304 582,-304 582,-340"/>
<text text-anchor="middle" x="555" y="-318" style="font-family:Nimbus Roman No9 L;font-weight:regular;font-size:11.34pt;">_tables</text>
</g>
<!-- _tables&#45;&gt;_schemata -->
<g id="edge10" class="edge"><title>_tables&#45;&gt;_schemata</title>
<path style="fill:none;stroke:black;" d="M562,-340C572,-365 589,-409 600,-438"/>
<polygon style="fill:black;stroke:black;" points="596.774,-439.427 603,-448 603.479,-437.416 596.774,-439.427"/>
</g>
<!-- _collations -->
<g id="node16" class="node"><title>_collations</title>
<polygon style="fill:none;stroke:black;" points="498,-412 422,-412 422,-376 498,-376 498,-412"/>
<text text-anchor="middle" x="460" y="-390" style="font-family:Nimbus Roman No9 L;font-weight:regular;font-size:11.34pt;">_collations</text>
</g>
<!-- _collations&#45;&gt;_schemata -->
<g id="edge12" class="edge"><title>_collations&#45;&gt;_schemata</title>
<path style="fill:none;stroke:black;" d="M498,-412C518,-422 543,-433 564,-444"/>
<polygon style="fill:black;stroke:black;" points="562.44,-447.137 573,-448 565.283,-440.74 562.44,-447.137"/>
</g>
<!-- _routines -->
<g id="node18" class="node"><title>_routines</title>
<polygon style="fill:none;stroke:black;" points="1090,-412 1022,-412 1022,-376 1090,-376 1090,-412"/>
<text text-anchor="middle" x="1056" y="-390" style="font-family:Nimbus Roman No9 L;font-weight:regular;font-size:11.34pt;">_routines</text>
</g>
<!-- _routines&#45;&gt;_schemata -->
<g id="edge14" class="edge"><title>_routines&#45;&gt;_schemata</title>
<path style="fill:none;stroke:black;" d="M1022,-400C942,-413 747,-444 657,-458"/>
<polygon style="fill:black;stroke:black;" points="656.119,-454.607 647,-460 657.492,-461.471 656.119,-454.607"/>
</g>
<!-- _views -->
<g id="node20" class="node"><title>_views</title>
<polygon style="fill:none;stroke:black;" points="548,-266 494,-266 494,-230 548,-230 548,-266"/>
<text text-anchor="middle" x="521" y="-244" style="font-family:Nimbus Roman No9 L;font-weight:regular;font-size:11.34pt;">_views</text>
</g>
<!-- _views&#45;&gt;_tables -->
<g id="edge16" class="edge"><title>_views&#45;&gt;_tables</title>
<path style="fill:none;stroke:black;" d="M529,-266C533,-275 538,-285 542,-295"/>
<polygon style="fill:black;stroke:black;" points="538.74,-296.283 546,-304 545.137,-293.44 538.74,-296.283"/>
</g>
<!-- _character_sets -->
<g id="node22" class="node"><title>_character_sets</title>
<polygon style="fill:none;stroke:black;" points="510,-340 410,-340 410,-304 510,-304 510,-340"/>
<text text-anchor="middle" x="460" y="-318" style="font-family:Nimbus Roman No9 L;font-weight:regular;font-size:11.34pt;">_character_sets</text>
</g>
<!-- _character_sets&#45;&gt;_schemata -->
<g id="edge18" class="edge"><title>_character_sets&#45;&gt;_schemata</title>
<path style="fill:none;stroke:black;" d="M479,-340C506,-366 554,-412 584,-441"/>
<polygon style="fill:black;stroke:black;" points="581.454,-443.404 591,-448 586.404,-438.454 581.454,-443.404"/>
</g>
<!-- _character_sets&#45;&gt;_collations -->
<g id="edge20" class="edge"><title>_character_sets&#45;&gt;_collations</title>
<path style="fill:none;stroke:black;" d="M460,-340C460,-348 460,-357 460,-366"/>
<polygon style="fill:black;stroke:black;" points="456.5,-366 460,-376 463.5,-366 456.5,-366"/>
</g>
<!-- _triggers -->
<g id="node25" class="node"><title>_triggers</title>
<polygon style="fill:none;stroke:black;" points="632,-266 566,-266 566,-230 632,-230 632,-266"/>
<text text-anchor="middle" x="599" y="-244" style="font-family:Nimbus Roman No9 L;font-weight:regular;font-size:11.34pt;">_triggers</text>
</g>
<!-- _triggers&#45;&gt;_schemata -->
<g id="edge22" class="edge"><title>_triggers&#45;&gt;_schemata</title>
<path style="fill:none;stroke:black;" d="M600,-266C602,-305 606,-393 609,-438"/>
<polygon style="fill:black;stroke:black;" points="605.5,-438 609,-448 612.5,-438 605.5,-438"/>
</g>
<!-- _triggers&#45;&gt;_tables -->
<g id="edge24" class="edge"><title>_triggers&#45;&gt;_tables</title>
<path style="fill:none;stroke:black;" d="M588,-266C583,-275 576,-285 571,-295"/>
<polygon style="fill:black;stroke:black;" points="567.797,-293.559 566,-304 573.916,-296.958 567.797,-293.559"/>
</g>
<!-- _table_constraints -->
<g id="node28" class="node"><title>_table_constraints</title>
<polygon style="fill:none;stroke:black;" points="331,-266 215,-266 215,-230 331,-230 331,-266"/>
<text text-anchor="middle" x="273" y="-244" style="font-family:Nimbus Roman No9 L;font-weight:regular;font-size:11.34pt;">_table_constraints</text>
</g>
<!-- _table_constraints&#45;&gt;_tables -->
<g id="edge26" class="edge"><title>_table_constraints&#45;&gt;_tables</title>
<path style="fill:none;stroke:black;" d="M331,-257C380,-266 450,-281 518,-305"/>
<polygon style="fill:black;stroke:black;" points="517.416,-308.479 528,-308 519.427,-301.774 517.416,-308.479"/>
</g>
<!-- _domain_constraints -->
<g id="node30" class="node"><title>_domain_constraints</title>
<polygon style="fill:none;stroke:black;" points="782,-266 650,-266 650,-230 782,-230 782,-266"/>
<text text-anchor="middle" x="716" y="-244" style="font-family:Nimbus Roman No9 L;font-weight:regular;font-size:11.34pt;">_domain_constraints</text>
</g>
<!-- _domain_constraints&#45;&gt;_schemata -->
<g id="edge30" class="edge"><title>_domain_constraints&#45;&gt;_schemata</title>
<path style="fill:none;stroke:black;" d="M706,-266C700,-277 693,-291 686,-304 663,-351 637,-406 622,-439"/>
<polygon style="fill:black;stroke:black;" points="618.863,-437.44 618,-448 625.26,-440.283 618.863,-437.44"/>
</g>
<!-- _domain_constraints&#45;&gt;_domains -->
<g id="edge28" class="edge"><title>_domain_constraints&#45;&gt;_domains</title>
<path style="fill:none;stroke:black;" d="M719,-266C721,-275 723,-285 725,-294"/>
<polygon style="fill:black;stroke:black;" points="721.607,-294.881 727,-304 728.471,-293.508 721.607,-294.881"/>
</g>
<!-- _parameters -->
<g id="node33" class="node"><title>_parameters</title>
<polygon style="fill:none;stroke:black;" points="1098,-340 1014,-340 1014,-304 1098,-304 1098,-340"/>
<text text-anchor="middle" x="1056" y="-318" style="font-family:Nimbus Roman No9 L;font-weight:regular;font-size:11.34pt;">_parameters</text>
</g>
<!-- _parameters&#45;&gt;_routines -->
<g id="edge32" class="edge"><title>_parameters&#45;&gt;_routines</title>
<path style="fill:none;stroke:black;" d="M1056,-340C1056,-348 1056,-357 1056,-366"/>
<polygon style="fill:black;stroke:black;" points="1052.5,-366 1056,-376 1059.5,-366 1052.5,-366"/>
</g>
<!-- _routine_columns -->
<g id="node35" class="node"><title>_routine_columns</title>
<polygon style="fill:none;stroke:black;" points="1232,-340 1116,-340 1116,-304 1232,-304 1232,-340"/>
<text text-anchor="middle" x="1174" y="-318" style="font-family:Nimbus Roman No9 L;font-weight:regular;font-size:11.34pt;">_routine_columns</text>
</g>
<!-- _routine_columns&#45;&gt;_routines -->
<g id="edge34" class="edge"><title>_routine_columns&#45;&gt;_routines</title>
<path style="fill:none;stroke:black;" d="M1144,-340C1129,-349 1110,-361 1094,-371"/>
<polygon style="fill:black;stroke:black;" points="1092.04,-368.084 1085,-376 1095.44,-374.203 1092.04,-368.084"/>
</g>
<!-- _all_types -->
<g id="node37" class="node"><title>_all_types</title>
<ellipse style="fill:none;stroke:black;" cx="880" cy="-248" rx="41.8014" ry="19.799"/>
<text text-anchor="middle" x="880" y="-244" style="font-family:Nimbus Roman No9 L;font-weight:regular;font-size:11.34pt;">_all_types</text>
</g>
<!-- _all_types&#45;&gt;_builtin_data_types -->
<g id="edge36" class="edge"><title>_all_types&#45;&gt;_builtin_data_types</title>
<path style="fill:none;stroke:black;" d="M875,-268C873,-276 870,-285 868,-294"/>
<polygon style="fill:black;stroke:black;" points="864.529,-293.508 866,-304 871.393,-294.881 864.529,-293.508"/>
</g>
<!-- _all_types&#45;&gt;_udt -->
<g id="edge38" class="edge"><title>_all_types&#45;&gt;_udt</title>
<path style="fill:none;stroke:black;" d="M901,-266C912,-275 927,-287 939,-297"/>
<polygon style="fill:black;stroke:black;" points="937.169,-300.049 947,-304 941.779,-294.781 937.169,-300.049"/>
</g>
<!-- _all_types&#45;&gt;_domains -->
<g id="edge40" class="edge"><title>_all_types&#45;&gt;_domains</title>
<path style="fill:none;stroke:black;" d="M851,-262C829,-273 799,-288 774,-300"/>
<polygon style="fill:black;stroke:black;" points="772.042,-297.084 765,-305 775.441,-303.203 772.042,-297.084"/>
</g>
<!-- _columns -->
<g id="node41" class="node"><title>_columns</title>
<polygon style="fill:none;stroke:black;" points="476,-266 406,-266 406,-230 476,-230 476,-266"/>
<text text-anchor="middle" x="441" y="-244" style="font-family:Nimbus Roman No9 L;font-weight:regular;font-size:11.34pt;">_columns</text>
</g>
<!-- _columns&#45;&gt;_tables -->
<g id="edge42" class="edge"><title>_columns&#45;&gt;_tables</title>
<path style="fill:none;stroke:black;" d="M469,-266C484,-276 503,-288 519,-299"/>
<polygon style="fill:black;stroke:black;" points="517.559,-302.203 528,-304 520.958,-296.084 517.559,-302.203"/>
</g>
<!-- _columns&#45;&gt;_collations -->
<g id="edge46" class="edge"><title>_columns&#45;&gt;_collations</title>
<path style="fill:none;stroke:black;" d="M424,-266C415,-276 406,-290 401,-304 397,-320 395,-326 401,-340 406,-352 415,-362 424,-370"/>
<polygon style="fill:black;stroke:black;" points="421.9,-372.8 432,-376 426.1,-367.2 421.9,-372.8"/>
</g>
<!-- _columns&#45;&gt;_character_sets -->
<g id="edge44" class="edge"><title>_columns&#45;&gt;_character_sets</title>
<path style="fill:none;stroke:black;" d="M446,-266C448,-275 450,-285 453,-294"/>
<polygon style="fill:black;stroke:black;" points="449.607,-294.881 455,-304 456.471,-293.508 449.607,-294.881"/>
</g>
<!-- _referential_constraints -->
<g id="node45" class="node"><title>_referential_constraints</title>
<polygon style="fill:none;stroke:black;" points="148,-190 2.84217e-14,-190 0,-154 148,-154 148,-190"/>
<text text-anchor="middle" x="74" y="-168" style="font-family:Nimbus Roman No9 L;font-weight:regular;font-size:11.34pt;">_referential_constraints</text>
</g>
<!-- _referential_constraints&#45;&gt;_table_constraints -->
<g id="edge48" class="edge"><title>_referential_constraints&#45;&gt;_table_constraints</title>
<path style="fill:none;stroke:black;" d="M115,-190C143,-201 179,-215 211,-227"/>
<polygon style="fill:black;stroke:black;" points="209.406,-230.158 220,-230 211.62,-223.517 209.406,-230.158"/>
</g>
<!-- _referential_constraints&#45;&gt;_table_constraints -->
<g id="edge50" class="edge"><title>_referential_constraints&#45;&gt;_table_constraints</title>
<path style="fill:none;stroke:black;" d="M127,-190C157,-201 193,-215 223,-226"/>
<polygon style="fill:black;stroke:black;" points="221.44,-229.137 232,-230 224.283,-222.74 221.44,-229.137"/>
</g>
<!-- _check_constraints -->
<g id="node48" class="node"><title>_check_constraints</title>
<ellipse style="fill:none;stroke:black;" cx="695" cy="-172" rx="66.799" ry="19.799"/>
<text text-anchor="middle" x="695" y="-168" style="font-family:Nimbus Roman No9 L;font-weight:regular;font-size:11.34pt;">_check_constraints</text>
</g>
<!-- _check_constraints&#45;&gt;_table_constraints -->
<g id="edge52" class="edge"><title>_check_constraints&#45;&gt;_table_constraints</title>
<path style="fill:none;stroke:black;" d="M646,-186C637,-188 628,-190 619,-192 616,-193 441,-221 341,-237"/>
<polygon style="fill:black;stroke:black;" points="340.119,-233.607 331,-239 341.492,-240.471 340.119,-233.607"/>
</g>
<!-- _check_constraints&#45;&gt;_domain_constraints -->
<g id="edge54" class="edge"><title>_check_constraints&#45;&gt;_domain_constraints</title>
<path style="fill:none;stroke:black;" d="M701,-192C703,-201 706,-211 708,-220"/>
<polygon style="fill:black;stroke:black;" points="704.774,-221.427 711,-230 711.479,-219.416 704.774,-221.427"/>
</g>
<!-- _key_column_usage -->
<g id="node51" class="node"><title>_key_column_usage</title>
<polygon style="fill:none;stroke:black;" points="456,-190 326,-190 326,-154 456,-154 456,-190"/>
<text text-anchor="middle" x="391" y="-168" style="font-family:Nimbus Roman No9 L;font-weight:regular;font-size:11.34pt;">_key_column_usage</text>
</g>
<!-- _key_column_usage&#45;&gt;_table_constraints -->
<g id="edge56" class="edge"><title>_key_column_usage&#45;&gt;_table_constraints</title>
<path style="fill:none;stroke:black;" d="M363,-190C347,-200 326,-213 309,-224"/>
<polygon style="fill:black;stroke:black;" points="306.9,-221.2 301,-230 311.1,-226.8 306.9,-221.2"/>
</g>
<!-- _key_column_usage&#45;&gt;_columns -->
<g id="edge58" class="edge"><title>_key_column_usage&#45;&gt;_columns</title>
<path style="fill:none;stroke:black;" d="M403,-190C409,-199 417,-211 424,-222"/>
<polygon style="fill:black;stroke:black;" points="420.732,-223.375 429,-230 426.668,-219.665 420.732,-223.375"/>
</g>
<!-- _check_column_usage -->
<g id="node54" class="node"><title>_check_column_usage</title>
<polygon style="fill:none;stroke:black;" points="308,-190 166,-190 166,-154 308,-154 308,-190"/>
<text text-anchor="middle" x="237" y="-168" style="font-family:Nimbus Roman No9 L;font-weight:regular;font-size:11.34pt;">_check_column_usage</text>
</g>
<!-- _check_column_usage&#45;&gt;_table_constraints -->
<g id="edge60" class="edge"><title>_check_column_usage&#45;&gt;_table_constraints</title>
<path style="fill:none;stroke:black;" d="M246,-190C250,-199 255,-211 261,-221"/>
<polygon style="fill:black;stroke:black;" points="257.74,-222.283 265,-230 264.137,-219.44 257.74,-222.283"/>
</g>
<!-- _check_column_usage&#45;&gt;_columns -->
<g id="edge62" class="edge"><title>_check_column_usage&#45;&gt;_columns</title>
<path style="fill:none;stroke:black;" d="M285,-190C319,-202 364,-218 396,-231"/>
<polygon style="fill:black;stroke:black;" points="395.415,-234.536 406,-235 398.015,-228.036 395.415,-234.536"/>
</g>
<!-- _view_column_usage -->
<g id="node57" class="node"><title>_view_column_usage</title>
<polygon style="fill:none;stroke:black;" points="610,-190 474,-190 474,-154 610,-154 610,-190"/>
<text text-anchor="middle" x="542" y="-168" style="font-family:Nimbus Roman No9 L;font-weight:regular;font-size:11.34pt;">_view_column_usage</text>
</g>
<!-- _view_column_usage&#45;&gt;_views -->
<g id="edge64" class="edge"><title>_view_column_usage&#45;&gt;_views</title>
<path style="fill:none;stroke:black;" d="M537,-190C535,-199 531,-210 529,-220"/>
<polygon style="fill:black;stroke:black;" points="525.521,-219.416 526,-230 532.226,-221.427 525.521,-219.416"/>
</g>
<!-- _view_column_usage&#45;&gt;_columns -->
<g id="edge66" class="edge"><title>_view_column_usage&#45;&gt;_columns</title>
<path style="fill:none;stroke:black;" d="M518,-190C505,-200 488,-213 473,-224"/>
<polygon style="fill:black;stroke:black;" points="470.9,-221.2 465,-230 475.1,-226.8 470.9,-221.2"/>
</g>
<!-- _domain_column_usage -->
<g id="node60" class="node"><title>_domain_column_usage</title>
<ellipse style="fill:none;stroke:black;" cx="862" cy="-172" rx="81.799" ry="19.799"/>
<text text-anchor="middle" x="862" y="-168" style="font-family:Nimbus Roman No9 L;font-weight:regular;font-size:11.34pt;">_domain_column_usage</text>
</g>
<!-- _domain_column_usage&#45;&gt;_domains -->
<g id="edge68" class="edge"><title>_domain_column_usage&#45;&gt;_domains</title>
<path style="fill:none;stroke:black;" d="M849,-192C835,-212 813,-244 791,-268 782,-278 771,-289 761,-297"/>
<polygon style="fill:black;stroke:black;" points="758.221,-294.781 753,-304 762.831,-300.049 758.221,-294.781"/>
</g>
<!-- _domain_column_usage&#45;&gt;_columns -->
<g id="edge70" class="edge"><title>_domain_column_usage&#45;&gt;_columns</title>
<path style="fill:none;stroke:black;" d="M803,-186C792,-188 781,-190 771,-192 648,-213 611,-195 486,-228"/>
<polygon style="fill:black;stroke:black;" points="484.573,-224.774 476,-231 486.584,-231.479 484.573,-224.774"/>
</g>
<!-- _constraint_column_usage -->
<g id="node63" class="node"><title>_constraint_column_usage</title>
<ellipse style="fill:none;stroke:black;" cx="303" cy="-96" rx="87.8001" ry="19.799"/>
<text text-anchor="middle" x="303" y="-92" style="font-family:Nimbus Roman No9 L;font-weight:regular;font-size:11.34pt;">_constraint_column_usage</text>
</g>
<!-- _constraint_column_usage&#45;&gt;_key_column_usage -->
<g id="edge72" class="edge"><title>_constraint_column_usage&#45;&gt;_key_column_usage</title>
<path style="fill:none;stroke:black;" d="M326,-116C337,-126 351,-137 362,-147"/>
<polygon style="fill:black;stroke:black;" points="360.169,-150.049 370,-154 364.779,-144.781 360.169,-150.049"/>
</g>
<!-- _constraint_column_usage&#45;&gt;_check_column_usage -->
<g id="edge74" class="edge"><title>_constraint_column_usage&#45;&gt;_check_column_usage</title>
<path style="fill:none;stroke:black;" d="M286,-116C278,-125 268,-136 260,-146"/>
<polygon style="fill:black;stroke:black;" points="256.951,-144.169 253,-154 262.219,-148.779 256.951,-144.169"/>
</g>
<!-- _view_table_usage -->
<g id="node66" class="node"><title>_view_table_usage</title>
<ellipse style="fill:none;stroke:black;" cx="542" cy="-96" rx="66.799" ry="19.799"/>
<text text-anchor="middle" x="542" y="-92" style="font-family:Nimbus Roman No9 L;font-weight:regular;font-size:11.34pt;">_view_table_usage</text>
</g>
<!-- _view_table_usage&#45;&gt;_view_column_usage -->
<g id="edge76" class="edge"><title>_view_table_usage&#45;&gt;_view_column_usage</title>
<path style="fill:none;stroke:black;" d="M542,-116C542,-125 542,-135 542,-144"/>
<polygon style="fill:black;stroke:black;" points="538.5,-144 542,-154 545.5,-144 538.5,-144"/>
</g>
<!-- _constraint_table_usage -->
<g id="node68" class="node"><title>_constraint_table_usage</title>
<ellipse style="fill:none;stroke:black;" cx="303" cy="-20" rx="80.799" ry="19.799"/>
<text text-anchor="middle" x="303" y="-16" style="font-family:Nimbus Roman No9 L;font-weight:regular;font-size:11.34pt;">_constraint_table_usage</text>
</g>
<!-- _constraint_table_usage&#45;&gt;_constraint_column_usage -->
<g id="edge78" class="edge"><title>_constraint_table_usage&#45;&gt;_constraint_column_usage</title>
<path style="fill:none;stroke:black;" d="M303,-40C303,-48 303,-57 303,-66"/>
<polygon style="fill:black;stroke:black;" points="299.5,-66 303,-76 306.5,-66 299.5,-66"/>
</g>
</g>
</svg>
