<?xml version="1.0" encoding="UTF-8" standalone="no"?>
<!DOCTYPE svg PUBLIC "-//W3C//DTD SVG 1.0//EN"
 "http://www.w3.org/TR/2001/REC-SVG-20010904/DTD/svg10.dtd" [
 <!ATTLIST svg xmlns:xlink CDATA #FIXED "http://www.w3.org/1999/xlink">
]>
<!-- Generated by dot version 2.9.20060516.0440 (Wed May 17 13:07:24 UTC 2006)
     For user: (vmalerba) MALERBA Vivien STNA 7FD M201 p5713 -->
<!-- Title: G Pages: 1 -->
<svg width="304pt" height="194pt"
 viewBox = "0 0 304 194"
 xmlns="http://www.w3.org/2000/svg" xmlns:xlink="http://www.w3.org/1999/xlink">
<g id="graph0" class="graph" style="font-family:Times-Roman;font-size:10.08pt;">
<title>G</title>
<polygon style="fill:white;stroke:white;" points="-2,196 -2,-2 306,-2 306,196 -2,196"/>
<g id="graph2" class="cluster"><title>clusterQU3</title>
<polygon style="fill:lightgrey;stroke:lightgrey;" points="12,174 292,174 292,12 12,12 12,174"/>
<text text-anchor="middle" x="152" y="27">SELECT Query 3: Select1</text>
</g>
<!-- QU3:T1 -->
<g id="node2" class="node"><title>QU3:T1</title>
<polygon style="fill:orange;stroke:black;" points="200,130 104,130 104,166 200,166 200,130"/>
<text text-anchor="middle" x="152" y="151">customers (t1)</text>
</g>
<!-- QU3:QF1 -->
<g id="node3" class="node"><title>QU3:QF1</title>
<polygon style="fill:#00c0ff;stroke:black;" points="170,92 285,92 285,44 170,44 170,92"/>
<text text-anchor="middle" x="227" y="59">id</text>
<polyline style="fill:none;stroke:black;" points="170,68 285,68 "/>
<text text-anchor="middle" x="192" y="83">Field</text>
<polyline style="fill:none;stroke:black;" points="215,92 215,68 "/>
<text text-anchor="middle" x="229" y="83">V</text>
<polyline style="fill:none;stroke:black;" points="243,92 243,68 "/>
<text text-anchor="middle" x="253" y="83">&#45;</text>
<polyline style="fill:none;stroke:black;" points="264,92 264,68 "/>
<text text-anchor="middle" x="274" y="83">&#45;</text>
</g>
<!-- QU3:QF1&#45;&gt;QU3:T1 -->
<g id="edge3" class="edge"><title>QU3:QF1&#45;&gt;QU3:T1</title>
<path style="fill:none;stroke:black;" d="M204,92C195,101 185,113 176,123"/>
<polygon style="fill:black;stroke:black;" points="179,125 169,130 174,120 179,125"/>
</g>
<!-- QU3:QF2 -->
<g id="node4" class="node"><title>QU3:QF2</title>
<polygon style="fill:#00c0ff;stroke:black;" points="20,92 135,92 135,44 20,44 20,92"/>
<text text-anchor="middle" x="77" y="59">name</text>
<polyline style="fill:none;stroke:black;" points="20,68 135,68 "/>
<text text-anchor="middle" x="42" y="83">Field</text>
<polyline style="fill:none;stroke:black;" points="65,92 65,68 "/>
<text text-anchor="middle" x="79" y="83">V</text>
<polyline style="fill:none;stroke:black;" points="93,92 93,68 "/>
<text text-anchor="middle" x="103" y="83">&#45;</text>
<polyline style="fill:none;stroke:black;" points="114,92 114,68 "/>
<text text-anchor="middle" x="124" y="83">&#45;</text>
</g>
<!-- QU3:QF2&#45;&gt;QU3:T1 -->
<g id="edge5" class="edge"><title>QU3:QF2&#45;&gt;QU3:T1</title>
<path style="fill:none;stroke:black;" d="M100,92C109,101 119,113 128,123"/>
<polygon style="fill:black;stroke:black;" points="130,120 135,130 125,125 130,120"/>
</g>
</g>
</svg>
