<?xml version="1.0" encoding="UTF-8" standalone="no"?>
<!DOCTYPE svg PUBLIC "-//W3C//DTD SVG 1.0//EN"
 "http://www.w3.org/TR/2001/REC-SVG-20010904/DTD/svg10.dtd" [
 <!ATTLIST svg xmlns:xlink CDATA #FIXED "http://www.w3.org/1999/xlink">
]>
<!-- Generated by dot version 2.9.20060516.0440 (Wed May 17 13:07:24 UTC 2006)
     For user: (vmalerba) MALERBA Vivien STNA 7FD M201 p5713 -->
<!-- Title: G Pages: 1 -->
<svg width="1038pt" height="354pt"
 viewBox = "0 0 1038 354"
 xmlns="http://www.w3.org/2000/svg" xmlns:xlink="http://www.w3.org/1999/xlink">
<g id="graph0" class="graph" style="font-family:Times-Roman;font-size:10.08pt;">
<title>G</title>
<polygon style="fill:white;stroke:white;" points="-2,356 -2,-2 1040,-2 1040,356 -2,356"/>
<g id="graph2" class="cluster"><title>clusterQU9</title>
<polygon style="fill:lightgrey;stroke:lightgrey;" points="12,334 1026,334 1026,12 12,12 12,334"/>
<text text-anchor="middle" x="519" y="27">SELECT Query 9: DocQuery</text>
</g>
<!-- QU9:T1 -->
<g id="node2" class="node"><title>QU9:T1</title>
<polygon style="fill:orange;stroke:black;" points="705,210 609,210 609,246 705,246 705,210"/>
<text text-anchor="middle" x="657" y="231">customers (t1)</text>
</g>
<!-- QU9:T2 -->
<g id="node3" class="node"><title>QU9:T2</title>
<polygon style="fill:orange;stroke:black;" points="840,290 756,290 756,326 840,326 840,290"/>
<text text-anchor="middle" x="798" y="311">salesrep (t2)</text>
</g>
<!-- QU9:T1&#45;&gt;QU9:T2 -->
<g id="edge3" class="edge"><title>QU9:T1&#45;&gt;QU9:T2</title>
<path style="fill:none;stroke:black;" d="M689,246C712,259 743,277 766,290"/>
</g>
<!-- QU9:T3 -->
<g id="node4" class="node"><title>QU9:T3</title>
<polygon style="fill:orange;stroke:black;" points="417,290 327,290 327,326 417,326 417,290"/>
<text text-anchor="middle" x="372" y="311">locations (t3)</text>
</g>
<!-- QU9:T1&#45;&gt;QU9:T3 -->
<g id="edge5" class="edge"><title>QU9:T1&#45;&gt;QU9:T3</title>
<path style="fill:none;stroke:black;" d="M599,249C597,250 594,251 591,252 535,270 470,286 425,296"/>
<polygon style="fill:black;stroke:black;" points="598,246 609,246 600,252 598,246"/>
<ellipse style="fill:none;stroke:black;" cx="421" cy="297" rx="4" ry="4"/>
</g>
<!-- QU9:QF7 -->
<g id="node7" class="node"><title>QU9:QF7</title>
<polygon style="fill:#00c0ff;stroke:black;" points="904,166 1019,166 1019,118 904,118 904,166"/>
<text text-anchor="middle" x="961" y="133">id</text>
<polyline style="fill:none;stroke:black;" points="904,142 1019,142 "/>
<text text-anchor="middle" x="926" y="157">Field</text>
<polyline style="fill:none;stroke:black;" points="949,166 949,142 "/>
<text text-anchor="middle" x="963" y="157">V</text>
<polyline style="fill:none;stroke:black;" points="977,166 977,142 "/>
<text text-anchor="middle" x="987" y="157">&#45;</text>
<polyline style="fill:none;stroke:black;" points="998,166 998,142 "/>
<text text-anchor="middle" x="1008" y="157">&#45;</text>
</g>
<!-- QU9:QF7&#45;&gt;QU9:T1 -->
<g id="edge7" class="edge"><title>QU9:QF7&#45;&gt;QU9:T1</title>
<path style="fill:none;stroke:black;" d="M904,161C898,163 892,164 886,166 814,186 794,183 723,204 720,205 717,206 715,207"/>
<polygon style="fill:black;stroke:black;" points="716,210 705,210 714,204 716,210"/>
</g>
<!-- QU9:QF8 -->
<g id="node8" class="node"><title>QU9:QF8</title>
<polygon style="fill:#00c0ff;stroke:black;" points="754,166 869,166 869,118 754,118 754,166"/>
<text text-anchor="middle" x="811" y="133">name</text>
<polyline style="fill:none;stroke:black;" points="754,142 869,142 "/>
<text text-anchor="middle" x="776" y="157">Field</text>
<polyline style="fill:none;stroke:black;" points="799,166 799,142 "/>
<text text-anchor="middle" x="813" y="157">V</text>
<polyline style="fill:none;stroke:black;" points="827,166 827,142 "/>
<text text-anchor="middle" x="837" y="157">&#45;</text>
<polyline style="fill:none;stroke:black;" points="848,166 848,142 "/>
<text text-anchor="middle" x="858" y="157">&#45;</text>
</g>
<!-- QU9:QF8&#45;&gt;QU9:T1 -->
<g id="edge9" class="edge"><title>QU9:QF8&#45;&gt;QU9:T1</title>
<path style="fill:none;stroke:black;" d="M768,166C746,178 720,193 699,205"/>
<polygon style="fill:black;stroke:black;" points="700,208 690,210 697,202 700,208"/>
</g>
<!-- QU9:QF9 -->
<g id="node9" class="node"><title>QU9:QF9</title>
<polygon style="fill:#00c0ff;stroke:black;" points="741,252 856,252 856,204 741,204 741,252"/>
<text text-anchor="middle" x="798" y="219">name</text>
<polyline style="fill:none;stroke:black;" points="741,228 856,228 "/>
<text text-anchor="middle" x="763" y="243">Field</text>
<polyline style="fill:none;stroke:black;" points="786,252 786,228 "/>
<text text-anchor="middle" x="800" y="243">V</text>
<polyline style="fill:none;stroke:black;" points="814,252 814,228 "/>
<text text-anchor="middle" x="824" y="243">&#45;</text>
<polyline style="fill:none;stroke:black;" points="835,252 835,228 "/>
<text text-anchor="middle" x="845" y="243">&#45;</text>
</g>
<!-- QU9:QF9&#45;&gt;QU9:T2 -->
<g id="edge11" class="edge"><title>QU9:QF9&#45;&gt;QU9:T2</title>
<path style="fill:none;stroke:black;" d="M798,252C798,261 798,271 798,280"/>
<polygon style="fill:black;stroke:black;" points="802,280 798,290 795,280 802,280"/>
</g>
<!-- QU9:QF10 -->
<g id="node10" class="node"><title>QU9:QF10</title>
<polygon style="fill:#00c0ff;stroke:black;" points="315,252 430,252 430,204 315,204 315,252"/>
<text text-anchor="middle" x="372" y="219">country</text>
<polyline style="fill:none;stroke:black;" points="315,228 430,228 "/>
<text text-anchor="middle" x="337" y="243">Field</text>
<polyline style="fill:none;stroke:black;" points="360,252 360,228 "/>
<text text-anchor="middle" x="374" y="243">V</text>
<polyline style="fill:none;stroke:black;" points="388,252 388,228 "/>
<text text-anchor="middle" x="398" y="243">&#45;</text>
<polyline style="fill:none;stroke:black;" points="409,252 409,228 "/>
<text text-anchor="middle" x="419" y="243">&#45;</text>
</g>
<!-- QU9:QF10&#45;&gt;QU9:T3 -->
<g id="edge13" class="edge"><title>QU9:QF10&#45;&gt;QU9:T3</title>
<path style="fill:none;stroke:black;" d="M372,252C372,261 372,271 372,280"/>
<polygon style="fill:black;stroke:black;" points="376,280 372,290 369,280 376,280"/>
</g>
<!-- QU9:QF11 -->
<g id="node11" class="node"><title>QU9:QF11</title>
<polygon style="fill:#00c0ff;stroke:black;" points="165,252 280,252 280,204 165,204 165,252"/>
<text text-anchor="middle" x="222" y="219">city</text>
<polyline style="fill:none;stroke:black;" points="165,228 280,228 "/>
<text text-anchor="middle" x="187" y="243">Field</text>
<polyline style="fill:none;stroke:black;" points="210,252 210,228 "/>
<text text-anchor="middle" x="224" y="243">V</text>
<polyline style="fill:none;stroke:black;" points="238,252 238,228 "/>
<text text-anchor="middle" x="248" y="243">&#45;</text>
<polyline style="fill:none;stroke:black;" points="259,252 259,228 "/>
<text text-anchor="middle" x="269" y="243">&#45;</text>
</g>
<!-- QU9:QF11&#45;&gt;QU9:T3 -->
<g id="edge15" class="edge"><title>QU9:QF11&#45;&gt;QU9:T3</title>
<path style="fill:none;stroke:black;" d="M267,252C287,262 309,275 328,285"/>
<polygon style="fill:black;stroke:black;" points="330,282 337,290 327,288 330,282"/>
</g>
<!-- QU9:QF1 -->
<g id="node12" class="node"><title>QU9:QF1</title>
<polygon style="fill:#00c0ff;stroke:black;" points="600,166 719,166 719,118 600,118 600,166"/>
<text text-anchor="middle" x="659" y="133">default_served_by</text>
<polyline style="fill:none;stroke:black;" points="600,142 719,142 "/>
<text text-anchor="middle" x="623" y="157">Field</text>
<polyline style="fill:none;stroke:black;" points="647,166 647,142 "/>
<text text-anchor="middle" x="659" y="157">&#45;</text>
<polyline style="fill:none;stroke:black;" points="671,166 671,142 "/>
<text text-anchor="middle" x="683" y="157">&#45;</text>
<polyline style="fill:none;stroke:black;" points="695,166 695,142 "/>
<text text-anchor="middle" x="707" y="157">&#45;</text>
</g>
<!-- QU9:QF1&#45;&gt;QU9:T1 -->
<g id="edge17" class="edge"><title>QU9:QF1&#45;&gt;QU9:T1</title>
<path style="fill:none;stroke:black;" d="M658,166C658,177 658,189 658,200"/>
<polygon style="fill:black;stroke:black;" points="661,200 657,210 655,200 661,200"/>
</g>
<!-- QU9:QF2 -->
<g id="node13" class="node"><title>QU9:QF2</title>
<polygon style="fill:#00c0ff;stroke:black;" points="891,252 999,252 999,204 891,204 891,252"/>
<text text-anchor="middle" x="945" y="219">id</text>
<polyline style="fill:none;stroke:black;" points="891,228 999,228 "/>
<text text-anchor="middle" x="913" y="243">Field</text>
<polyline style="fill:none;stroke:black;" points="936,252 936,228 "/>
<text text-anchor="middle" x="946" y="243">&#45;</text>
<polyline style="fill:none;stroke:black;" points="957,252 957,228 "/>
<text text-anchor="middle" x="967" y="243">&#45;</text>
<polyline style="fill:none;stroke:black;" points="978,252 978,228 "/>
<text text-anchor="middle" x="988" y="243">&#45;</text>
</g>
<!-- QU9:QF2&#45;&gt;QU9:T2 -->
<g id="edge19" class="edge"><title>QU9:QF2&#45;&gt;QU9:T2</title>
<path style="fill:none;stroke:black;" d="M901,252C882,262 860,275 841,285"/>
<polygon style="fill:black;stroke:black;" points="842,288 832,290 839,282 842,288"/>
</g>
<!-- QU9:QF3 -->
<g id="node14" class="node"><title>QU9:QF3</title>
<polygon style="fill:#00c0ff;stroke:black;" points="456,166 564,166 564,118 456,118 456,166"/>
<text text-anchor="middle" x="510" y="133">country</text>
<polyline style="fill:none;stroke:black;" points="456,142 564,142 "/>
<text text-anchor="middle" x="478" y="157">Field</text>
<polyline style="fill:none;stroke:black;" points="501,166 501,142 "/>
<text text-anchor="middle" x="511" y="157">&#45;</text>
<polyline style="fill:none;stroke:black;" points="522,166 522,142 "/>
<text text-anchor="middle" x="532" y="157">&#45;</text>
<polyline style="fill:none;stroke:black;" points="543,166 543,142 "/>
<text text-anchor="middle" x="553" y="157">&#45;</text>
</g>
<!-- QU9:QF3&#45;&gt;QU9:T1 -->
<g id="edge21" class="edge"><title>QU9:QF3&#45;&gt;QU9:T1</title>
<path style="fill:none;stroke:black;" d="M551,166C572,178 597,193 617,205"/>
<polygon style="fill:black;stroke:black;" points="619,202 626,210 616,208 619,202"/>
</g>
<!-- QU9:QF4 -->
<g id="node15" class="node"><title>QU9:QF4</title>
<polygon style="fill:#00c0ff;stroke:black;" points="21,252 129,252 129,204 21,204 21,252"/>
<text text-anchor="middle" x="75" y="219">country</text>
<polyline style="fill:none;stroke:black;" points="21,228 129,228 "/>
<text text-anchor="middle" x="43" y="243">Field</text>
<polyline style="fill:none;stroke:black;" points="66,252 66,228 "/>
<text text-anchor="middle" x="76" y="243">&#45;</text>
<polyline style="fill:none;stroke:black;" points="87,252 87,228 "/>
<text text-anchor="middle" x="97" y="243">&#45;</text>
<polyline style="fill:none;stroke:black;" points="108,252 108,228 "/>
<text text-anchor="middle" x="118" y="243">&#45;</text>
</g>
<!-- QU9:QF4&#45;&gt;QU9:T3 -->
<g id="edge23" class="edge"><title>QU9:QF4&#45;&gt;QU9:T3</title>
<path style="fill:none;stroke:black;" d="M129,247C135,249 141,250 147,252 204,269 271,285 317,296"/>
<polygon style="fill:black;stroke:black;" points="318,293 327,298 317,299 318,293"/>
</g>
<!-- QU9:QF5 -->
<g id="node16" class="node"><title>QU9:QF5</title>
<polygon style="fill:#00c0ff;stroke:black;" points="312,166 420,166 420,118 312,118 312,166"/>
<text text-anchor="middle" x="366" y="133">city</text>
<polyline style="fill:none;stroke:black;" points="312,142 420,142 "/>
<text text-anchor="middle" x="334" y="157">Field</text>
<polyline style="fill:none;stroke:black;" points="357,166 357,142 "/>
<text text-anchor="middle" x="367" y="157">&#45;</text>
<polyline style="fill:none;stroke:black;" points="378,166 378,142 "/>
<text text-anchor="middle" x="388" y="157">&#45;</text>
<polyline style="fill:none;stroke:black;" points="399,166 399,142 "/>
<text text-anchor="middle" x="409" y="157">&#45;</text>
</g>
<!-- QU9:QF5&#45;&gt;QU9:T1 -->
<g id="edge25" class="edge"><title>QU9:QF5&#45;&gt;QU9:T1</title>
<path style="fill:none;stroke:black;" d="M420,161C426,163 432,164 438,166 505,186 523,184 591,204 594,205 597,206 599,207"/>
<polygon style="fill:black;stroke:black;" points="600,204 609,210 598,210 600,204"/>
</g>
<!-- QU9:QF6 -->
<g id="node17" class="node"><title>QU9:QF6</title>
<polygon style="fill:#00c0ff;stroke:black;" points="465,252 573,252 573,204 465,204 465,252"/>
<text text-anchor="middle" x="519" y="219">city</text>
<polyline style="fill:none;stroke:black;" points="465,228 573,228 "/>
<text text-anchor="middle" x="487" y="243">Field</text>
<polyline style="fill:none;stroke:black;" points="510,252 510,228 "/>
<text text-anchor="middle" x="520" y="243">&#45;</text>
<polyline style="fill:none;stroke:black;" points="531,252 531,228 "/>
<text text-anchor="middle" x="541" y="243">&#45;</text>
<polyline style="fill:none;stroke:black;" points="552,252 552,228 "/>
<text text-anchor="middle" x="562" y="243">&#45;</text>
</g>
<!-- QU9:QF6&#45;&gt;QU9:T3 -->
<g id="edge27" class="edge"><title>QU9:QF6&#45;&gt;QU9:T3</title>
<path style="fill:none;stroke:black;" d="M475,252C456,262 434,275 415,285"/>
<polygon style="fill:black;stroke:black;" points="416,288 406,290 413,282 416,288"/>
</g>
<!-- QU9:QF12 -->
<g id="node18" class="node"><title>QU9:QF12</title>
<polygon style="fill:#00c0ff;stroke:black;" points="20,166 128,166 128,118 20,118 20,166"/>
<text text-anchor="middle" x="74" y="133">id</text>
<polyline style="fill:none;stroke:black;" points="20,142 128,142 "/>
<text text-anchor="middle" x="42" y="157">Field</text>
<polyline style="fill:none;stroke:black;" points="65,166 65,142 "/>
<text text-anchor="middle" x="75" y="157">&#45;</text>
<polyline style="fill:none;stroke:black;" points="86,166 86,142 "/>
<text text-anchor="middle" x="96" y="157">&#45;</text>
<polyline style="fill:none;stroke:black;" points="107,166 107,142 "/>
<text text-anchor="middle" x="117" y="157">&#45;</text>
</g>
<!-- QU9:QF12&#45;&gt;QU9:T1 -->
<g id="edge29" class="edge"><title>QU9:QF12&#45;&gt;QU9:T1</title>
<path style="fill:none;stroke:black;" d="M128,162C134,164 140,165 146,166 340,207 397,162 591,204 595,205 598,206 602,207"/>
<polygon style="fill:black;stroke:black;" points="603,204 612,210 601,210 603,204"/>
</g>
<!-- QU9:QF13 -->
<g id="node19" class="node"><title>QU9:QF13</title>
<polygon style="fill:#00c0ff;stroke:black;" points="164,166 277,166 277,118 164,118 164,166"/>
<text text-anchor="middle" x="220" y="133">(12)</text>
<polyline style="fill:none;stroke:black;" points="164,142 277,142 "/>
<text text-anchor="middle" x="189" y="157">Value</text>
<polyline style="fill:none;stroke:black;" points="214,166 214,142 "/>
<text text-anchor="middle" x="224" y="157">&#45;</text>
<polyline style="fill:none;stroke:black;" points="235,166 235,142 "/>
<text text-anchor="middle" x="245" y="157">&#45;</text>
<polyline style="fill:none;stroke:black;" points="256,166 256,142 "/>
<text text-anchor="middle" x="266" y="157">&#45;</text>
</g>
<!-- QU9:Cond -->
<g id="node32" class="node"><title>QU9:Cond</title>
<polygon style="fill:yellow;stroke:black;" points="178,44 116,44 116,80 178,80 178,44"/>
<text text-anchor="middle" x="147" y="65">t1.id=12</text>
</g>
<!-- QU9:Cond&#45;&gt;QU9:QF12 -->
<g id="edge31" class="edge"><title>QU9:Cond&#45;&gt;QU9:QF12</title>
<path style="fill:none;stroke:black;" d="M130,80C122,89 112,100 103,110"/>
<polygon style="fill:black;stroke:black;" points="105,113 96,118 100,108 105,113"/>
</g>
<!-- QU9:Cond&#45;&gt;QU9:QF13 -->
<g id="edge33" class="edge"><title>QU9:Cond&#45;&gt;QU9:QF13</title>
<path style="fill:none;stroke:black;" d="M164,80C172,89 182,100 191,110"/>
<polygon style="fill:black;stroke:black;" points="194,108 198,118 189,113 194,108"/>
</g>
</g>
</svg>
