<?xml version="1.0" encoding="UTF-8" standalone="no"?>
<!DOCTYPE svg PUBLIC "-//W3C//DTD SVG 1.0//EN"
 "http://www.w3.org/TR/2001/REC-SVG-20010904/DTD/svg10.dtd" [
 <!ATTLIST svg xmlns:xlink CDATA #FIXED "http://www.w3.org/1999/xlink">
]>
<!-- Generated by dot version 2.9.20060516.0440 (Wed May 17 13:07:24 UTC 2006)
     For user: (vmalerba) MALERBA Vivien STNA 7FD M201 p5713 -->
<!-- Title: G Pages: 1 -->
<svg width="446pt" height="280pt"
 viewBox = "0 0 446 280"
 xmlns="http://www.w3.org/2000/svg" xmlns:xlink="http://www.w3.org/1999/xlink">
<g id="graph0" class="graph" style="font-family:Times-Roman;font-size:10.08pt;">
<title>G</title>
<polygon style="fill:white;stroke:white;" points="-2,282 -2,-2 448,-2 448,282 -2,282"/>
<g id="graph2" class="cluster"><title>clusterQU14</title>
<polygon style="fill:lightgrey;stroke:lightgrey;" points="12,260 434,260 434,12 12,12 12,260"/>
<text text-anchor="middle" x="223" y="27">UPDATE Query 14: Update1</text>
</g>
<!-- QU14:T1 -->
<g id="node2" class="node"><title>QU14:T1</title>
<polygon style="fill:orange;stroke:black;" points="238,210 142,210 142,246 238,246 238,210"/>
<text text-anchor="middle" x="190" y="231">customers (t1)</text>
</g>
<!-- QU14:QF1 -->
<g id="node3" class="node"><title>QU14:QF1</title>
<polygon style="fill:#00c0ff;stroke:black;" points="312,166 427,166 427,118 312,118 312,166"/>
<text text-anchor="middle" x="369" y="133">name</text>
<polyline style="fill:none;stroke:black;" points="312,142 427,142 "/>
<text text-anchor="middle" x="334" y="157">Field</text>
<polyline style="fill:none;stroke:black;" points="357,166 357,142 "/>
<text text-anchor="middle" x="371" y="157">V</text>
<polyline style="fill:none;stroke:black;" points="385,166 385,142 "/>
<text text-anchor="middle" x="395" y="157">&#45;</text>
<polyline style="fill:none;stroke:black;" points="406,166 406,142 "/>
<text text-anchor="middle" x="416" y="157">&#45;</text>
</g>
<!-- QU14:QF1&#45;&gt;QU14:T1 -->
<g id="edge3" class="edge"><title>QU14:QF1&#45;&gt;QU14:T1</title>
<path style="fill:none;stroke:black;" d="M319,166C293,178 262,193 237,205"/>
<polygon style="fill:black;stroke:black;" points="238,208 228,210 235,202 238,208"/>
</g>
<!-- QU14:QF2 -->
<g id="node4" class="node"><title>QU14:QF2</title>
<polygon style="fill:#00c0ff;stroke:black;" points="313,252 426,252 426,204 313,204 313,252"/>
<text text-anchor="middle" x="369" y="219">(Joe)</text>
<polyline style="fill:none;stroke:black;" points="313,228 426,228 "/>
<text text-anchor="middle" x="338" y="243">Value</text>
<polyline style="fill:none;stroke:black;" points="363,252 363,228 "/>
<text text-anchor="middle" x="373" y="243">&#45;</text>
<polyline style="fill:none;stroke:black;" points="384,252 384,228 "/>
<text text-anchor="middle" x="394" y="243">&#45;</text>
<polyline style="fill:none;stroke:black;" points="405,252 405,228 "/>
<text text-anchor="middle" x="415" y="243">&#45;</text>
</g>
<!-- QU14:QF1&#45;&gt;QU14:QF2 -->
<g id="edge5" class="edge"><title>QU14:QF1&#45;&gt;QU14:QF2</title>
<path style="fill:none;stroke:black;stroke-dasharray:1,5;" d="M369,166C369,175 369,184 369,194"/>
<polygon style="fill:black;stroke:black;" points="373,194 369,204 366,194 373,194"/>
</g>
<!-- QU14:QF3 -->
<g id="node5" class="node"><title>QU14:QF3</title>
<polygon style="fill:#00c0ff;stroke:black;" points="20,166 128,166 128,118 20,118 20,166"/>
<text text-anchor="middle" x="74" y="133">id</text>
<polyline style="fill:none;stroke:black;" points="20,142 128,142 "/>
<text text-anchor="middle" x="42" y="157">Field</text>
<polyline style="fill:none;stroke:black;" points="65,166 65,142 "/>
<text text-anchor="middle" x="75" y="157">&#45;</text>
<polyline style="fill:none;stroke:black;" points="86,166 86,142 "/>
<text text-anchor="middle" x="96" y="157">&#45;</text>
<polyline style="fill:none;stroke:black;" points="107,166 107,142 "/>
<text text-anchor="middle" x="117" y="157">&#45;</text>
</g>
<!-- QU14:QF3&#45;&gt;QU14:T1 -->
<g id="edge7" class="edge"><title>QU14:QF3&#45;&gt;QU14:T1</title>
<path style="fill:none;stroke:black;" d="M107,166C122,178 141,192 157,204"/>
<polygon style="fill:black;stroke:black;" points="159,201 165,210 155,207 159,201"/>
</g>
<!-- QU14:QF4 -->
<g id="node6" class="node"><title>QU14:QF4</title>
<polygon style="fill:#00c0ff;stroke:black;" points="164,166 277,166 277,118 164,118 164,166"/>
<text text-anchor="middle" x="220" y="133">(10)</text>
<polyline style="fill:none;stroke:black;" points="164,142 277,142 "/>
<text text-anchor="middle" x="189" y="157">Value</text>
<polyline style="fill:none;stroke:black;" points="214,166 214,142 "/>
<text text-anchor="middle" x="224" y="157">&#45;</text>
<polyline style="fill:none;stroke:black;" points="235,166 235,142 "/>
<text text-anchor="middle" x="245" y="157">&#45;</text>
<polyline style="fill:none;stroke:black;" points="256,166 256,142 "/>
<text text-anchor="middle" x="266" y="157">&#45;</text>
</g>
<!-- QU14:Cond -->
<g id="node10" class="node"><title>QU14:Cond</title>
<polygon style="fill:yellow;stroke:black;" points="178,44 116,44 116,80 178,80 178,44"/>
<text text-anchor="middle" x="147" y="65">t1.id=10</text>
</g>
<!-- QU14:Cond&#45;&gt;QU14:QF3 -->
<g id="edge9" class="edge"><title>QU14:Cond&#45;&gt;QU14:QF3</title>
<path style="fill:none;stroke:black;" d="M130,80C122,89 112,100 103,110"/>
<polygon style="fill:black;stroke:black;" points="105,113 96,118 100,108 105,113"/>
</g>
<!-- QU14:Cond&#45;&gt;QU14:QF4 -->
<g id="edge11" class="edge"><title>QU14:Cond&#45;&gt;QU14:QF4</title>
<path style="fill:none;stroke:black;" d="M164,80C172,89 182,100 191,110"/>
<polygon style="fill:black;stroke:black;" points="194,108 198,118 189,113 194,108"/>
</g>
</g>
</svg>
