<?xml version="1.0" encoding="UTF-8" standalone="no"?>
<!DOCTYPE svg PUBLIC "-//W3C//DTD SVG 1.0//EN"
 "http://www.w3.org/TR/2001/REC-SVG-20010904/DTD/svg10.dtd" [
 <!ATTLIST svg xmlns:xlink CDATA #FIXED "http://www.w3.org/1999/xlink">
]>
<!-- Generated by dot version 2.9.20060516.0440 (Wed May 17 13:07:24 UTC 2006)
     For user: (vmalerba) MALERBA Vivien STNA 7FD M201 p5713 -->
<!-- Title: G Pages: 1 -->
<svg width="300pt" height="268pt"
 viewBox = "0 0 300 268"
 xmlns="http://www.w3.org/2000/svg" xmlns:xlink="http://www.w3.org/1999/xlink">
<g id="graph0" class="graph" style="font-family:Times-Roman;font-size:10.08pt;">
<title>G</title>
<polygon style="fill:white;stroke:white;" points="-2,270 -2,-2 302,-2 302,270 -2,270"/>
<g id="graph2" class="cluster"><title>clusterQU12</title>
<polygon style="fill:lightgrey;stroke:lightgrey;" points="12,248 288,248 288,12 12,12 12,248"/>
<text text-anchor="middle" x="150" y="27">DELETE Query 12: Delete1</text>
</g>
<!-- QU12:T1 -->
<g id="node2" class="node"><title>QU12:T1</title>
<polygon style="fill:orange;stroke:black;" points="122,204 26,204 26,240 122,240 122,204"/>
<text text-anchor="middle" x="74" y="225">customers (t1)</text>
</g>
<!-- QU12:QF1 -->
<g id="node3" class="node"><title>QU12:QF1</title>
<polygon style="fill:#00c0ff;stroke:black;" points="20,166 128,166 128,118 20,118 20,166"/>
<text text-anchor="middle" x="74" y="133">id</text>
<polyline style="fill:none;stroke:black;" points="20,142 128,142 "/>
<text text-anchor="middle" x="42" y="157">Field</text>
<polyline style="fill:none;stroke:black;" points="65,166 65,142 "/>
<text text-anchor="middle" x="75" y="157">&#45;</text>
<polyline style="fill:none;stroke:black;" points="86,166 86,142 "/>
<text text-anchor="middle" x="96" y="157">&#45;</text>
<polyline style="fill:none;stroke:black;" points="107,166 107,142 "/>
<text text-anchor="middle" x="117" y="157">&#45;</text>
</g>
<!-- QU12:QF1&#45;&gt;QU12:T1 -->
<g id="edge3" class="edge"><title>QU12:QF1&#45;&gt;QU12:T1</title>
<path style="fill:none;stroke:black;" d="M74,166C74,175 74,185 74,194"/>
<polygon style="fill:black;stroke:black;" points="78,194 74,204 71,194 78,194"/>
</g>
<!-- QU12:QF2 -->
<g id="node4" class="node"><title>QU12:QF2</title>
<polygon style="fill:#00c0ff;stroke:black;" points="164,166 280,166 280,118 164,118 164,166"/>
<text text-anchor="middle" x="222" y="133">Person Id</text>
<polyline style="fill:none;stroke:black;" points="164,142 280,142 "/>
<text text-anchor="middle" x="189" y="157">Value</text>
<polyline style="fill:none;stroke:black;" points="214,166 214,142 "/>
<text text-anchor="middle" x="224" y="157">&#45;</text>
<polyline style="fill:none;stroke:black;" points="235,166 235,142 "/>
<text text-anchor="middle" x="245" y="157">&#45;</text>
<polyline style="fill:none;stroke:black;" points="256,166 256,142 "/>
<text text-anchor="middle" x="268" y="157">P</text>
</g>
<!-- QU12:Cond -->
<g id="node6" class="node"><title>QU12:Cond</title>
<polygon style="fill:yellow;stroke:black;" points="180,44 116,44 116,80 180,80 180,44"/>
<text text-anchor="middle" x="148" y="65">t1.id=##</text>
</g>
<!-- QU12:Cond&#45;&gt;QU12:QF1 -->
<g id="edge5" class="edge"><title>QU12:Cond&#45;&gt;QU12:QF1</title>
<path style="fill:none;stroke:black;" d="M131,80C123,89 113,100 103,110"/>
<polygon style="fill:black;stroke:black;" points="105,113 96,118 100,108 105,113"/>
</g>
<!-- QU12:Cond&#45;&gt;QU12:QF2 -->
<g id="edge7" class="edge"><title>QU12:Cond&#45;&gt;QU12:QF2</title>
<path style="fill:none;stroke:black;" d="M165,80C173,89 183,100 193,110"/>
<polygon style="fill:black;stroke:black;" points="196,108 200,118 191,113 196,108"/>
</g>
</g>
</svg>
