<?xml version="1.0" encoding="UTF-8" standalone="no"?>
<!DOCTYPE svg PUBLIC "-//W3C//DTD SVG 1.0//EN"
 "http://www.w3.org/TR/2001/REC-SVG-20010904/DTD/svg10.dtd" [
 <!ATTLIST svg xmlns:xlink CDATA #FIXED "http://www.w3.org/1999/xlink">
]>
<!-- Generated by dot version 2.9.20060516.0440 (Wed May 17 13:07:24 UTC 2006)
     For user: (vmalerba) MALERBA Vivien STNA 7FD M201 p5713 -->
<!-- Title: G Pages: 1 -->
<svg width="726pt" height="334pt"
 viewBox = "0 0 726 334"
 xmlns="http://www.w3.org/2000/svg" xmlns:xlink="http://www.w3.org/1999/xlink">
<g id="graph0" class="graph" style="font-family:Times-Roman;font-size:10.08pt;">
<title>G</title>
<polygon style="fill:white;stroke:white;" points="-2,336 -2,-2 728,-2 728,336 -2,336"/>
<g id="graph2" class="cluster"><title>clusterQU18</title>
<polygon style="fill:lightgrey;stroke:lightgrey;" points="12,314 714,314 714,12 12,12 12,314"/>
<text text-anchor="middle" x="363" y="27">SELECT Query 18: Complex</text>
</g>
<g id="graph3" class="cluster"><title>clusterQU18sub</title>
<polygon style="fill:white;stroke:white;" points="434,242 706,242 706,44 434,44 434,242"/>
<text text-anchor="middle" x="570" y="59">Sub queries</text>
</g>
<g id="graph4" class="cluster"><title>clusterQU19</title>
<polygon style="fill:lightgrey;stroke:lightgrey;" points="442,234 698,234 698,76 442,76 442,234"/>
<text text-anchor="middle" x="570" y="91">SELECT Query 19: </text>
</g>
<!-- QU19:T1 -->
<g id="node4" class="node"><title>QU19:T1</title>
<polygon style="fill:orange;stroke:black;" points="607,190 533,190 533,226 607,226 607,190"/>
<text text-anchor="middle" x="570" y="210" style="font-size:7.20pt;">customers (t1)</text>
</g>
<!-- QU19:QF5 -->
<g id="node5" class="node"><title>QU19:QF5</title>
<polygon style="fill:#00c0ff;stroke:black;" points="588,146 691,146 691,108 588,108 588,146"/>
<text text-anchor="middle" x="639" y="120" style="font-size:7.20pt;">f1 (id)</text>
<polyline style="fill:none;stroke:black;" points="588,127 691,127 "/>
<text text-anchor="middle" x="607" y="139" style="font-size:7.20pt;">Field</text>
<polyline style="fill:none;stroke:black;" points="626,146 626,127 "/>
<text text-anchor="middle" x="638" y="139" style="font-size:7.20pt;">V</text>
<polyline style="fill:none;stroke:black;" points="651,146 651,127 "/>
<text text-anchor="middle" x="661" y="139" style="font-size:7.20pt;">&#45;</text>
<polyline style="fill:none;stroke:black;" points="671,146 671,127 "/>
<text text-anchor="middle" x="681" y="139" style="font-size:7.20pt;">&#45;</text>
</g>
<!-- QU19:QF5&#45;&gt;QU19:T1 -->
<g id="edge5" class="edge"><title>QU19:QF5&#45;&gt;QU19:T1</title>
<path style="fill:none;stroke:black;" d="M623,146C613,157 602,170 592,182"/>
<polygon style="fill:black;stroke:black;" points="594,185 585,190 589,180 594,185"/>
</g>
<!-- QU19:QF6 -->
<g id="node6" class="node"><title>QU19:QF6</title>
<polygon style="fill:#00c0ff;stroke:black;" points="450,146 553,146 553,108 450,108 450,146"/>
<text text-anchor="middle" x="501" y="120" style="font-size:7.20pt;">f2 (name)</text>
<polyline style="fill:none;stroke:black;" points="450,127 553,127 "/>
<text text-anchor="middle" x="469" y="139" style="font-size:7.20pt;">Field</text>
<polyline style="fill:none;stroke:black;" points="488,146 488,127 "/>
<text text-anchor="middle" x="500" y="139" style="font-size:7.20pt;">V</text>
<polyline style="fill:none;stroke:black;" points="513,146 513,127 "/>
<text text-anchor="middle" x="523" y="139" style="font-size:7.20pt;">&#45;</text>
<polyline style="fill:none;stroke:black;" points="533,146 533,127 "/>
<text text-anchor="middle" x="543" y="139" style="font-size:7.20pt;">&#45;</text>
</g>
<!-- QU19:QF6&#45;&gt;QU19:T1 -->
<g id="edge7" class="edge"><title>QU19:QF6&#45;&gt;QU19:T1</title>
<path style="fill:none;stroke:black;" d="M517,146C527,157 538,170 548,182"/>
<polygon style="fill:black;stroke:black;" points="551,180 555,190 546,185 551,180"/>
</g>
<!-- QU18:T1 -->
<g id="node9" class="node"><title>QU18:T1</title>
<polygon style="fill:orange;stroke:black;" points="248,270 194,270 194,306 248,306 248,270"/>
<text text-anchor="middle" x="221" y="291"> (t1)</text>
</g>
<!-- QU18:QF7 -->
<g id="node10" class="node"><title>QU18:QF7</title>
<polygon style="fill:#00c0ff;stroke:black;" points="312,232 427,232 427,184 312,184 312,232"/>
<text text-anchor="middle" x="369" y="199">f2</text>
<polyline style="fill:none;stroke:black;" points="312,208 427,208 "/>
<text text-anchor="middle" x="334" y="223">Field</text>
<polyline style="fill:none;stroke:black;" points="357,232 357,208 "/>
<text text-anchor="middle" x="371" y="223">V</text>
<polyline style="fill:none;stroke:black;" points="385,232 385,208 "/>
<text text-anchor="middle" x="395" y="223">&#45;</text>
<polyline style="fill:none;stroke:black;" points="406,232 406,208 "/>
<text text-anchor="middle" x="416" y="223">&#45;</text>
</g>
<!-- QU18:QF7&#45;&gt;QU18:T1 -->
<g id="edge9" class="edge"><title>QU18:QF7&#45;&gt;QU18:T1</title>
<path style="fill:none;stroke:black;" d="M325,232C303,244 278,258 257,268"/>
<polygon style="fill:black;stroke:black;" points="258,271 248,273 255,265 258,271"/>
</g>
<!-- QU18:QF8 -->
<g id="node11" class="node"><title>QU18:QF8</title>
<polygon style="fill:#00c0ff;stroke:black;" points="20,232 128,232 128,184 20,184 20,232"/>
<text text-anchor="middle" x="74" y="199">f1</text>
<polyline style="fill:none;stroke:black;" points="20,208 128,208 "/>
<text text-anchor="middle" x="42" y="223">Field</text>
<polyline style="fill:none;stroke:black;" points="65,232 65,208 "/>
<text text-anchor="middle" x="75" y="223">&#45;</text>
<polyline style="fill:none;stroke:black;" points="86,232 86,208 "/>
<text text-anchor="middle" x="96" y="223">&#45;</text>
<polyline style="fill:none;stroke:black;" points="107,232 107,208 "/>
<text text-anchor="middle" x="117" y="223">&#45;</text>
</g>
<!-- QU18:QF8&#45;&gt;QU18:T1 -->
<g id="edge11" class="edge"><title>QU18:QF8&#45;&gt;QU18:T1</title>
<path style="fill:none;stroke:black;" d="M118,232C140,244 165,258 185,268"/>
<polygon style="fill:black;stroke:black;" points="187,265 194,273 184,271 187,265"/>
</g>
<!-- QU18:QF9 -->
<g id="node12" class="node"><title>QU18:QF9</title>
<polygon style="fill:#00c0ff;stroke:black;" points="164,232 277,232 277,184 164,184 164,232"/>
<text text-anchor="middle" x="220" y="199">(2)</text>
<polyline style="fill:none;stroke:black;" points="164,208 277,208 "/>
<text text-anchor="middle" x="189" y="223">Value</text>
<polyline style="fill:none;stroke:black;" points="214,232 214,208 "/>
<text text-anchor="middle" x="224" y="223">&#45;</text>
<polyline style="fill:none;stroke:black;" points="235,232 235,208 "/>
<text text-anchor="middle" x="245" y="223">&#45;</text>
<polyline style="fill:none;stroke:black;" points="256,232 256,208 "/>
<text text-anchor="middle" x="266" y="223">&#45;</text>
</g>
<!-- QU18:Cond -->
<g id="node15" class="node"><title>QU18:Cond</title>
<polygon style="fill:yellow;stroke:black;" points="176,109 118,109 118,145 176,145 176,109"/>
<text text-anchor="middle" x="147" y="130">t1.f1=2</text>
</g>
<!-- QU18:Cond&#45;&gt;QU18:QF8 -->
<g id="edge13" class="edge"><title>QU18:Cond&#45;&gt;QU18:QF8</title>
<path style="fill:none;stroke:black;" d="M130,145C122,155 112,166 102,177"/>
<polygon style="fill:black;stroke:black;" points="105,179 95,184 100,174 105,179"/>
</g>
<!-- QU18:Cond&#45;&gt;QU18:QF9 -->
<g id="edge15" class="edge"><title>QU18:Cond&#45;&gt;QU18:QF9</title>
<path style="fill:none;stroke:black;" d="M164,145C172,155 182,166 192,177"/>
<polygon style="fill:black;stroke:black;" points="194,174 199,184 189,179 194,174"/>
</g>
</g>
</svg>
