<?xml version="1.0" encoding="UTF-8" standalone="no"?>
<!DOCTYPE svg PUBLIC "-//W3C//DTD SVG 1.0//EN"
 "http://www.w3.org/TR/2001/REC-SVG-20010904/DTD/svg10.dtd" [
 <!ATTLIST svg xmlns:xlink CDATA #FIXED "http://www.w3.org/1999/xlink">
]>
<!-- Generated by dot version 2.9.20060516.0440 (Wed May 17 13:07:24 UTC 2006)
     For user: (vmalerba) MALERBA Vivien STNA 7FD M201 p5713 -->
<!-- Title: G Pages: 1 -->
<svg width="432pt" height="206pt"
 viewBox = "0 0 432 206"
 xmlns="http://www.w3.org/2000/svg" xmlns:xlink="http://www.w3.org/1999/xlink">
<g id="graph0" class="graph" style="font-family:Times-Roman;font-size:10.08pt;">
<title>G</title>
<polygon style="fill:white;stroke:white;" points="-2,208 -2,-2 434,-2 434,208 -2,208"/>
<g id="graph2" class="cluster"><title>clusterQU7</title>
<polygon style="fill:lightgrey;stroke:lightgrey;" points="12,186 420,186 420,12 12,12 12,186"/>
<text text-anchor="middle" x="216" y="27">INSERT Query 7: Insert1</text>
</g>
<!-- QU7:T1 -->
<g id="node2" class="node"><title>QU7:T1</title>
<polygon style="fill:orange;stroke:black;" points="264,136 168,136 168,172 264,172 264,136"/>
<text text-anchor="middle" x="216" y="157">customers (t1)</text>
</g>
<!-- QU7:QF1 -->
<g id="node3" class="node"><title>QU7:QF1</title>
<polygon style="fill:#00c0ff;stroke:black;" points="266,92 381,92 381,44 266,44 266,92"/>
<text text-anchor="middle" x="323" y="59">id</text>
<polyline style="fill:none;stroke:black;" points="266,68 381,68 "/>
<text text-anchor="middle" x="288" y="83">Field</text>
<polyline style="fill:none;stroke:black;" points="311,92 311,68 "/>
<text text-anchor="middle" x="325" y="83">V</text>
<polyline style="fill:none;stroke:black;" points="339,92 339,68 "/>
<text text-anchor="middle" x="349" y="83">&#45;</text>
<polyline style="fill:none;stroke:black;" points="360,92 360,68 "/>
<text text-anchor="middle" x="370" y="83">&#45;</text>
</g>
<!-- QU7:QF1&#45;&gt;QU7:T1 -->
<g id="edge3" class="edge"><title>QU7:QF1&#45;&gt;QU7:T1</title>
<path style="fill:none;stroke:black;" d="M293,92C279,104 261,118 247,129"/>
<polygon style="fill:black;stroke:black;" points="249,132 239,136 244,127 249,132"/>
</g>
<!-- QU7:QF3 -->
<g id="node5" class="node"><title>QU7:QF3</title>
<polygon style="fill:#00c0ff;stroke:black;" points="300,178 413,178 413,130 300,130 300,178"/>
<text text-anchor="middle" x="356" y="145">(10)</text>
<polyline style="fill:none;stroke:black;" points="300,154 413,154 "/>
<text text-anchor="middle" x="325" y="169">Value</text>
<polyline style="fill:none;stroke:black;" points="350,178 350,154 "/>
<text text-anchor="middle" x="360" y="169">&#45;</text>
<polyline style="fill:none;stroke:black;" points="371,178 371,154 "/>
<text text-anchor="middle" x="381" y="169">&#45;</text>
<polyline style="fill:none;stroke:black;" points="392,178 392,154 "/>
<text text-anchor="middle" x="402" y="169">&#45;</text>
</g>
<!-- QU7:QF1&#45;&gt;QU7:QF3 -->
<g id="edge5" class="edge"><title>QU7:QF1&#45;&gt;QU7:QF3</title>
<path style="fill:none;stroke:black;stroke-dasharray:1,5;" d="M332,92C336,101 340,111 343,121"/>
<polygon style="fill:black;stroke:black;" points="346,119 347,130 340,122 346,119"/>
</g>
<!-- QU7:QF2 -->
<g id="node4" class="node"><title>QU7:QF2</title>
<polygon style="fill:#00c0ff;stroke:black;" points="84,92 199,92 199,44 84,44 84,92"/>
<text text-anchor="middle" x="141" y="59">name</text>
<polyline style="fill:none;stroke:black;" points="84,68 199,68 "/>
<text text-anchor="middle" x="106" y="83">Field</text>
<polyline style="fill:none;stroke:black;" points="129,92 129,68 "/>
<text text-anchor="middle" x="143" y="83">V</text>
<polyline style="fill:none;stroke:black;" points="157,92 157,68 "/>
<text text-anchor="middle" x="167" y="83">&#45;</text>
<polyline style="fill:none;stroke:black;" points="178,92 178,68 "/>
<text text-anchor="middle" x="188" y="83">&#45;</text>
</g>
<!-- QU7:QF2&#45;&gt;QU7:T1 -->
<g id="edge7" class="edge"><title>QU7:QF2&#45;&gt;QU7:T1</title>
<path style="fill:none;stroke:black;" d="M162,92C172,103 183,117 193,128"/>
<polygon style="fill:black;stroke:black;" points="196,126 200,136 191,131 196,126"/>
</g>
<!-- QU7:QF4 -->
<g id="node6" class="node"><title>QU7:QF4</title>
<polygon style="fill:#00c0ff;stroke:black;" points="20,178 133,178 133,130 20,130 20,178"/>
<text text-anchor="middle" x="76" y="145">(john)</text>
<polyline style="fill:none;stroke:black;" points="20,154 133,154 "/>
<text text-anchor="middle" x="45" y="169">Value</text>
<polyline style="fill:none;stroke:black;" points="70,178 70,154 "/>
<text text-anchor="middle" x="80" y="169">&#45;</text>
<polyline style="fill:none;stroke:black;" points="91,178 91,154 "/>
<text text-anchor="middle" x="101" y="169">&#45;</text>
<polyline style="fill:none;stroke:black;" points="112,178 112,154 "/>
<text text-anchor="middle" x="122" y="169">&#45;</text>
</g>
<!-- QU7:QF2&#45;&gt;QU7:QF4 -->
<g id="edge9" class="edge"><title>QU7:QF2&#45;&gt;QU7:QF4</title>
<path style="fill:none;stroke:black;stroke-dasharray:1,5;" d="M123,92C116,101 108,112 100,122"/>
<polygon style="fill:black;stroke:black;" points="103,124 94,130 97,120 103,124"/>
</g>
</g>
</svg>
