<?xml version="1.0" encoding="UTF-8" standalone="no"?>
<!DOCTYPE svg PUBLIC "-//W3C//DTD SVG 1.0//EN"
 "http://www.w3.org/TR/2001/REC-SVG-20010904/DTD/svg10.dtd" [
 <!ATTLIST svg xmlns:xlink CDATA #FIXED "http://www.w3.org/1999/xlink">
]>
<!-- Generated by Graphviz version 2.12 (Mon Apr 23 09:57:53 UTC 2007)
     For user:  -->
<!-- Title: G Pages: 1 -->
<svg width="3.81in" height="9.01in"
 xmlns="http://www.w3.org/2000/svg" xmlns:xlink="http://www.w3.org/1999/xlink">
<g id="graph0" class="graph" transform="scale(1.33333 1.33333) rotate(0) translate(4 645)">
<title>G</title>
<polygon style="fill:white;stroke:white;" points="-4,4 -4,-645 271,-645 271,4 -4,4"/>
<text text-anchor="middle" x="133" y="-7" style="font-family:Nimbus Roman No9 L;font-weight:regular;font-size:11.34pt;">a string;</text>
<!-- GdaSqlStatement -->
<g id="node1" class="node"><title>GdaSqlStatement</title>
<polygon style="fill:none;stroke:black;" points="156.802,-614.074 156.802,-629.926 117.67,-641.134 62.3297,-641.134 23.1979,-629.926 23.1979,-614.074 62.3297,-602.866 117.67,-602.866 156.802,-614.074"/>
<text text-anchor="middle" x="90" y="-617" style="font-family:Nimbus Roman No9 L;font-weight:regular;font-size:11.34pt;">GdaSqlStatement</text>
</g>
<!-- node0x8ec4740 -->
<g id="node3" class="node"><title>node0x8ec4740</title>
<text text-anchor="middle" x="90" y="-526.333" style="font-family:Nimbus Roman No9 L;font-weight:regular;font-size:11.34pt;">GdaSqlStatementUnknown</text>
<polygon style="fill:none;stroke:black;" points="8,-519 8,-543 172,-543 172,-519 8,-519"/>
</g>
<!-- GdaSqlStatement&#45;&gt;node0x8ec4740 -->
<g id="edge2" class="edge"><title>GdaSqlStatement&#45;&gt;node0x8ec4740</title>
<path style="fill:none;stroke:black;" d="M90,-603C90,-590 90,-574 90,-559"/>
<polygon style="fill:black;stroke:black;" points="93.5001,-559 90,-549 86.5001,-559 93.5001,-559"/>
<a xlink:title="contents">
</a>
<a xlink:title="contents">
</a>
<text text-anchor="middle" x="113" y="-571" style="font-family:Nimbus Roman No9 L;font-weight:regular;font-size:11.34pt;">contents</text>
</g>
<!-- list0x8ec22b8 -->
<g id="node7" class="node"><title>list0x8ec22b8</title>
<polygon style="fill:none;stroke:gray;" points="63,-430.248 90,-415.149 117,-430.248 116.975,-454.678 63.0252,-454.678 63,-430.248"/>
<text text-anchor="middle" x="90" y="-432" style="font-family:Nimbus Roman No9 L;font-weight:regular;font-size:11.34pt;fill:gray;">N0</text>
</g>
<!-- node0x8ec4740&#45;&gt;list0x8ec22b8 -->
<g id="edge6" class="edge"><title>node0x8ec4740&#45;&gt;list0x8ec22b8</title>
<path style="fill:none;stroke:black;" d="M90,-513C90,-499 90,-481 90,-465"/>
<polygon style="fill:black;stroke:black;" points="93.5001,-465 90,-455 86.5001,-465 93.5001,-465"/>
<a xlink:title="expressions">
</a>
<a xlink:title="expressions">
</a>
<text text-anchor="middle" x="122" y="-481" style="font-family:Nimbus Roman No9 L;font-weight:regular;font-size:11.34pt;">expressions</text>
</g>
<!-- node0x8ec4c58 -->
<g id="node4" class="node"><title>node0x8ec4c58</title>
<text text-anchor="middle" x="54" y="-340.333" style="font-family:Nimbus Roman No9 L;font-weight:regular;font-size:11.34pt;">GdaSqlExpr</text>
<polygon style="fill:none;stroke:black;" points="9,-332 9,-357 99,-357 99,-332 9,-332"/>
<text text-anchor="start" x="14" y="-315.333" style="font-family:Nimbus Roman No9 L;font-weight:regular;font-size:11.34pt;">value=a</text>
<text text-anchor="start" x="14" y="-298.533" style="font-family:Nimbus Roman No9 L;font-weight:regular;font-size:11.34pt;">cast_as=(null)</text>
<polygon style="fill:none;stroke:black;" points="9,-289 9,-332 99,-332 99,-289 9,-289"/>
</g>
<!-- node0x8ec4c18 -->
<g id="node5" class="node"><title>node0x8ec4c18</title>
<text text-anchor="middle" x="116" y="-210.333" style="font-family:Nimbus Roman No9 L;font-weight:regular;font-size:11.34pt;">GdaSqlExpr</text>
<polygon style="fill:none;stroke:black;" points="71,-202 71,-227 161,-227 161,-202 71,-202"/>
<text text-anchor="start" x="76" y="-185.333" style="font-family:Nimbus Roman No9 L;font-weight:regular;font-size:11.34pt;">value= </text>
<text text-anchor="start" x="76" y="-168.533" style="font-family:Nimbus Roman No9 L;font-weight:regular;font-size:11.34pt;">cast_as=(null)</text>
<polygon style="fill:none;stroke:black;" points="71,-159 71,-202 161,-202 161,-159 71,-159"/>
</g>
<!-- node0x8ec47c8 -->
<g id="node6" class="node"><title>node0x8ec47c8</title>
<text text-anchor="middle" x="214" y="-80.3333" style="font-family:Nimbus Roman No9 L;font-weight:regular;font-size:11.34pt;">GdaSqlExpr</text>
<polygon style="fill:none;stroke:black;" points="169,-72 169,-97 259,-97 259,-72 169,-72"/>
<text text-anchor="start" x="174" y="-55.3333" style="font-family:Nimbus Roman No9 L;font-weight:regular;font-size:11.34pt;">value=string</text>
<text text-anchor="start" x="174" y="-38.5333" style="font-family:Nimbus Roman No9 L;font-weight:regular;font-size:11.34pt;">cast_as=(null)</text>
<polygon style="fill:none;stroke:black;" points="169,-29 169,-72 259,-72 259,-29 169,-29"/>
</g>
<!-- list0x8ec22b8&#45;&gt;node0x8ec4c58 -->
<g id="edge4" class="edge"><title>list0x8ec22b8&#45;&gt;node0x8ec4c58</title>
<path style="fill:none;stroke:gray;" d="M84,-418C80,-405 74,-387 69,-371"/>
<polygon style="fill:gray;stroke:gray;" points="72.2259,-369.573 66,-361 65.5212,-371.584 72.2259,-369.573"/>
<a xlink:title="data">
</a>
<a xlink:title="data">
</a>
<text text-anchor="middle" x="87" y="-383" style="font-family:Nimbus Roman No9 L;font-weight:regular;font-size:11.34pt;fill:gray;">data</text>
</g>
<!-- list0x8ec22c0 -->
<g id="node10" class="node"><title>list0x8ec22c0</title>
<polygon style="fill:none;stroke:gray;" points="125,-316.248 152,-301.149 179,-316.248 178.975,-340.678 125.025,-340.678 125,-316.248"/>
<text text-anchor="middle" x="152" y="-318" style="font-family:Nimbus Roman No9 L;font-weight:regular;font-size:11.34pt;fill:gray;">N1</text>
</g>
<!-- list0x8ec22b8&#45;&gt;list0x8ec22c0 -->
<g id="edge10" class="edge"><title>list0x8ec22b8&#45;&gt;list0x8ec22c0</title>
<path style="fill:none;stroke:gray;" d="M99,-420C109,-402 125,-372 137,-350"/>
<polygon style="fill:gray;stroke:gray;" points="140.203,-351.441 142,-341 134.084,-348.042 140.203,-351.441"/>
<a xlink:title="next">
</a>
<a xlink:title="next">
</a>
<text text-anchor="middle" x="132" y="-383" style="font-family:Nimbus Roman No9 L;font-weight:regular;font-size:11.34pt;fill:gray;">next</text>
</g>
<!-- list0x8ec22c0&#45;&gt;node0x8ec4c18 -->
<g id="edge8" class="edge"><title>list0x8ec22c0&#45;&gt;node0x8ec4c18</title>
<path style="fill:none;stroke:gray;" d="M147,-304C143,-288 135,-263 130,-241"/>
<polygon style="fill:gray;stroke:gray;" points="133.226,-239.573 127,-231 126.521,-241.584 133.226,-239.573"/>
<a xlink:title="data">
</a>
<a xlink:title="data">
</a>
<text text-anchor="middle" x="146" y="-253" style="font-family:Nimbus Roman No9 L;font-weight:regular;font-size:11.34pt;fill:gray;">data</text>
</g>
<!-- list0x8ec22c8 -->
<g id="node13" class="node"><title>list0x8ec22c8</title>
<polygon style="fill:none;stroke:gray;" points="187,-186.248 214,-171.149 241,-186.248 240.975,-210.678 187.025,-210.678 187,-186.248"/>
<text text-anchor="middle" x="214" y="-188" style="font-family:Nimbus Roman No9 L;font-weight:regular;font-size:11.34pt;fill:gray;">N2</text>
</g>
<!-- list0x8ec22c0&#45;&gt;list0x8ec22c8 -->
<g id="edge14" class="edge"><title>list0x8ec22c0&#45;&gt;list0x8ec22c8</title>
<path style="fill:none;stroke:gray;" d="M160,-306C171,-284 189,-246 202,-220"/>
<polygon style="fill:gray;stroke:gray;" points="205.137,-221.56 206,-211 198.74,-218.717 205.137,-221.56"/>
<a xlink:title="next">
</a>
<a xlink:title="next">
</a>
<text text-anchor="middle" x="197" y="-253" style="font-family:Nimbus Roman No9 L;font-weight:regular;font-size:11.34pt;fill:gray;">next</text>
</g>
<!-- list0x8ec22c8&#45;&gt;node0x8ec47c8 -->
<g id="edge12" class="edge"><title>list0x8ec22c8&#45;&gt;node0x8ec47c8</title>
<path style="fill:none;stroke:gray;" d="M214,-171C214,-155 214,-132 214,-111"/>
<polygon style="fill:gray;stroke:gray;" points="217.5,-111 214,-101 210.5,-111 217.5,-111"/>
<a xlink:title="data">
</a>
<a xlink:title="data">
</a>
<text text-anchor="middle" x="225" y="-123" style="font-family:Nimbus Roman No9 L;font-weight:regular;font-size:11.34pt;fill:gray;">data</text>
</g>
</g>
</svg>
