<?xml version="1.0" encoding="UTF-8" standalone="no"?>
<!DOCTYPE svg PUBLIC "-//W3C//DTD SVG 1.0//EN"
 "http://www.w3.org/TR/2001/REC-SVG-20010904/DTD/svg10.dtd" [
 <!ATTLIST svg xmlns:xlink CDATA #FIXED "http://www.w3.org/1999/xlink">
]>
<!-- Generated by Graphviz version 2.12 (Mon Apr 23 09:57:53 UTC 2007)
     For user:  -->
<!-- Title: G Pages: 1 -->
<svg width="9.01in" height="9.73in"
 xmlns="http://www.w3.org/2000/svg" xmlns:xlink="http://www.w3.org/1999/xlink">
<g id="graph0" class="graph" transform="scale(1.33333 1.33333) rotate(0) translate(4 697)">
<title>G</title>
<polygon style="fill:white;stroke:white;" points="-4,4 -4,-697 645,-697 645,4 -4,4"/>
<text text-anchor="middle" x="320" y="-7" style="font-family:Nimbus Roman No9 L;font-weight:regular;font-size:11.34pt;">update mytable set a=10, c=now() where c is not null;</text>
<!-- GdaSqlStatement -->
<g id="node1" class="node"><title>GdaSqlStatement</title>
<polygon style="fill:none;stroke:black;" points="330.802,-666.074 330.802,-681.926 291.67,-693.134 236.33,-693.134 197.198,-681.926 197.198,-666.074 236.33,-654.866 291.67,-654.866 330.802,-666.074"/>
<text text-anchor="middle" x="264" y="-669" style="font-family:Nimbus Roman No9 L;font-weight:regular;font-size:11.34pt;">GdaSqlStatement</text>
</g>
<!-- node0x8dfc540 -->
<g id="node3" class="node"><title>node0x8dfc540</title>
<text text-anchor="middle" x="264" y="-580.333" style="font-family:Nimbus Roman No9 L;font-weight:regular;font-size:11.34pt;">GdaSqlStatementUpdate</text>
<polygon style="fill:none;stroke:black;" points="190,-573 190,-597 338,-597 338,-573 190,-573"/>
<text text-anchor="start" x="212" y="-556.333" style="font-family:Nimbus Roman No9 L;font-weight:regular;font-size:11.34pt;">on_conflict=(null)</text>
<polygon style="fill:none;stroke:black;" points="190,-549 190,-573 338,-573 338,-549 190,-549"/>
</g>
<!-- GdaSqlStatement&#45;&gt;node0x8dfc540 -->
<g id="edge2" class="edge"><title>GdaSqlStatement&#45;&gt;node0x8dfc540</title>
<path style="fill:none;stroke:black;" d="M264,-655C264,-643 264,-626 264,-611"/>
<polygon style="fill:black;stroke:black;" points="267.5,-611 264,-601 260.5,-611 267.5,-611"/>
<a xlink:title="contents">
</a>
<a xlink:title="contents">
</a>
<text text-anchor="middle" x="287" y="-623" style="font-family:Nimbus Roman No9 L;font-weight:regular;font-size:11.34pt;">contents</text>
</g>
<!-- node0x8dfc248 -->
<g id="node4" class="node"><title>node0x8dfc248</title>
<text text-anchor="middle" x="72" y="-460.333" style="font-family:Nimbus Roman No9 L;font-weight:regular;font-size:11.34pt;">GdaSqlTable</text>
<polygon style="fill:none;stroke:black;" points="8,-453 8,-477 136,-477 136,-453 8,-453"/>
<text text-anchor="start" x="13" y="-436.333" style="font-family:Nimbus Roman No9 L;font-weight:regular;font-size:11.34pt;">table_name=mytable</text>
<polygon style="fill:none;stroke:black;" points="8,-429 8,-453 136,-453 136,-429 8,-429"/>
</g>
<!-- node0x8dfc540&#45;&gt;node0x8dfc248 -->
<g id="edge12" class="edge"><title>node0x8dfc540&#45;&gt;node0x8dfc248</title>
<path style="fill:none;stroke:black;" d="M219,-545C191,-528 155,-505 126,-486"/>
<polygon style="fill:black;stroke:black;" points="127.441,-482.797 117,-481 124.042,-488.916 127.441,-482.797"/>
<a xlink:title="table">
</a>
<a xlink:title="table">
</a>
<text text-anchor="middle" x="206" y="-513" style="font-family:Nimbus Roman No9 L;font-weight:regular;font-size:11.34pt;">table</text>
</g>
<!-- node0x8dfd568 -->
<g id="node16" class="node"><title>node0x8dfd568</title>
<text text-anchor="middle" x="215" y="-470.333" style="font-family:Nimbus Roman No9 L;font-weight:regular;font-size:11.34pt;">GdaSqlExpr</text>
<polygon style="fill:none;stroke:black;" points="170,-462 170,-487 260,-487 260,-462 170,-462"/>
<text text-anchor="start" x="175" y="-445.333" style="font-family:Nimbus Roman No9 L;font-weight:regular;font-size:11.34pt;">value=(null)</text>
<text text-anchor="start" x="175" y="-428.533" style="font-family:Nimbus Roman No9 L;font-weight:regular;font-size:11.34pt;">cast_as=(null)</text>
<polygon style="fill:none;stroke:black;" points="170,-419 170,-462 260,-462 260,-419 170,-419"/>
</g>
<!-- node0x8dfc540&#45;&gt;node0x8dfd568 -->
<g id="edge30" class="edge"><title>node0x8dfc540&#45;&gt;node0x8dfd568</title>
<path style="fill:none;stroke:black;" d="M253,-545C247,-532 241,-516 235,-500"/>
<polygon style="fill:black;stroke:black;" points="238.26,-498.717 231,-491 231.863,-501.56 238.26,-498.717"/>
<a xlink:title="cond">
</a>
<a xlink:title="cond">
</a>
<text text-anchor="middle" x="260" y="-513" style="font-family:Nimbus Roman No9 L;font-weight:regular;font-size:11.34pt;">cond</text>
</g>
<!-- list0x8df93d8 -->
<g id="node19" class="node"><title>list0x8df93d8</title>
<polygon style="fill:none;stroke:gray;" points="286,-446.248 313,-431.149 340,-446.248 339.975,-470.678 286.025,-470.678 286,-446.248"/>
<text text-anchor="middle" x="313" y="-448" style="font-family:Nimbus Roman No9 L;font-weight:regular;font-size:11.34pt;fill:gray;">N0</text>
</g>
<!-- node0x8dfc540&#45;&gt;list0x8df93d8 -->
<g id="edge16" class="edge"><title>node0x8dfc540&#45;&gt;list0x8df93d8</title>
<path style="fill:none;stroke:black;" d="M275,-545C284,-525 294,-499 302,-480"/>
<polygon style="fill:black;stroke:black;" points="305.137,-481.56 306,-471 298.74,-478.717 305.137,-481.56"/>
<a xlink:title="fields_list">
</a>
<a xlink:title="fields_list">
</a>
<text text-anchor="middle" x="317" y="-513" style="font-family:Nimbus Roman No9 L;font-weight:regular;font-size:11.34pt;">fields_list</text>
</g>
<!-- list0x8df92a0 -->
<g id="node25" class="node"><title>list0x8df92a0</title>
<polygon style="fill:none;stroke:gray;" points="445,-446.248 472,-431.149 499,-446.248 498.975,-470.678 445.025,-470.678 445,-446.248"/>
<text text-anchor="middle" x="472" y="-448" style="font-family:Nimbus Roman No9 L;font-weight:regular;font-size:11.34pt;fill:gray;">N0</text>
</g>
<!-- node0x8dfc540&#45;&gt;list0x8df92a0 -->
<g id="edge24" class="edge"><title>node0x8dfc540&#45;&gt;list0x8df92a0</title>
<path style="fill:none;stroke:black;" d="M317,-545C327,-539 338,-533 348,-527 377,-510 412,-490 436,-474"/>
<polygon style="fill:black;stroke:black;" points="437.958,-476.916 445,-469 434.559,-470.797 437.958,-476.916"/>
<a xlink:title="expr_list">
</a>
<a xlink:title="expr_list">
</a>
<text text-anchor="middle" x="400" y="-513" style="font-family:Nimbus Roman No9 L;font-weight:regular;font-size:11.34pt;">expr_list</text>
</g>
<!-- node0x8dfd2f8 -->
<g id="node5" class="node"><title>node0x8dfd2f8</title>
<text text-anchor="middle" x="277" y="-330.333" style="font-family:Nimbus Roman No9 L;font-weight:regular;font-size:11.34pt;">GdaSqlField</text>
<polygon style="fill:none;stroke:black;" points="233,-323 233,-347 321,-347 321,-323 233,-323"/>
<text text-anchor="start" x="238" y="-306.333" style="font-family:Nimbus Roman No9 L;font-weight:regular;font-size:11.34pt;">field_name=a</text>
<polygon style="fill:none;stroke:black;" points="233,-299 233,-323 321,-323 321,-299 233,-299"/>
</g>
<!-- node0x8dfa1b0 -->
<g id="node6" class="node"><title>node0x8dfa1b0</title>
<text text-anchor="middle" x="374" y="-200.333" style="font-family:Nimbus Roman No9 L;font-weight:regular;font-size:11.34pt;">GdaSqlField</text>
<polygon style="fill:none;stroke:black;" points="330,-193 330,-217 418,-217 418,-193 330,-193"/>
<text text-anchor="start" x="335" y="-176.333" style="font-family:Nimbus Roman No9 L;font-weight:regular;font-size:11.34pt;">field_name=c</text>
<polygon style="fill:none;stroke:black;" points="330,-169 330,-193 418,-193 418,-169 330,-169"/>
</g>
<!-- node0x8dfbf20 -->
<g id="node7" class="node"><title>node0x8dfbf20</title>
<text text-anchor="middle" x="472" y="-340.333" style="font-family:Nimbus Roman No9 L;font-weight:regular;font-size:11.34pt;">GdaSqlExpr</text>
<polygon style="fill:none;stroke:black;" points="427,-332 427,-357 517,-357 517,-332 427,-332"/>
<text text-anchor="start" x="432" y="-315.333" style="font-family:Nimbus Roman No9 L;font-weight:regular;font-size:11.34pt;">value=10</text>
<text text-anchor="start" x="432" y="-298.533" style="font-family:Nimbus Roman No9 L;font-weight:regular;font-size:11.34pt;">cast_as=(null)</text>
<polygon style="fill:none;stroke:black;" points="427,-289 427,-332 517,-332 517,-289 427,-289"/>
</g>
<!-- node0x8dfd5b8 -->
<g id="node8" class="node"><title>node0x8dfd5b8</title>
<text text-anchor="middle" x="570" y="-70.3333" style="font-family:Nimbus Roman No9 L;font-weight:regular;font-size:11.34pt;">GdaSqlFunction</text>
<polygon style="fill:none;stroke:black;" points="507,-63 507,-87 633,-87 633,-63 507,-63"/>
<text text-anchor="start" x="512" y="-46.3333" style="font-family:Nimbus Roman No9 L;font-weight:regular;font-size:11.34pt;">function_name=now</text>
<polygon style="fill:none;stroke:black;" points="507,-39 507,-63 633,-63 633,-39 507,-39"/>
</g>
<!-- node0x8dfbc88 -->
<g id="node9" class="node"><title>node0x8dfbc88</title>
<text text-anchor="middle" x="570" y="-210.333" style="font-family:Nimbus Roman No9 L;font-weight:regular;font-size:11.34pt;">GdaSqlExpr</text>
<polygon style="fill:none;stroke:black;" points="525,-202 525,-227 615,-227 615,-202 525,-202"/>
<text text-anchor="start" x="530" y="-185.333" style="font-family:Nimbus Roman No9 L;font-weight:regular;font-size:11.34pt;">value=(null)</text>
<text text-anchor="start" x="530" y="-168.533" style="font-family:Nimbus Roman No9 L;font-weight:regular;font-size:11.34pt;">cast_as=(null)</text>
<polygon style="fill:none;stroke:black;" points="525,-159 525,-202 615,-202 615,-159 525,-159"/>
</g>
<!-- node0x8dfbc88&#45;&gt;node0x8dfd5b8 -->
<g id="edge4" class="edge"><title>node0x8dfbc88&#45;&gt;node0x8dfd5b8</title>
<path style="fill:none;stroke:black;" d="M570,-155C570,-138 570,-118 570,-101"/>
<polygon style="fill:black;stroke:black;" points="573.5,-101 570,-91 566.5,-101 573.5,-101"/>
<a xlink:title="func">
</a>
<a xlink:title="func">
</a>
<text text-anchor="middle" x="582" y="-123" style="font-family:Nimbus Roman No9 L;font-weight:regular;font-size:11.34pt;">func</text>
</g>
<!-- node0x8dfd518 -->
<g id="node11" class="node"><title>node0x8dfd518</title>
<text text-anchor="middle" x="122" y="-80.3333" style="font-family:Nimbus Roman No9 L;font-weight:regular;font-size:11.34pt;">GdaSqlExpr</text>
<polygon style="fill:none;stroke:black;" points="77,-72 77,-97 167,-97 167,-72 77,-72"/>
<text text-anchor="start" x="82" y="-55.3333" style="font-family:Nimbus Roman No9 L;font-weight:regular;font-size:11.34pt;">value=c</text>
<text text-anchor="start" x="82" y="-38.5333" style="font-family:Nimbus Roman No9 L;font-weight:regular;font-size:11.34pt;">cast_as=(null)</text>
<polygon style="fill:none;stroke:black;" points="77,-29 77,-72 167,-72 167,-29 77,-29"/>
</g>
<!-- node0x8dfc700 -->
<g id="node12" class="node"><title>node0x8dfc700</title>
<text text-anchor="middle" x="122" y="-330.333" style="font-family:Nimbus Roman No9 L;font-weight:regular;font-size:11.34pt;">GdaSqlOperation</text>
<polygon style="fill:none;stroke:black;" points="45,-323 45,-347 199,-347 199,-323 45,-323"/>
<text text-anchor="start" x="50" y="-306.333" style="font-family:Nimbus Roman No9 L;font-weight:regular;font-size:11.34pt;">operator=IS NOT NULL</text>
<polygon style="fill:none;stroke:black;" points="45,-299 45,-323 199,-323 199,-299 45,-299"/>
</g>
<!-- list0x8df9380 -->
<g id="node13" class="node"><title>list0x8df9380</title>
<polygon style="fill:none;stroke:gray;" points="95,-186.248 122,-171.149 149,-186.248 148.975,-210.678 95.0252,-210.678 95,-186.248"/>
<text text-anchor="middle" x="122" y="-188" style="font-family:Nimbus Roman No9 L;font-weight:regular;font-size:11.34pt;fill:gray;">N0</text>
</g>
<!-- node0x8dfc700&#45;&gt;list0x8df9380 -->
<g id="edge8" class="edge"><title>node0x8dfc700&#45;&gt;list0x8df9380</title>
<path style="fill:none;stroke:black;" d="M122,-295C122,-274 122,-243 122,-221"/>
<polygon style="fill:black;stroke:black;" points="125.5,-221 122,-211 118.5,-221 125.5,-221"/>
<a xlink:title="operands">
</a>
<a xlink:title="operands">
</a>
<text text-anchor="middle" x="147" y="-253" style="font-family:Nimbus Roman No9 L;font-weight:regular;font-size:11.34pt;">operands</text>
</g>
<!-- list0x8df9380&#45;&gt;node0x8dfd518 -->
<g id="edge6" class="edge"><title>list0x8df9380&#45;&gt;node0x8dfd518</title>
<path style="fill:none;stroke:gray;" d="M122,-171C122,-155 122,-132 122,-111"/>
<polygon style="fill:gray;stroke:gray;" points="125.5,-111 122,-101 118.5,-111 125.5,-111"/>
<a xlink:title="data">
</a>
<a xlink:title="data">
</a>
<text text-anchor="middle" x="134" y="-123" style="font-family:Nimbus Roman No9 L;font-weight:regular;font-size:11.34pt;fill:gray;">data</text>
</g>
<!-- node0x8dfd568&#45;&gt;node0x8dfc700 -->
<g id="edge10" class="edge"><title>node0x8dfd568&#45;&gt;node0x8dfc700</title>
<path style="fill:none;stroke:black;" d="M188,-415C175,-397 160,-377 148,-359"/>
<polygon style="fill:black;stroke:black;" points="150.8,-356.9 142,-351 145.2,-361.1 150.8,-356.9"/>
<a xlink:title="cond">
</a>
<a xlink:title="cond">
</a>
<text text-anchor="middle" x="189" y="-383" style="font-family:Nimbus Roman No9 L;font-weight:regular;font-size:11.34pt;">cond</text>
</g>
<!-- list0x8df93d8&#45;&gt;node0x8dfd2f8 -->
<g id="edge14" class="edge"><title>list0x8df93d8&#45;&gt;node0x8dfd2f8</title>
<path style="fill:none;stroke:gray;" d="M308,-434C303,-415 294,-385 288,-361"/>
<polygon style="fill:gray;stroke:gray;" points="291.226,-359.573 285,-351 284.521,-361.584 291.226,-359.573"/>
<a xlink:title="data">
</a>
<a xlink:title="data">
</a>
<text text-anchor="middle" x="310" y="-383" style="font-family:Nimbus Roman No9 L;font-weight:regular;font-size:11.34pt;fill:gray;">data</text>
</g>
<!-- list0x8df9258 -->
<g id="node22" class="node"><title>list0x8df9258</title>
<polygon style="fill:none;stroke:gray;" points="347,-316.248 374,-301.149 401,-316.248 400.975,-340.678 347.025,-340.678 347,-316.248"/>
<text text-anchor="middle" x="374" y="-318" style="font-family:Nimbus Roman No9 L;font-weight:regular;font-size:11.34pt;fill:gray;">N1</text>
</g>
<!-- list0x8df93d8&#45;&gt;list0x8df9258 -->
<g id="edge20" class="edge"><title>list0x8df93d8&#45;&gt;list0x8df9258</title>
<path style="fill:none;stroke:gray;" d="M321,-435C332,-414 349,-376 362,-350"/>
<polygon style="fill:gray;stroke:gray;" points="365.137,-351.56 366,-341 358.74,-348.717 365.137,-351.56"/>
<a xlink:title="next">
</a>
<a xlink:title="next">
</a>
<text text-anchor="middle" x="360" y="-383" style="font-family:Nimbus Roman No9 L;font-weight:regular;font-size:11.34pt;fill:gray;">next</text>
</g>
<!-- list0x8df9258&#45;&gt;node0x8dfa1b0 -->
<g id="edge18" class="edge"><title>list0x8df9258&#45;&gt;node0x8dfa1b0</title>
<path style="fill:none;stroke:gray;" d="M374,-301C374,-282 374,-254 374,-231"/>
<polygon style="fill:gray;stroke:gray;" points="377.5,-231 374,-221 370.5,-231 377.5,-231"/>
<a xlink:title="data">
</a>
<a xlink:title="data">
</a>
<text text-anchor="middle" x="386" y="-253" style="font-family:Nimbus Roman No9 L;font-weight:regular;font-size:11.34pt;fill:gray;">data</text>
</g>
<!-- list0x8df92a0&#45;&gt;node0x8dfbf20 -->
<g id="edge22" class="edge"><title>list0x8df92a0&#45;&gt;node0x8dfbf20</title>
<path style="fill:none;stroke:gray;" d="M472,-431C472,-415 472,-392 472,-371"/>
<polygon style="fill:gray;stroke:gray;" points="475.5,-371 472,-361 468.5,-371 475.5,-371"/>
<a xlink:title="data">
</a>
<a xlink:title="data">
</a>
<text text-anchor="middle" x="483" y="-383" style="font-family:Nimbus Roman No9 L;font-weight:regular;font-size:11.34pt;fill:gray;">data</text>
</g>
<!-- list0x8df9358 -->
<g id="node28" class="node"><title>list0x8df9358</title>
<polygon style="fill:none;stroke:gray;" points="543,-316.248 570,-301.149 597,-316.248 596.975,-340.678 543.025,-340.678 543,-316.248"/>
<text text-anchor="middle" x="570" y="-318" style="font-family:Nimbus Roman No9 L;font-weight:regular;font-size:11.34pt;fill:gray;">N1</text>
</g>
<!-- list0x8df92a0&#45;&gt;list0x8df9358 -->
<g id="edge28" class="edge"><title>list0x8df92a0&#45;&gt;list0x8df9358</title>
<path style="fill:none;stroke:gray;" d="M484,-438C500,-415 530,-376 551,-349"/>
<polygon style="fill:gray;stroke:gray;" points="553.8,-351.1 557,-341 548.2,-346.9 553.8,-351.1"/>
<a xlink:title="next">
</a>
<a xlink:title="next">
</a>
<text text-anchor="middle" x="537" y="-383" style="font-family:Nimbus Roman No9 L;font-weight:regular;font-size:11.34pt;fill:gray;">next</text>
</g>
<!-- list0x8df9358&#45;&gt;node0x8dfbc88 -->
<g id="edge26" class="edge"><title>list0x8df9358&#45;&gt;node0x8dfbc88</title>
<path style="fill:none;stroke:gray;" d="M570,-301C570,-285 570,-262 570,-241"/>
<polygon style="fill:gray;stroke:gray;" points="573.5,-241 570,-231 566.5,-241 573.5,-241"/>
<a xlink:title="data">
</a>
<a xlink:title="data">
</a>
<text text-anchor="middle" x="581" y="-253" style="font-family:Nimbus Roman No9 L;font-weight:regular;font-size:11.34pt;fill:gray;">data</text>
</g>
</g>
</svg>
