<?xml version="1.0" encoding="UTF-8" standalone="no"?>
<!DOCTYPE svg PUBLIC "-//W3C//DTD SVG 1.0//EN"
 "http://www.w3.org/TR/2001/REC-SVG-20010904/DTD/svg10.dtd" [
 <!ATTLIST svg xmlns:xlink CDATA #FIXED "http://www.w3.org/1999/xlink">
]>
<!-- Generated by Graphviz version 2.12 (Mon Apr 23 09:57:53 UTC 2007)
     For user:  -->
<!-- Title: G Pages: 1 -->
<svg width="11.51in" height="19.28in"
 xmlns="http://www.w3.org/2000/svg" xmlns:xlink="http://www.w3.org/1999/xlink">
<g id="graph0" class="graph" transform="scale(1.33333 1.33333) rotate(0) translate(4 1385)">
<title>G</title>
<polygon style="fill:white;stroke:white;" points="-4,4 -4,-1385 825,-1385 825,4 -4,4"/>
<text text-anchor="middle" x="410" y="-7" style="font-family:Nimbus Roman No9 L;font-weight:regular;font-size:11.34pt;">insert into schema.mytable (a, b, c, d, e) values (null, DEFAULT, 12, 1.23, f(&#39;a string&#39;)), (1, 2, 34, 33.67);</text>
<!-- GdaSqlStatement -->
<g id="node1" class="node"><title>GdaSqlStatement</title>
<polygon style="fill:none;stroke:black;" points="299.802,-1354.07 299.802,-1369.93 260.67,-1381.13 205.33,-1381.13 166.198,-1369.93 166.198,-1354.07 205.33,-1342.87 260.67,-1342.87 299.802,-1354.07"/>
<text text-anchor="middle" x="233" y="-1357" style="font-family:Nimbus Roman No9 L;font-weight:regular;font-size:11.34pt;">GdaSqlStatement</text>
</g>
<!-- node0x8dfbf70 -->
<g id="node3" class="node"><title>node0x8dfbf70</title>
<text text-anchor="middle" x="233" y="-1268.33" style="font-family:Nimbus Roman No9 L;font-weight:regular;font-size:11.34pt;">GdaSqlStatementInsert</text>
<polygon style="fill:none;stroke:black;" points="163,-1261 163,-1285 303,-1285 303,-1261 163,-1261"/>
<text text-anchor="start" x="181" y="-1244.33" style="font-family:Nimbus Roman No9 L;font-weight:regular;font-size:11.34pt;">on_conflict=(null)</text>
<polygon style="fill:none;stroke:black;" points="163,-1237 163,-1261 303,-1261 303,-1237 163,-1237"/>
</g>
<!-- GdaSqlStatement&#45;&gt;node0x8dfbf70 -->
<g id="edge2" class="edge"><title>GdaSqlStatement&#45;&gt;node0x8dfbf70</title>
<path style="fill:none;stroke:black;" d="M233,-1343C233,-1331 233,-1314 233,-1299"/>
<polygon style="fill:black;stroke:black;" points="236.5,-1299 233,-1289 229.5,-1299 236.5,-1299"/>
<a xlink:title="contents">
</a>
<a xlink:title="contents">
</a>
<text text-anchor="middle" x="256" y="-1311" style="font-family:Nimbus Roman No9 L;font-weight:regular;font-size:11.34pt;">contents</text>
</g>
<!-- node0x8dfc5d8 -->
<g id="node4" class="node"><title>node0x8dfc5d8</title>
<text text-anchor="middle" x="94" y="-1158.33" style="font-family:Nimbus Roman No9 L;font-weight:regular;font-size:11.34pt;">GdaSqlTable</text>
<polygon style="fill:none;stroke:black;" points="8,-1151 8,-1175 180,-1175 180,-1151 8,-1151"/>
<text text-anchor="start" x="13" y="-1134.33" style="font-family:Nimbus Roman No9 L;font-weight:regular;font-size:11.34pt;">table_name=schema.mytable</text>
<polygon style="fill:none;stroke:black;" points="8,-1127 8,-1151 180,-1151 180,-1127 8,-1127"/>
</g>
<!-- node0x8dfbf70&#45;&gt;node0x8dfc5d8 -->
<g id="edge10" class="edge"><title>node0x8dfbf70&#45;&gt;node0x8dfc5d8</title>
<path style="fill:none;stroke:black;" d="M198,-1233C180,-1218 157,-1201 138,-1185"/>
<polygon style="fill:black;stroke:black;" points="140.1,-1182.2 130,-1179 135.9,-1187.8 140.1,-1182.2"/>
<a xlink:title="table">
</a>
<a xlink:title="table">
</a>
<text text-anchor="middle" x="191" y="-1201" style="font-family:Nimbus Roman No9 L;font-weight:regular;font-size:11.34pt;">table</text>
</g>
<!-- list0x8df93c8 -->
<g id="node26" class="node"><title>list0x8df93c8</title>
<polygon style="fill:none;stroke:gray;" points="206,-1144.25 233,-1129.15 260,-1144.25 259.975,-1168.68 206.025,-1168.68 206,-1144.25"/>
<text text-anchor="middle" x="233" y="-1146" style="font-family:Nimbus Roman No9 L;font-weight:regular;font-size:11.34pt;fill:gray;">N0</text>
</g>
<!-- node0x8dfbf70&#45;&gt;list0x8df93c8 -->
<g id="edge14" class="edge"><title>node0x8dfbf70&#45;&gt;list0x8df93c8</title>
<path style="fill:none;stroke:black;" d="M233,-1233C233,-1217 233,-1195 233,-1179"/>
<polygon style="fill:black;stroke:black;" points="236.5,-1179 233,-1169 229.5,-1179 236.5,-1179"/>
<a xlink:title="fields_list">
</a>
<a xlink:title="fields_list">
</a>
<text text-anchor="middle" x="260" y="-1201" style="font-family:Nimbus Roman No9 L;font-weight:regular;font-size:11.34pt;">fields_list</text>
</g>
<!-- list0x8df92b8 -->
<g id="node41" class="node"><title>list0x8df92b8</title>
<polygon style="fill:none;stroke:gray;" points="346,-1144.25 373,-1129.15 400,-1144.25 399.975,-1168.68 346.025,-1168.68 346,-1144.25"/>
<text text-anchor="middle" x="373" y="-1146" style="font-family:Nimbus Roman No9 L;font-weight:regular;font-size:11.34pt;fill:gray;">N0</text>
</g>
<!-- node0x8dfbf70&#45;&gt;list0x8df92b8 -->
<g id="edge32" class="edge"><title>node0x8dfbf70&#45;&gt;list0x8df92b8</title>
<path style="fill:none;stroke:black;" d="M269,-1233C276,-1227 284,-1221 292,-1215 309,-1202 327,-1187 342,-1175"/>
<polygon style="fill:black;stroke:black;" points="344.1,-1177.8 350,-1169 339.9,-1172.2 344.1,-1177.8"/>
<a xlink:title="values_list">
</a>
<a xlink:title="values_list">
</a>
<text text-anchor="middle" x="342" y="-1201" style="font-family:Nimbus Roman No9 L;font-weight:regular;font-size:11.34pt;">values_list</text>
</g>
<!-- node0x8dfc170 -->
<g id="node5" class="node"><title>node0x8dfc170</title>
<text text-anchor="middle" x="136" y="-1048.33" style="font-family:Nimbus Roman No9 L;font-weight:regular;font-size:11.34pt;">GdaSqlField</text>
<polygon style="fill:none;stroke:black;" points="92,-1041 92,-1065 180,-1065 180,-1041 92,-1041"/>
<text text-anchor="start" x="97" y="-1024.33" style="font-family:Nimbus Roman No9 L;font-weight:regular;font-size:11.34pt;">field_name=a</text>
<polygon style="fill:none;stroke:black;" points="92,-1017 92,-1041 180,-1041 180,-1017 92,-1017"/>
</g>
<!-- node0x8dfbc88 -->
<g id="node6" class="node"><title>node0x8dfbc88</title>
<text text-anchor="middle" x="136" y="-928.333" style="font-family:Nimbus Roman No9 L;font-weight:regular;font-size:11.34pt;">GdaSqlField</text>
<polygon style="fill:none;stroke:black;" points="92,-921 92,-945 180,-945 180,-921 92,-921"/>
<text text-anchor="start" x="97" y="-904.333" style="font-family:Nimbus Roman No9 L;font-weight:regular;font-size:11.34pt;">field_name=b</text>
<polygon style="fill:none;stroke:black;" points="92,-897 92,-921 180,-921 180,-897 92,-897"/>
</g>
<!-- node0x8dfc430 -->
<g id="node7" class="node"><title>node0x8dfc430</title>
<text text-anchor="middle" x="136" y="-798.333" style="font-family:Nimbus Roman No9 L;font-weight:regular;font-size:11.34pt;">GdaSqlField</text>
<polygon style="fill:none;stroke:black;" points="92,-791 92,-815 180,-815 180,-791 92,-791"/>
<text text-anchor="start" x="97" y="-774.333" style="font-family:Nimbus Roman No9 L;font-weight:regular;font-size:11.34pt;">field_name=c</text>
<polygon style="fill:none;stroke:black;" points="92,-767 92,-791 180,-791 180,-767 92,-767"/>
</g>
<!-- node0x8dfbf20 -->
<g id="node8" class="node"><title>node0x8dfbf20</title>
<text text-anchor="middle" x="179" y="-668.333" style="font-family:Nimbus Roman No9 L;font-weight:regular;font-size:11.34pt;">GdaSqlField</text>
<polygon style="fill:none;stroke:black;" points="135,-661 135,-685 223,-685 223,-661 135,-661"/>
<text text-anchor="start" x="140" y="-644.333" style="font-family:Nimbus Roman No9 L;font-weight:regular;font-size:11.34pt;">field_name=d</text>
<polygon style="fill:none;stroke:black;" points="135,-637 135,-661 223,-661 223,-637 135,-637"/>
</g>
<!-- node0x8dfc1c0 -->
<g id="node9" class="node"><title>node0x8dfc1c0</title>
<text text-anchor="middle" x="276" y="-538.333" style="font-family:Nimbus Roman No9 L;font-weight:regular;font-size:11.34pt;">GdaSqlField</text>
<polygon style="fill:none;stroke:black;" points="232,-531 232,-555 320,-555 320,-531 232,-531"/>
<text text-anchor="start" x="237" y="-514.333" style="font-family:Nimbus Roman No9 L;font-weight:regular;font-size:11.34pt;">field_name=e</text>
<polygon style="fill:none;stroke:black;" points="232,-507 232,-531 320,-531 320,-507 232,-507"/>
</g>
<!-- node0x8dfbec8 -->
<g id="node10" class="node"><title>node0x8dfbec8</title>
<text text-anchor="middle" x="337" y="-938.333" style="font-family:Nimbus Roman No9 L;font-weight:regular;font-size:11.34pt;">GdaSqlExpr</text>
<polygon style="fill:none;stroke:black;" points="292,-930 292,-955 382,-955 382,-930 292,-930"/>
<text text-anchor="start" x="297" y="-913.333" style="font-family:Nimbus Roman No9 L;font-weight:regular;font-size:11.34pt;">value=(null)</text>
<text text-anchor="start" x="297" y="-896.533" style="font-family:Nimbus Roman No9 L;font-weight:regular;font-size:11.34pt;">cast_as=(null)</text>
<polygon style="fill:none;stroke:black;" points="292,-887 292,-930 382,-930 382,-887 292,-887"/>
</g>
<!-- node0x8dfbe70 -->
<g id="node11" class="node"><title>node0x8dfbe70</title>
<text text-anchor="middle" x="343" y="-808.333" style="font-family:Nimbus Roman No9 L;font-weight:regular;font-size:11.34pt;">GdaSqlExpr</text>
<polygon style="fill:none;stroke:black;" points="286,-800 286,-825 400,-825 400,-800 286,-800"/>
<text text-anchor="start" x="291" y="-783.333" style="font-family:Nimbus Roman No9 L;font-weight:regular;font-size:11.34pt;">value=DEFAULT</text>
<text text-anchor="start" x="291" y="-766.533" style="font-family:Nimbus Roman No9 L;font-weight:regular;font-size:11.34pt;">cast_as=(null)</text>
<polygon style="fill:none;stroke:black;" points="286,-757 286,-800 400,-800 400,-757 286,-757"/>
</g>
<!-- node0x8dfbda8 -->
<g id="node12" class="node"><title>node0x8dfbda8</title>
<text text-anchor="middle" x="391" y="-678.333" style="font-family:Nimbus Roman No9 L;font-weight:regular;font-size:11.34pt;">GdaSqlExpr</text>
<polygon style="fill:none;stroke:black;" points="346,-670 346,-695 436,-695 436,-670 346,-670"/>
<text text-anchor="start" x="351" y="-653.333" style="font-family:Nimbus Roman No9 L;font-weight:regular;font-size:11.34pt;">value=12</text>
<text text-anchor="start" x="351" y="-636.533" style="font-family:Nimbus Roman No9 L;font-weight:regular;font-size:11.34pt;">cast_as=(null)</text>
<polygon style="fill:none;stroke:black;" points="346,-627 346,-670 436,-670 436,-627 346,-627"/>
</g>
<!-- node0x8dfc090 -->
<g id="node13" class="node"><title>node0x8dfc090</title>
<text text-anchor="middle" x="461" y="-548.333" style="font-family:Nimbus Roman No9 L;font-weight:regular;font-size:11.34pt;">GdaSqlExpr</text>
<polygon style="fill:none;stroke:black;" points="416,-540 416,-565 506,-565 506,-540 416,-540"/>
<text text-anchor="start" x="421" y="-523.333" style="font-family:Nimbus Roman No9 L;font-weight:regular;font-size:11.34pt;">value=1.23</text>
<text text-anchor="start" x="421" y="-506.533" style="font-family:Nimbus Roman No9 L;font-weight:regular;font-size:11.34pt;">cast_as=(null)</text>
<polygon style="fill:none;stroke:black;" points="416,-497 416,-540 506,-540 506,-497 416,-497"/>
</g>
<!-- node0x8dfbff8 -->
<g id="node14" class="node"><title>node0x8dfbff8</title>
<text text-anchor="middle" x="559" y="-80.3333" style="font-family:Nimbus Roman No9 L;font-weight:regular;font-size:11.34pt;">GdaSqlExpr</text>
<polygon style="fill:none;stroke:black;" points="511,-72 511,-97 607,-97 607,-72 511,-72"/>
<text text-anchor="start" x="516" y="-55.3333" style="font-family:Nimbus Roman No9 L;font-weight:regular;font-size:11.34pt;">value=&#39;a string&#39;</text>
<text text-anchor="start" x="516" y="-38.5333" style="font-family:Nimbus Roman No9 L;font-weight:regular;font-size:11.34pt;">cast_as=(null)</text>
<polygon style="fill:none;stroke:black;" points="511,-29 511,-72 607,-72 607,-29 511,-29"/>
</g>
<!-- node0x8dfc120 -->
<g id="node15" class="node"><title>node0x8dfc120</title>
<text text-anchor="middle" x="559" y="-288.333" style="font-family:Nimbus Roman No9 L;font-weight:regular;font-size:11.34pt;">GdaSqlFunction</text>
<polygon style="fill:none;stroke:black;" points="505,-281 505,-305 613,-305 613,-281 505,-281"/>
<text text-anchor="start" x="510" y="-264.333" style="font-family:Nimbus Roman No9 L;font-weight:regular;font-size:11.34pt;">function_name=f</text>
<polygon style="fill:none;stroke:black;" points="505,-257 505,-281 613,-281 613,-257 505,-257"/>
</g>
<!-- list0x8df92c8 -->
<g id="node16" class="node"><title>list0x8df92c8</title>
<polygon style="fill:none;stroke:gray;" points="532,-170.248 559,-155.149 586,-170.248 585.975,-194.678 532.025,-194.678 532,-170.248"/>
<text text-anchor="middle" x="559" y="-172" style="font-family:Nimbus Roman No9 L;font-weight:regular;font-size:11.34pt;fill:gray;">N0</text>
</g>
<!-- node0x8dfc120&#45;&gt;list0x8df92c8 -->
<g id="edge6" class="edge"><title>node0x8dfc120&#45;&gt;list0x8df92c8</title>
<path style="fill:none;stroke:black;" d="M559,-253C559,-238 559,-220 559,-205"/>
<polygon style="fill:black;stroke:black;" points="562.5,-205 559,-195 555.5,-205 562.5,-205"/>
<a xlink:title="args_list">
</a>
<a xlink:title="args_list">
</a>
<text text-anchor="middle" x="582" y="-221" style="font-family:Nimbus Roman No9 L;font-weight:regular;font-size:11.34pt;">args_list</text>
</g>
<!-- list0x8df92c8&#45;&gt;node0x8dfbff8 -->
<g id="edge4" class="edge"><title>list0x8df92c8&#45;&gt;node0x8dfbff8</title>
<path style="fill:none;stroke:gray;" d="M559,-155C559,-143 559,-127 559,-111"/>
<polygon style="fill:gray;stroke:gray;" points="562.5,-111 559,-101 555.5,-111 562.5,-111"/>
<a xlink:title="data">
</a>
<a xlink:title="data">
</a>
<text text-anchor="middle" x="570" y="-123" style="font-family:Nimbus Roman No9 L;font-weight:regular;font-size:11.34pt;fill:gray;">data</text>
</g>
<!-- node0x8dfc0f8 -->
<g id="node19" class="node"><title>node0x8dfc0f8</title>
<text text-anchor="middle" x="559" y="-418.333" style="font-family:Nimbus Roman No9 L;font-weight:regular;font-size:11.34pt;">GdaSqlExpr</text>
<polygon style="fill:none;stroke:black;" points="514,-410 514,-435 604,-435 604,-410 514,-410"/>
<text text-anchor="start" x="519" y="-393.333" style="font-family:Nimbus Roman No9 L;font-weight:regular;font-size:11.34pt;">value=(null)</text>
<text text-anchor="start" x="519" y="-376.533" style="font-family:Nimbus Roman No9 L;font-weight:regular;font-size:11.34pt;">cast_as=(null)</text>
<polygon style="fill:none;stroke:black;" points="514,-367 514,-410 604,-410 604,-367 514,-367"/>
</g>
<!-- node0x8dfc0f8&#45;&gt;node0x8dfc120 -->
<g id="edge8" class="edge"><title>node0x8dfc0f8&#45;&gt;node0x8dfc120</title>
<path style="fill:none;stroke:black;" d="M559,-363C559,-349 559,-333 559,-319"/>
<polygon style="fill:black;stroke:black;" points="562.5,-319 559,-309 555.5,-319 562.5,-319"/>
<a xlink:title="func">
</a>
<a xlink:title="func">
</a>
<text text-anchor="middle" x="571" y="-331" style="font-family:Nimbus Roman No9 L;font-weight:regular;font-size:11.34pt;">func</text>
</g>
<!-- node0x8dfc210 -->
<g id="node21" class="node"><title>node0x8dfc210</title>
<text text-anchor="middle" x="551" y="-808.333" style="font-family:Nimbus Roman No9 L;font-weight:regular;font-size:11.34pt;">GdaSqlExpr</text>
<polygon style="fill:none;stroke:black;" points="506,-800 506,-825 596,-825 596,-800 506,-800"/>
<text text-anchor="start" x="511" y="-783.333" style="font-family:Nimbus Roman No9 L;font-weight:regular;font-size:11.34pt;">value=1</text>
<text text-anchor="start" x="511" y="-766.533" style="font-family:Nimbus Roman No9 L;font-weight:regular;font-size:11.34pt;">cast_as=(null)</text>
<polygon style="fill:none;stroke:black;" points="506,-757 506,-800 596,-800 596,-757 506,-757"/>
</g>
<!-- node0x8dfc470 -->
<g id="node22" class="node"><title>node0x8dfc470</title>
<text text-anchor="middle" x="599" y="-678.333" style="font-family:Nimbus Roman No9 L;font-weight:regular;font-size:11.34pt;">GdaSqlExpr</text>
<polygon style="fill:none;stroke:black;" points="554,-670 554,-695 644,-695 644,-670 554,-670"/>
<text text-anchor="start" x="559" y="-653.333" style="font-family:Nimbus Roman No9 L;font-weight:regular;font-size:11.34pt;">value=2</text>
<text text-anchor="start" x="559" y="-636.533" style="font-family:Nimbus Roman No9 L;font-weight:regular;font-size:11.34pt;">cast_as=(null)</text>
<polygon style="fill:none;stroke:black;" points="554,-627 554,-670 644,-670 644,-627 554,-627"/>
</g>
<!-- node0x8dfc878 -->
<g id="node23" class="node"><title>node0x8dfc878</title>
<text text-anchor="middle" x="670" y="-548.333" style="font-family:Nimbus Roman No9 L;font-weight:regular;font-size:11.34pt;">GdaSqlExpr</text>
<polygon style="fill:none;stroke:black;" points="625,-540 625,-565 715,-565 715,-540 625,-540"/>
<text text-anchor="start" x="630" y="-523.333" style="font-family:Nimbus Roman No9 L;font-weight:regular;font-size:11.34pt;">value=34</text>
<text text-anchor="start" x="630" y="-506.533" style="font-family:Nimbus Roman No9 L;font-weight:regular;font-size:11.34pt;">cast_as=(null)</text>
<polygon style="fill:none;stroke:black;" points="625,-497 625,-540 715,-540 715,-497 625,-497"/>
</g>
<!-- node0x8dfc8b8 -->
<g id="node24" class="node"><title>node0x8dfc8b8</title>
<text text-anchor="middle" x="768" y="-418.333" style="font-family:Nimbus Roman No9 L;font-weight:regular;font-size:11.34pt;">GdaSqlExpr</text>
<polygon style="fill:none;stroke:black;" points="723,-410 723,-435 813,-435 813,-410 723,-410"/>
<text text-anchor="start" x="728" y="-393.333" style="font-family:Nimbus Roman No9 L;font-weight:regular;font-size:11.34pt;">value=33.67</text>
<text text-anchor="start" x="728" y="-376.533" style="font-family:Nimbus Roman No9 L;font-weight:regular;font-size:11.34pt;">cast_as=(null)</text>
<polygon style="fill:none;stroke:black;" points="723,-367 723,-410 813,-410 813,-367 723,-367"/>
</g>
<!-- list0x8df93c8&#45;&gt;node0x8dfc170 -->
<g id="edge12" class="edge"><title>list0x8df93c8&#45;&gt;node0x8dfc170</title>
<path style="fill:none;stroke:gray;" d="M220,-1136C207,-1121 185,-1097 168,-1077"/>
<polygon style="fill:gray;stroke:gray;" points="170.219,-1074.22 161,-1069 164.951,-1078.83 170.219,-1074.22"/>
<a xlink:title="data">
</a>
<a xlink:title="data">
</a>
<text text-anchor="middle" x="205" y="-1091" style="font-family:Nimbus Roman No9 L;font-weight:regular;font-size:11.34pt;fill:gray;">data</text>
</g>
<!-- list0x8df93d0 -->
<g id="node29" class="node"><title>list0x8df93d0</title>
<polygon style="fill:none;stroke:gray;" points="206,-1034.25 233,-1019.15 260,-1034.25 259.975,-1058.68 206.025,-1058.68 206,-1034.25"/>
<text text-anchor="middle" x="233" y="-1036" style="font-family:Nimbus Roman No9 L;font-weight:regular;font-size:11.34pt;fill:gray;">N1</text>
</g>
<!-- list0x8df93c8&#45;&gt;list0x8df93d0 -->
<g id="edge18" class="edge"><title>list0x8df93c8&#45;&gt;list0x8df93d0</title>
<path style="fill:none;stroke:gray;" d="M233,-1129C233,-1112 233,-1088 233,-1069"/>
<polygon style="fill:gray;stroke:gray;" points="236.5,-1069 233,-1059 229.5,-1069 236.5,-1069"/>
<a xlink:title="next">
</a>
<a xlink:title="next">
</a>
<text text-anchor="middle" x="245" y="-1091" style="font-family:Nimbus Roman No9 L;font-weight:regular;font-size:11.34pt;fill:gray;">next</text>
</g>
<!-- list0x8df93d0&#45;&gt;node0x8dfbc88 -->
<g id="edge16" class="edge"><title>list0x8df93d0&#45;&gt;node0x8dfbc88</title>
<path style="fill:none;stroke:gray;" d="M221,-1026C207,-1009 184,-980 165,-957"/>
<polygon style="fill:gray;stroke:gray;" points="167.8,-954.9 159,-949 162.2,-959.1 167.8,-954.9"/>
<a xlink:title="data">
</a>
<a xlink:title="data">
</a>
<text text-anchor="middle" x="208" y="-981" style="font-family:Nimbus Roman No9 L;font-weight:regular;font-size:11.34pt;fill:gray;">data</text>
</g>
<!-- list0x8df93d8 -->
<g id="node32" class="node"><title>list0x8df93d8</title>
<polygon style="fill:none;stroke:gray;" points="206,-914.248 233,-899.149 260,-914.248 259.975,-938.678 206.025,-938.678 206,-914.248"/>
<text text-anchor="middle" x="233" y="-916" style="font-family:Nimbus Roman No9 L;font-weight:regular;font-size:11.34pt;fill:gray;">N2</text>
</g>
<!-- list0x8df93d0&#45;&gt;list0x8df93d8 -->
<g id="edge22" class="edge"><title>list0x8df93d0&#45;&gt;list0x8df93d8</title>
<path style="fill:none;stroke:gray;" d="M233,-1019C233,-999 233,-970 233,-949"/>
<polygon style="fill:gray;stroke:gray;" points="236.5,-949 233,-939 229.5,-949 236.5,-949"/>
<a xlink:title="next">
</a>
<a xlink:title="next">
</a>
<text text-anchor="middle" x="245" y="-981" style="font-family:Nimbus Roman No9 L;font-weight:regular;font-size:11.34pt;fill:gray;">next</text>
</g>
<!-- list0x8df93d8&#45;&gt;node0x8dfc430 -->
<g id="edge20" class="edge"><title>list0x8df93d8&#45;&gt;node0x8dfc430</title>
<path style="fill:none;stroke:gray;" d="M221,-906C207,-886 183,-853 163,-827"/>
<polygon style="fill:gray;stroke:gray;" points="165.8,-824.9 157,-819 160.2,-829.1 165.8,-824.9"/>
<a xlink:title="data">
</a>
<a xlink:title="data">
</a>
<text text-anchor="middle" x="202" y="-851" style="font-family:Nimbus Roman No9 L;font-weight:regular;font-size:11.34pt;fill:gray;">data</text>
</g>
<!-- list0x8df9280 -->
<g id="node35" class="node"><title>list0x8df9280</title>
<polygon style="fill:none;stroke:gray;" points="206,-784.248 233,-769.149 260,-784.248 259.975,-808.678 206.025,-808.678 206,-784.248"/>
<text text-anchor="middle" x="233" y="-786" style="font-family:Nimbus Roman No9 L;font-weight:regular;font-size:11.34pt;fill:gray;">N3</text>
</g>
<!-- list0x8df93d8&#45;&gt;list0x8df9280 -->
<g id="edge26" class="edge"><title>list0x8df93d8&#45;&gt;list0x8df9280</title>
<path style="fill:none;stroke:gray;" d="M233,-899C233,-877 233,-843 233,-819"/>
<polygon style="fill:gray;stroke:gray;" points="236.5,-819 233,-809 229.5,-819 236.5,-819"/>
<a xlink:title="next">
</a>
<a xlink:title="next">
</a>
<text text-anchor="middle" x="245" y="-851" style="font-family:Nimbus Roman No9 L;font-weight:regular;font-size:11.34pt;fill:gray;">next</text>
</g>
<!-- list0x8df9280&#45;&gt;node0x8dfbf20 -->
<g id="edge24" class="edge"><title>list0x8df9280&#45;&gt;node0x8dfbf20</title>
<path style="fill:none;stroke:gray;" d="M226,-773C218,-754 205,-723 195,-699"/>
<polygon style="fill:gray;stroke:gray;" points="197.964,-696.985 191,-689 191.464,-699.585 197.964,-696.985"/>
<a xlink:title="data">
</a>
<a xlink:title="data">
</a>
<text text-anchor="middle" x="220" y="-721" style="font-family:Nimbus Roman No9 L;font-weight:regular;font-size:11.34pt;fill:gray;">data</text>
</g>
<!-- list0x8df9260 -->
<g id="node38" class="node"><title>list0x8df9260</title>
<polygon style="fill:none;stroke:gray;" points="249,-654.248 276,-639.149 303,-654.248 302.975,-678.678 249.025,-678.678 249,-654.248"/>
<text text-anchor="middle" x="276" y="-656" style="font-family:Nimbus Roman No9 L;font-weight:regular;font-size:11.34pt;fill:gray;">N4</text>
</g>
<!-- list0x8df9280&#45;&gt;list0x8df9260 -->
<g id="edge30" class="edge"><title>list0x8df9280&#45;&gt;list0x8df9260</title>
<path style="fill:none;stroke:gray;" d="M239,-772C246,-750 258,-714 267,-689"/>
<polygon style="fill:gray;stroke:gray;" points="270.479,-689.584 270,-679 263.774,-687.573 270.479,-689.584"/>
<a xlink:title="next">
</a>
<a xlink:title="next">
</a>
<text text-anchor="middle" x="268" y="-721" style="font-family:Nimbus Roman No9 L;font-weight:regular;font-size:11.34pt;fill:gray;">next</text>
</g>
<!-- list0x8df9260&#45;&gt;node0x8dfc1c0 -->
<g id="edge28" class="edge"><title>list0x8df9260&#45;&gt;node0x8dfc1c0</title>
<path style="fill:none;stroke:gray;" d="M276,-639C276,-620 276,-592 276,-569"/>
<polygon style="fill:gray;stroke:gray;" points="279.5,-569 276,-559 272.5,-569 279.5,-569"/>
<a xlink:title="data">
</a>
<a xlink:title="data">
</a>
<text text-anchor="middle" x="287" y="-591" style="font-family:Nimbus Roman No9 L;font-weight:regular;font-size:11.34pt;fill:gray;">data</text>
</g>
<!-- list0x8df9258 -->
<g id="node43" class="node"><title>list0x8df9258</title>
<polygon style="fill:none;stroke:gray;" points="346,-1034.25 373,-1019.15 400,-1034.25 399.975,-1058.68 346.025,-1058.68 346,-1034.25"/>
<text text-anchor="middle" x="373" y="-1036" style="font-family:Nimbus Roman No9 L;font-weight:regular;font-size:11.34pt;fill:gray;">N0</text>
</g>
<!-- list0x8df92b8&#45;&gt;list0x8df9258 -->
<g id="edge36" class="edge"><title>list0x8df92b8&#45;&gt;list0x8df9258</title>
<path style="fill:none;stroke:gray;" d="M373,-1129C373,-1112 373,-1088 373,-1069"/>
<polygon style="fill:gray;stroke:gray;" points="376.5,-1069 373,-1059 369.5,-1069 376.5,-1069"/>
<a xlink:title="data">
</a>
<a xlink:title="data">
</a>
<text text-anchor="middle" x="384" y="-1091" style="font-family:Nimbus Roman No9 L;font-weight:regular;font-size:11.34pt;fill:gray;">data</text>
</g>
<!-- list0x8df9288 -->
<g id="node58" class="node"><title>list0x8df9288</title>
<polygon style="fill:none;stroke:gray;" points="447,-1034.25 474,-1019.15 501,-1034.25 500.975,-1058.68 447.025,-1058.68 447,-1034.25"/>
<text text-anchor="middle" x="474" y="-1036" style="font-family:Nimbus Roman No9 L;font-weight:regular;font-size:11.34pt;fill:gray;">N1</text>
</g>
<!-- list0x8df92b8&#45;&gt;list0x8df9288 -->
<g id="edge54" class="edge"><title>list0x8df92b8&#45;&gt;list0x8df9288</title>
<path style="fill:none;stroke:gray;" d="M387,-1136C403,-1118 431,-1088 451,-1066"/>
<polygon style="fill:gray;stroke:gray;" points="453.404,-1068.55 458,-1059 448.454,-1063.6 453.404,-1068.55"/>
<a xlink:title="next">
</a>
<a xlink:title="next">
</a>
<text text-anchor="middle" x="441" y="-1091" style="font-family:Nimbus Roman No9 L;font-weight:regular;font-size:11.34pt;fill:gray;">next</text>
</g>
<!-- list0x8df9258&#45;&gt;node0x8dfbec8 -->
<g id="edge34" class="edge"><title>list0x8df9258&#45;&gt;node0x8dfbec8</title>
<path style="fill:none;stroke:gray;" d="M367,-1022C363,-1008 357,-987 351,-969"/>
<polygon style="fill:gray;stroke:gray;" points="354.226,-967.573 348,-959 347.521,-969.584 354.226,-967.573"/>
<a xlink:title="data">
</a>
<a xlink:title="data">
</a>
<text text-anchor="middle" x="369" y="-981" style="font-family:Nimbus Roman No9 L;font-weight:regular;font-size:11.34pt;fill:gray;">data</text>
</g>
<!-- list0x8df9250 -->
<g id="node46" class="node"><title>list0x8df9250</title>
<polygon style="fill:none;stroke:gray;" points="408,-914.248 435,-899.149 462,-914.248 461.975,-938.678 408.025,-938.678 408,-914.248"/>
<text text-anchor="middle" x="435" y="-916" style="font-family:Nimbus Roman No9 L;font-weight:regular;font-size:11.34pt;fill:gray;">N1</text>
</g>
<!-- list0x8df9258&#45;&gt;list0x8df9250 -->
<g id="edge40" class="edge"><title>list0x8df9258&#45;&gt;list0x8df9250</title>
<path style="fill:none;stroke:gray;" d="M382,-1024C393,-1005 409,-971 421,-948"/>
<polygon style="fill:gray;stroke:gray;" points="424.203,-949.441 426,-939 418.084,-946.042 424.203,-949.441"/>
<a xlink:title="next">
</a>
<a xlink:title="next">
</a>
<text text-anchor="middle" x="415" y="-981" style="font-family:Nimbus Roman No9 L;font-weight:regular;font-size:11.34pt;fill:gray;">next</text>
</g>
<!-- list0x8df9250&#45;&gt;node0x8dfbe70 -->
<g id="edge38" class="edge"><title>list0x8df9250&#45;&gt;node0x8dfbe70</title>
<path style="fill:none;stroke:gray;" d="M424,-905C411,-889 393,-862 376,-837"/>
<polygon style="fill:gray;stroke:gray;" points="378.8,-834.9 370,-829 373.2,-839.1 378.8,-834.9"/>
<a xlink:title="data">
</a>
<a xlink:title="data">
</a>
<text text-anchor="middle" x="404" y="-851" style="font-family:Nimbus Roman No9 L;font-weight:regular;font-size:11.34pt;fill:gray;">data</text>
</g>
<!-- list0x8df9248 -->
<g id="node49" class="node"><title>list0x8df9248</title>
<polygon style="fill:none;stroke:gray;" points="426,-784.248 453,-769.149 480,-784.248 479.975,-808.678 426.025,-808.678 426,-784.248"/>
<text text-anchor="middle" x="453" y="-786" style="font-family:Nimbus Roman No9 L;font-weight:regular;font-size:11.34pt;fill:gray;">N2</text>
</g>
<!-- list0x8df9250&#45;&gt;list0x8df9248 -->
<g id="edge44" class="edge"><title>list0x8df9250&#45;&gt;list0x8df9248</title>
<path style="fill:none;stroke:gray;" d="M438,-901C441,-879 446,-844 449,-819"/>
<polygon style="fill:gray;stroke:gray;" points="452.471,-819.492 451,-809 445.607,-818.119 452.471,-819.492"/>
<a xlink:title="next">
</a>
<a xlink:title="next">
</a>
<text text-anchor="middle" x="455" y="-851" style="font-family:Nimbus Roman No9 L;font-weight:regular;font-size:11.34pt;fill:gray;">next</text>
</g>
<!-- list0x8df9248&#45;&gt;node0x8dfbda8 -->
<g id="edge42" class="edge"><title>list0x8df9248&#45;&gt;node0x8dfbda8</title>
<path style="fill:none;stroke:gray;" d="M445,-774C437,-757 425,-731 413,-708"/>
<polygon style="fill:gray;stroke:gray;" points="416.26,-706.717 409,-699 409.863,-709.56 416.26,-706.717"/>
<a xlink:title="data">
</a>
<a xlink:title="data">
</a>
<text text-anchor="middle" x="435" y="-721" style="font-family:Nimbus Roman No9 L;font-weight:regular;font-size:11.34pt;fill:gray;">data</text>
</g>
<!-- list0x8df92d0 -->
<g id="node52" class="node"><title>list0x8df92d0</title>
<polygon style="fill:none;stroke:gray;" points="462,-654.248 489,-639.149 516,-654.248 515.975,-678.678 462.025,-678.678 462,-654.248"/>
<text text-anchor="middle" x="489" y="-656" style="font-family:Nimbus Roman No9 L;font-weight:regular;font-size:11.34pt;fill:gray;">N3</text>
</g>
<!-- list0x8df9248&#45;&gt;list0x8df92d0 -->
<g id="edge48" class="edge"><title>list0x8df9248&#45;&gt;list0x8df92d0</title>
<path style="fill:none;stroke:gray;" d="M458,-772C464,-750 474,-714 481,-689"/>
<polygon style="fill:gray;stroke:gray;" points="484.479,-689.584 484,-679 477.774,-687.573 484.479,-689.584"/>
<a xlink:title="next">
</a>
<a xlink:title="next">
</a>
<text text-anchor="middle" x="484" y="-721" style="font-family:Nimbus Roman No9 L;font-weight:regular;font-size:11.34pt;fill:gray;">next</text>
</g>
<!-- list0x8df92d0&#45;&gt;node0x8dfc090 -->
<g id="edge46" class="edge"><title>list0x8df92d0&#45;&gt;node0x8dfc090</title>
<path style="fill:none;stroke:gray;" d="M485,-641C482,-625 476,-601 471,-579"/>
<polygon style="fill:gray;stroke:gray;" points="474.393,-578.119 469,-569 467.529,-579.492 474.393,-578.119"/>
<a xlink:title="data">
</a>
<a xlink:title="data">
</a>
<text text-anchor="middle" x="487" y="-591" style="font-family:Nimbus Roman No9 L;font-weight:regular;font-size:11.34pt;fill:gray;">data</text>
</g>
<!-- list0x8df92c0 -->
<g id="node55" class="node"><title>list0x8df92c0</title>
<polygon style="fill:none;stroke:gray;" points="532,-524.248 559,-509.149 586,-524.248 585.975,-548.678 532.025,-548.678 532,-524.248"/>
<text text-anchor="middle" x="559" y="-526" style="font-family:Nimbus Roman No9 L;font-weight:regular;font-size:11.34pt;fill:gray;">N4</text>
</g>
<!-- list0x8df92d0&#45;&gt;list0x8df92c0 -->
<g id="edge52" class="edge"><title>list0x8df92d0&#45;&gt;list0x8df92c0</title>
<path style="fill:none;stroke:gray;" d="M498,-644C510,-623 531,-584 544,-558"/>
<polygon style="fill:gray;stroke:gray;" points="547.203,-559.441 549,-549 541.084,-556.042 547.203,-559.441"/>
<a xlink:title="next">
</a>
<a xlink:title="next">
</a>
<text text-anchor="middle" x="538" y="-591" style="font-family:Nimbus Roman No9 L;font-weight:regular;font-size:11.34pt;fill:gray;">next</text>
</g>
<!-- list0x8df92c0&#45;&gt;node0x8dfc0f8 -->
<g id="edge50" class="edge"><title>list0x8df92c0&#45;&gt;node0x8dfc0f8</title>
<path style="fill:none;stroke:gray;" d="M559,-509C559,-493 559,-470 559,-449"/>
<polygon style="fill:gray;stroke:gray;" points="562.5,-449 559,-439 555.5,-449 562.5,-449"/>
<a xlink:title="data">
</a>
<a xlink:title="data">
</a>
<text text-anchor="middle" x="570" y="-461" style="font-family:Nimbus Roman No9 L;font-weight:regular;font-size:11.34pt;fill:gray;">data</text>
</g>
<!-- list0x8df92b0 -->
<g id="node60" class="node"><title>list0x8df92b0</title>
<polygon style="fill:none;stroke:gray;" points="524,-914.248 551,-899.149 578,-914.248 577.975,-938.678 524.025,-938.678 524,-914.248"/>
<text text-anchor="middle" x="551" y="-916" style="font-family:Nimbus Roman No9 L;font-weight:regular;font-size:11.34pt;fill:gray;">N0</text>
</g>
<!-- list0x8df9288&#45;&gt;list0x8df92b0 -->
<g id="edge58" class="edge"><title>list0x8df9288&#45;&gt;list0x8df92b0</title>
<path style="fill:none;stroke:gray;" d="M484,-1025C496,-1005 518,-971 534,-947"/>
<polygon style="fill:gray;stroke:gray;" points="536.668,-949.335 539,-939 530.732,-945.625 536.668,-949.335"/>
<a xlink:title="data">
</a>
<a xlink:title="data">
</a>
<text text-anchor="middle" x="523" y="-981" style="font-family:Nimbus Roman No9 L;font-weight:regular;font-size:11.34pt;fill:gray;">data</text>
</g>
<!-- list0x8df92b0&#45;&gt;node0x8dfc210 -->
<g id="edge56" class="edge"><title>list0x8df92b0&#45;&gt;node0x8dfc210</title>
<path style="fill:none;stroke:gray;" d="M551,-899C551,-883 551,-860 551,-839"/>
<polygon style="fill:gray;stroke:gray;" points="554.5,-839 551,-829 547.5,-839 554.5,-839"/>
<a xlink:title="data">
</a>
<a xlink:title="data">
</a>
<text text-anchor="middle" x="562" y="-851" style="font-family:Nimbus Roman No9 L;font-weight:regular;font-size:11.34pt;fill:gray;">data</text>
</g>
<!-- list0x8df92a0 -->
<g id="node63" class="node"><title>list0x8df92a0</title>
<polygon style="fill:none;stroke:gray;" points="622,-784.248 649,-769.149 676,-784.248 675.975,-808.678 622.025,-808.678 622,-784.248"/>
<text text-anchor="middle" x="649" y="-786" style="font-family:Nimbus Roman No9 L;font-weight:regular;font-size:11.34pt;fill:gray;">N1</text>
</g>
<!-- list0x8df92b0&#45;&gt;list0x8df92a0 -->
<g id="edge62" class="edge"><title>list0x8df92b0&#45;&gt;list0x8df92a0</title>
<path style="fill:none;stroke:gray;" d="M563,-906C579,-883 609,-844 630,-817"/>
<polygon style="fill:gray;stroke:gray;" points="632.8,-819.1 636,-809 627.2,-814.9 632.8,-819.1"/>
<a xlink:title="next">
</a>
<a xlink:title="next">
</a>
<text text-anchor="middle" x="616" y="-851" style="font-family:Nimbus Roman No9 L;font-weight:regular;font-size:11.34pt;fill:gray;">next</text>
</g>
<!-- list0x8df92a0&#45;&gt;node0x8dfc470 -->
<g id="edge60" class="edge"><title>list0x8df92a0&#45;&gt;node0x8dfc470</title>
<path style="fill:none;stroke:gray;" d="M642,-773C636,-756 626,-731 618,-709"/>
<polygon style="fill:gray;stroke:gray;" points="620.964,-706.985 614,-699 614.464,-709.585 620.964,-706.985"/>
<a xlink:title="data">
</a>
<a xlink:title="data">
</a>
<text text-anchor="middle" x="637" y="-721" style="font-family:Nimbus Roman No9 L;font-weight:regular;font-size:11.34pt;fill:gray;">data</text>
</g>
<!-- list0x8df9298 -->
<g id="node66" class="node"><title>list0x8df9298</title>
<polygon style="fill:none;stroke:gray;" points="670,-654.248 697,-639.149 724,-654.248 723.975,-678.678 670.025,-678.678 670,-654.248"/>
<text text-anchor="middle" x="697" y="-656" style="font-family:Nimbus Roman No9 L;font-weight:regular;font-size:11.34pt;fill:gray;">N2</text>
</g>
<!-- list0x8df92a0&#45;&gt;list0x8df9298 -->
<g id="edge66" class="edge"><title>list0x8df92a0&#45;&gt;list0x8df9298</title>
<path style="fill:none;stroke:gray;" d="M656,-773C664,-751 677,-714 687,-689"/>
<polygon style="fill:gray;stroke:gray;" points="690.479,-689.584 690,-679 683.774,-687.573 690.479,-689.584"/>
<a xlink:title="next">
</a>
<a xlink:title="next">
</a>
<text text-anchor="middle" x="686" y="-721" style="font-family:Nimbus Roman No9 L;font-weight:regular;font-size:11.34pt;fill:gray;">next</text>
</g>
<!-- list0x8df9298&#45;&gt;node0x8dfc878 -->
<g id="edge64" class="edge"><title>list0x8df9298&#45;&gt;node0x8dfc878</title>
<path style="fill:none;stroke:gray;" d="M690,-643C685,-632 681,-618 678,-605 676,-596 674,-588 673,-579"/>
<polygon style="fill:gray;stroke:gray;" points="676.478,-578.602 672,-569 669.512,-579.299 676.478,-578.602"/>
<a xlink:title="data">
</a>
<a xlink:title="data">
</a>
<text text-anchor="middle" x="689" y="-591" style="font-family:Nimbus Roman No9 L;font-weight:regular;font-size:11.34pt;fill:gray;">data</text>
</g>
<!-- list0x8df9290 -->
<g id="node69" class="node"><title>list0x8df9290</title>
<polygon style="fill:none;stroke:gray;" points="741,-524.248 768,-509.149 795,-524.248 794.975,-548.678 741.025,-548.678 741,-524.248"/>
<text text-anchor="middle" x="768" y="-526" style="font-family:Nimbus Roman No9 L;font-weight:regular;font-size:11.34pt;fill:gray;">N3</text>
</g>
<!-- list0x8df9298&#45;&gt;list0x8df9290 -->
<g id="edge70" class="edge"><title>list0x8df9298&#45;&gt;list0x8df9290</title>
<path style="fill:none;stroke:gray;" d="M706,-644C718,-623 740,-584 753,-558"/>
<polygon style="fill:gray;stroke:gray;" points="756.203,-559.441 758,-549 750.084,-556.042 756.203,-559.441"/>
<a xlink:title="next">
</a>
<a xlink:title="next">
</a>
<text text-anchor="middle" x="747" y="-591" style="font-family:Nimbus Roman No9 L;font-weight:regular;font-size:11.34pt;fill:gray;">next</text>
</g>
<!-- list0x8df9290&#45;&gt;node0x8dfc8b8 -->
<g id="edge68" class="edge"><title>list0x8df9290&#45;&gt;node0x8dfc8b8</title>
<path style="fill:none;stroke:gray;" d="M768,-509C768,-493 768,-470 768,-449"/>
<polygon style="fill:gray;stroke:gray;" points="771.5,-449 768,-439 764.5,-449 771.5,-449"/>
<a xlink:title="data">
</a>
<a xlink:title="data">
</a>
<text text-anchor="middle" x="779" y="-461" style="font-family:Nimbus Roman No9 L;font-weight:regular;font-size:11.34pt;fill:gray;">data</text>
</g>
</g>
</svg>
